<?xml version="1.0" standalone="no"?>
<!DOCTYPE svg PUBLIC "-//W3C//DTD SVG 20010904//EN"
 "http://www.w3.org/TR/2001/REC-SVG-20010904/DTD/svg10.dtd">
<svg version="1.0" xmlns="http://www.w3.org/2000/svg"
 width="300.000000pt" height="300.000000pt" viewBox="0 0 300.000000 300.000000"
 preserveAspectRatio="xMidYMid meet">
<metadata>
Created by potrace 1.10, written by Peter Selinger 2001-2011
</metadata>
<g transform="translate(0.000000,300.000000) scale(0.100000,-0.100000)"
fill="#000000" stroke="none">
<path d="M1441 2294 c-25 -32 -25 -37 -7 -73 9 -17 11 -32 5 -42 -5 -8 -9
-178 -9 -381 l0 -368 -65 0 c-81 0 -261 -24 -383 -51 -51 -12 -95 -19 -97 -17
-7 6 -8 779 -1 785 13 14 5 60 -14 81 -27 28 -73 29 -101 1 -16 -16 -20 -29
-16 -57 9 -55 7 -846 -1 -852 -4 -4 -41 -19 -82 -35 -133 -50 -288 -134 -393
-212 -31 -24 -59 -43 -62 -43 -3 0 -5 156 -5 346 0 231 -4 352 -11 366 -8 14
-8 23 0 31 18 18 13 75 -9 97 -27 27 -66 25 -95 -5 -23 -22 -33 -64 -19 -78 3
-3 5 -205 5 -448 l-2 -442 -34 -42 c-61 -74 -60 -75 139 -75 l174 0 44 33
c137 105 227 152 437 231 68 26 234 65 356 83 133 20 440 22 565 4 187 -27
349 -68 470 -119 146 -62 275 -136 363 -209 28 -22 35 -23 208 -23 98 0 179 4
179 9 0 4 -16 29 -35 54 l-35 46 0 423 c0 312 -3 427 -12 436 -9 9 -8 16 5 30
24 26 21 59 -8 87 -47 48 -115 22 -115 -45 0 -21 5 -42 11 -45 6 -4 7 -14 2
-24 -4 -9 -10 -177 -13 -374 l-5 -359 -40 32 c-102 82 -271 176 -420 235 -38
15 -73 30 -77 34 -8 7 -10 798 -1 853 10 69 -68 105 -117 54 -17 -19 -21 -32
-16 -53 7 -31 8 -805 1 -812 -3 -2 -49 5 -102 17 -125 27 -307 52 -383 52
l-60 0 0 368 c0 202 -4 373 -9 381 -6 9 -4 23 6 38 47 71 -63 144 -116 77z"/>
<path d="M1165 1929 c-50 -5 -122 -15 -160 -22 l-70 -12 -3 -49 c-3 -48 -3
-48 25 -42 72 16 245 36 308 36 107 0 115 4 115 56 l0 44 -62 -1 c-35 -1 -104
-6 -153 -10z"/>
<path d="M1610 1898 c0 -43 2 -46 31 -52 17 -3 57 -6 89 -6 49 0 217 -19 303
-35 26 -4 27 -3 27 44 l0 48 -87 12 c-49 7 -98 14 -110 16 -12 2 -74 7 -137
11 l-116 7 0 -45z"/>
<path d="M530 1791 c-80 -27 -175 -64 -212 -81 l-68 -32 0 -49 c0 -27 1 -49 3
-49 2 0 53 22 115 50 62 27 164 66 227 86 l115 36 0 44 c0 35 -3 44 -17 44
-10 0 -83 -22 -163 -49z"/>
<path d="M2280 1796 l0 -44 88 -27 c94 -29 261 -94 323 -126 l39 -19 0 52 -1
53 -62 26 c-34 15 -86 37 -115 49 -64 26 -239 80 -258 80 -10 0 -14 -13 -14
-44z"/>
<path d="M1255 1673 c-54 -4 -186 -22 -262 -35 l-63 -10 0 -50 c0 -50 0 -50
28 -43 59 15 273 43 362 47 l55 3 3 48 3 47 -43 -2 c-24 -1 -61 -3 -83 -5z"/>
<path d="M1612 1633 l3 -48 55 -3 c86 -4 333 -36 373 -48 15 -5 17 2 17 44 l0
50 -72 12 c-40 6 -86 14 -102 16 -43 7 -217 23 -249 24 -27 0 -28 -1 -25 -47z"/>
<path d="M620 1540 c-137 -49 -184 -70 -275 -118 l-90 -48 -3 -53 c-2 -29 1
-51 5 -50 4 2 46 25 93 51 47 26 132 65 190 88 179 70 170 64 170 109 0 22 -3
42 -7 44 -5 3 -42 -7 -83 -23z"/>
<path d="M2280 1522 l0 -48 93 -33 c108 -39 219 -90 300 -137 l58 -34 -3 56
-3 57 -85 43 c-98 50 -331 144 -357 144 -1 0 -3 -22 -3 -48z"/>
</g>
</svg>
