<?xml version="1.0" standalone="no"?>
<!DOCTYPE svg PUBLIC "-//W3C//DTD SVG 20010904//EN"
 "http://www.w3.org/TR/2001/REC-SVG-20010904/DTD/svg10.dtd">
<svg version="1.0" xmlns="http://www.w3.org/2000/svg"
 width="300.000000pt" height="239.000000pt" viewBox="0 0 300.000000 239.000000"
 preserveAspectRatio="xMidYMid meet">
<metadata>
Created by potrace 1.10, written by Peter Selinger 2001-2011
</metadata>
<g transform="translate(0.000000,239.000000) scale(0.100000,-0.100000)"
fill="#000000" stroke="none">
<path d="M1394 2349 c-52 -25 -65 -39 -103 -113 -60 -114 -37 -214 67 -284 79
-54 109 -62 252 -64 121 -3 126 -2 173 26 57 34 89 74 111 140 21 65 20 75 -8
140 -18 40 -37 64 -78 94 -102 75 -124 82 -255 82 -99 0 -125 -3 -159 -21z"/>
<path d="M985 1824 c-121 -18 -224 -39 -246 -50 -38 -19 -79 -71 -79 -100 0
-33 17 -38 210 -63 148 -18 172 -24 232 -56 132 -69 215 -82 398 -65 258 25
324 30 520 40 113 6 213 13 223 16 11 3 30 31 44 62 23 53 24 56 6 72 -30 29
-210 92 -291 102 -81 10 -144 7 -255 -12 -55 -9 -95 -9 -220 5 -83 9 -183 23
-222 31 -71 15 -266 26 -320 18z"/>
<path d="M1980 1414 c-36 -3 -258 -16 -495 -30 -287 -18 -588 -28 -905 -33
-426 -6 -478 -9 -508 -24 -44 -24 -47 -37 -23 -86 16 -30 35 -48 71 -66 90
-46 155 -54 515 -65 187 -6 355 -15 375 -20 194 -51 185 -50 585 -50 444 0
605 10 950 59 39 5 115 15 170 21 131 15 196 34 224 64 20 21 22 31 16 74 -8
62 -36 90 -107 109 -91 24 -701 57 -868 47z"/>
<path d="M562 989 c-47 -14 -72 -75 -72 -179 0 -76 1 -81 33 -112 39 -39 162
-102 232 -119 54 -13 224 -15 513 -4 172 7 185 9 210 30 26 22 27 27 26 122 0
89 -3 102 -27 140 -15 24 -37 45 -50 47 -12 3 -83 7 -157 10 -108 4 -150 10
-212 30 -114 38 -414 58 -496 35z"/>
<path d="M1990 933 c-339 -32 -337 -31 -327 -183 9 -146 35 -182 145 -201 56
-10 74 -8 194 21 73 17 202 40 287 51 166 22 205 35 260 92 31 32 33 38 26 79
-9 55 -39 105 -79 129 -28 17 -51 19 -251 17 -121 0 -236 -3 -255 -5z"/>
<path d="M2390 487 c-125 -10 -225 -29 -286 -57 -57 -25 -85 -82 -92 -187 -4
-66 -2 -76 21 -106 38 -50 81 -66 193 -73 75 -5 114 -3 162 10 83 21 183 76
204 112 20 35 33 145 24 206 -14 91 -54 108 -226 95z"/>
<path d="M306 445 c-30 -32 -41 -91 -33 -180 7 -92 25 -112 138 -156 115 -45
110 -44 398 -69 294 -25 334 -25 672 4 300 26 326 33 355 89 25 46 44 125 44
178 0 69 -16 78 -183 105 -165 27 -219 28 -582 13 -254 -11 -283 -11 -485 10
-118 12 -234 24 -257 27 -37 5 -45 3 -67 -21z"/>
</g>
</svg>
