<?xml version="1.0" standalone="no"?>
<!DOCTYPE svg PUBLIC "-//W3C//DTD SVG 20010904//EN"
 "http://www.w3.org/TR/2001/REC-SVG-20010904/DTD/svg10.dtd">
<svg version="1.0" xmlns="http://www.w3.org/2000/svg"
 width="300.000000pt" height="300.000000pt" viewBox="0 0 300.000000 300.000000"
 preserveAspectRatio="xMidYMid meet">
<metadata>
Created by potrace 1.10, written by Peter Selinger 2001-2011
</metadata>
<g transform="translate(0.000000,300.000000) scale(0.100000,-0.100000)"
fill="#000000" stroke="none">
<path d="M1275 2560 c-3 -6 14 -45 38 -88 40 -71 696 -1211 827 -1437 32 -55
91 -158 133 -230 55 -95 81 -131 96 -133 12 -2 50 5 84 16 34 11 136 44 227
72 91 29 196 63 235 75 38 12 73 29 78 37 7 10 -12 47 -66 133 -87 139 -850
1341 -927 1461 -39 60 -61 84 -84 92 -42 15 -632 17 -641 2z"/>
<path d="M1071 2462 c-65 -111 -175 -304 -196 -345 -11 -22 -33 -54 -50 -72
-35 -40 -314 -196 -667 -375 -106 -54 -158 -85 -158 -96 0 -9 27 -45 60 -80
109 -117 240 -313 240 -360 0 -13 -54 -123 -120 -245 -96 -179 -117 -226 -109
-240 9 -18 25 -19 204 -19 220 0 218 -1 255 83 10 23 48 104 84 180 36 76 66
140 66 141 0 2 33 73 73 157 40 85 118 250 173 368 l99 214 5 -546 5 -546 23
-23 23 -23 542 0 542 0 3 22 c3 23 -27 79 -368 683 -273 483 -400 709 -448
795 -25 44 -57 101 -71 126 -14 25 -53 93 -86 152 -33 59 -65 109 -72 111 -7
3 -29 -22 -52 -62z m-228 -819 c-282 -553 -330 -644 -339 -644 -5 0 -20 40
-34 89 -45 156 -126 305 -219 405 -26 28 -41 51 -35 56 5 5 68 39 139 76 212
111 451 240 560 303 39 23 76 41 83 41 7 1 -63 -146 -155 -326z"/>
</g>
</svg>
