<?xml version="1.0" standalone="no"?>
<!DOCTYPE svg PUBLIC "-//W3C//DTD SVG 20010904//EN"
 "http://www.w3.org/TR/2001/REC-SVG-20010904/DTD/svg10.dtd">
<svg version="1.0" xmlns="http://www.w3.org/2000/svg"
 width="300.000000pt" height="300.000000pt" viewBox="0 0 300.000000 300.000000"
 preserveAspectRatio="xMidYMid meet">
<metadata>
Created by potrace 1.10, written by Peter Selinger 2001-2011
</metadata>
<g transform="translate(0.000000,300.000000) scale(0.100000,-0.100000)"
fill="#000000" stroke="none">
<path d="M998 2984 c-37 -20 -61 -68 -54 -108 6 -31 5 -32 -61 -61 -77 -33
-177 -124 -212 -192 -50 -99 -65 -234 -35 -332 8 -28 47 -118 85 -199 l70
-147 -13 -60 c-16 -75 -16 -266 1 -365 75 -433 247 -883 422 -1104 37 -46 39
-52 39 -122 l0 -74 -96 0 c-96 0 -96 0 -130 -34 -48 -48 -48 -104 0 -152 l34
-34 442 0 442 0 34 34 c46 46 48 101 5 148 -29 33 -31 33 -130 36 l-101 4 0
74 c0 66 3 76 29 106 179 206 380 743 436 1166 19 143 19 186 -1 292 l-15 86
83 174 83 175 0 115 c-1 108 -3 119 -33 184 -43 92 -134 182 -225 221 -66 29
-67 30 -61 61 7 41 -17 89 -56 109 -43 22 -941 22 -982 -1z m111 -406 c6 -29
17 -88 24 -130 l15 -78 -51 -31 c-28 -17 -79 -58 -114 -92 l-62 -60 -41 84
c-31 65 -40 94 -40 136 0 126 92 222 212 223 l47 0 10 -52z m906 33 c124 -56
158 -194 85 -346 -19 -38 -35 -72 -37 -74 -1 -2 -34 26 -72 62 -39 36 -88 76
-111 89 -24 14 -40 30 -40 42 0 10 10 69 21 132 l22 114 46 0 c25 0 64 -9 86
-19z"/>
</g>
</svg>
