<?xml version="1.0" standalone="no"?>
<!DOCTYPE svg PUBLIC "-//W3C//DTD SVG 20010904//EN"
 "http://www.w3.org/TR/2001/REC-SVG-20010904/DTD/svg10.dtd">
<svg version="1.0" xmlns="http://www.w3.org/2000/svg"
 width="300.000000pt" height="300.000000pt" viewBox="0 0 300.000000 300.000000"
 preserveAspectRatio="xMidYMid meet">
<metadata>
Created by potrace 1.10, written by Peter Selinger 2001-2011
</metadata>
<g transform="translate(0.000000,300.000000) scale(0.100000,-0.100000)"
fill="#000000" stroke="none">
<path d="M1283 2938 c-99 -89 -119 -107 -144 -127 -14 -11 -45 -45 -69 -76
l-43 -56 32 -39 c30 -38 31 -42 21 -81 -6 -23 -9 -43 -6 -46 7 -7 95 44 127
74 14 13 51 31 81 39 l56 16 424 -378 c232 -208 441 -395 463 -415 264 -243
417 -373 474 -401 86 -43 168 -49 226 -16 58 34 59 65 3 116 -24 21 -214 194
-423 382 -209 189 -555 501 -768 694 -214 193 -392 352 -397 354 -5 2 -30 -16
-57 -40z"/>
<path d="M2264 2523 c3 -71 6 -162 6 -203 l0 -75 93 -77 c50 -42 122 -102 160
-133 l67 -57 0 336 0 336 -166 0 -166 0 6 -127z"/>
<path d="M1425 2301 c-4 -15 -17 -21 -48 -23 l-42 -3 -10 -69 -10 -69 -60 -27
c-113 -52 -164 -139 -166 -285 -1 -44 -4 -119 -8 -167 l-6 -86 -85 -69 -85
-68 -155 -34 c-85 -18 -158 -37 -163 -40 -6 -6 -77 -317 -77 -338 0 -3 -37 -3
-82 -2 l-83 4 -21 -75 -21 -75 -106 -3 -107 -3 0 -404 c0 -392 1 -406 20 -425
19 -19 33 -20 460 -20 l440 0 0 375 0 376 25 24 24 25 221 0 c240 0 265 -5
288 -55 9 -18 12 -128 12 -385 l0 -360 431 0 c261 0 437 4 449 10 38 20 40 53
40 715 l0 642 -282 249 c-155 137 -392 347 -527 466 -135 120 -249 218 -253
218 -4 0 -9 -9 -13 -19z"/>
</g>
</svg>
