<?xml version="1.0" standalone="no"?>
<!DOCTYPE svg PUBLIC "-//W3C//DTD SVG 20010904//EN"
 "http://www.w3.org/TR/2001/REC-SVG-20010904/DTD/svg10.dtd">
<svg version="1.0" xmlns="http://www.w3.org/2000/svg"
 width="300.000000pt" height="300.000000pt" viewBox="0 0 300.000000 300.000000"
 preserveAspectRatio="xMidYMid meet">
<metadata>
Created by potrace 1.10, written by Peter Selinger 2001-2011
</metadata>
<g transform="translate(0.000000,300.000000) scale(0.100000,-0.100000)"
fill="#000000" stroke="none">
<path d="M1228 2983 c-52 -32 -60 -82 -23 -137 l24 -36 -177 0 c-197 -1 -238
-7 -332 -53 -115 -57 -211 -173 -250 -303 -10 -35 -10 -45 5 -73 32 -64 -10
-61 1025 -61 788 0 946 2 975 14 68 29 75 93 20 203 -50 101 -120 170 -231
225 l-87 43 -203 3 -203 4 21 29 c33 44 28 96 -11 131 l-31 28 -248 0 c-212 0
-251 -3 -274 -17z"/>
<path d="M514 2111 c-49 -30 -54 -58 -38 -232 7 -85 43 -505 79 -934 78 -934
72 -880 100 -913 l23 -27 806 -3 c882 -3 850 -5 874 55 7 15 46 424 87 908 41
484 79 923 84 975 7 74 6 102 -5 128 -27 65 17 62 -1031 62 -914 0 -949 -1
-979 -19z m440 -312 c14 -7 32 -26 39 -43 14 -29 128 -1225 127 -1331 0 -73
-57 -117 -122 -96 -65 21 -63 10 -129 728 -33 362 -57 668 -54 681 15 60 80
88 139 61z m608 -18 l33 -29 0 -686 0 -686 -27 -27 c-41 -41 -100 -39 -139 5
l-29 32 0 671 c0 586 2 674 16 700 28 56 96 65 146 20z m572 18 c14 -7 32 -26
40 -44 14 -29 10 -84 -44 -676 -33 -354 -60 -654 -60 -666 0 -13 -13 -37 -29
-55 -24 -27 -36 -33 -69 -33 -44 0 -78 23 -93 62 -10 27 106 1324 123 1366 19
48 80 69 132 46z"/>
</g>
</svg>
