<?xml version="1.0" standalone="no"?>
<!DOCTYPE svg PUBLIC "-//W3C//DTD SVG 20010904//EN"
 "http://www.w3.org/TR/2001/REC-SVG-20010904/DTD/svg10.dtd">
<svg version="1.0" xmlns="http://www.w3.org/2000/svg"
 width="300.000000pt" height="300.000000pt" viewBox="0 0 300.000000 300.000000"
 preserveAspectRatio="xMidYMid meet">
<metadata>
Created by potrace 1.10, written by Peter Selinger 2001-2011
</metadata>
<g transform="translate(0.000000,300.000000) scale(0.100000,-0.100000)"
fill="#000000" stroke="none">
<path d="M1935 2976 c-128 -42 -259 -116 -365 -206 -51 -43 -61 -47 -125 -54
-38 -4 -100 -18 -137 -31 l-68 -23 0 23 c0 12 14 41 31 64 17 24 29 45 26 47
-8 9 -126 -88 -155 -126 -16 -22 -32 -37 -35 -33 -13 12 -7 48 13 81 25 41 19
40 -31 -5 -45 -41 -89 -119 -89 -159 0 -16 -20 -53 -53 -98 -30 -39 -65 -89
-79 -111 -31 -47 -117 -132 -172 -168 -33 -22 -47 -25 -82 -20 -39 5 -47 2
-95 -36 -57 -45 -87 -51 -139 -25 -31 16 -35 16 -66 -1 -38 -20 -60 -49 -70
-91 l-7 -29 22 19 c11 11 24 16 28 12 4 -3 1 -35 -6 -71 -12 -59 -12 -68 6
-102 11 -21 26 -60 34 -86 7 -27 22 -55 31 -64 17 -15 18 -14 18 19 0 46 12
54 88 63 51 6 62 4 62 -8 0 -15 58 -77 72 -77 5 0 5 17 2 38 -8 50 19 81 96
111 34 13 80 44 120 80 87 79 151 117 268 157 118 41 184 44 232 12 19 -13 35
-28 37 -34 2 -6 -38 -30 -89 -54 -127 -58 -204 -110 -333 -225 -60 -53 -135
-113 -165 -133 -70 -46 -172 -82 -232 -82 -27 0 -48 -4 -48 -10 0 -5 21 -21
47 -36 l46 -28 132 11 c153 13 188 27 306 121 214 170 362 214 529 157 91 -31
104 -31 166 0 120 60 204 170 204 266 0 39 3 50 11 42 17 -17 6 -131 -16 -178
-11 -22 -41 -62 -68 -88 l-49 -48 20 -22 c93 -103 61 -218 -107 -387 -53 -53
-206 -186 -341 -295 -529 -430 -710 -662 -710 -906 0 -79 12 -112 47 -128 55
-25 106 -12 393 104 345 139 493 177 695 176 210 0 387 -65 543 -200 l80 -70
-27 67 c-49 120 -65 191 -65 292 -1 92 0 97 38 165 162 294 195 376 220 557 4
27 11 48 15 48 4 0 18 -19 31 -42 17 -30 25 -65 30 -127 l6 -86 22 47 c57 121
49 448 -19 736 -10 46 -19 88 -19 93 0 21 93 -55 120 -99 l30 -47 0 31 c0 54
-49 204 -105 319 -60 124 -128 231 -223 354 l-65 84 39 -7 c21 -4 58 -18 81
-31 36 -20 41 -21 33 -6 -13 26 -84 87 -143 125 -88 56 -157 88 -295 136
l-134 47 49 59 c67 80 121 127 212 185 84 54 78 61 -25 25 -150 -52 -247 -106
-345 -194 -47 -42 -55 -46 -98 -43 -25 1 -47 4 -49 6 -8 7 24 53 72 103 51 55
102 94 186 144 55 33 46 34 -45 4z m-625 -561 c17 -9 30 -20 30 -25 0 -18 -64
-50 -98 -50 -18 0 -62 -14 -98 -31 -36 -17 -67 -30 -69 -27 -2 2 26 36 63 76
61 65 71 72 105 72 21 0 51 -7 67 -15z m-704 -323 c6 -4 16 -17 22 -29 11 -21
10 -21 -51 -25 -34 -2 -64 -2 -66 -1 -3 2 8 17 24 33 29 30 50 36 71 22z"/>
</g>
</svg>
