<?xml version="1.0" standalone="no"?>
<!DOCTYPE svg PUBLIC "-//W3C//DTD SVG 20010904//EN"
 "http://www.w3.org/TR/2001/REC-SVG-20010904/DTD/svg10.dtd">
<svg version="1.0" xmlns="http://www.w3.org/2000/svg"
 width="300.000000pt" height="300.000000pt" viewBox="0 0 300.000000 300.000000"
 preserveAspectRatio="xMidYMid meet">
<metadata>
Created by potrace 1.10, written by Peter Selinger 2001-2011
</metadata>
<g transform="translate(0.000000,300.000000) scale(0.100000,-0.100000)"
fill="#000000" stroke="none">
<path d="M1637 2943 c-2 -4 -7 -20 -10 -34 -7 -26 -78 -99 -97 -99 -5 0 -23
21 -39 46 -32 53 -44 42 -27 -26 10 -41 17 -48 76 -82 36 -21 69 -37 75 -35 5
2 19 28 32 58 26 63 30 150 9 168 -8 7 -16 8 -19 4z"/>
<path d="M2072 2826 c-21 -19 -51 -40 -66 -46 -41 -15 -143 -12 -203 7 -39 12
-61 14 -81 7 -39 -14 -34 -34 17 -63 24 -14 50 -36 58 -48 14 -21 13 -25 -16
-54 -28 -27 -36 -30 -68 -24 -45 8 -82 27 -194 97 -101 64 -143 83 -164 74
-30 -11 -16 -44 33 -71 26 -15 54 -34 62 -41 8 -7 65 -38 125 -69 140 -72 157
-87 153 -139 -2 -31 -9 -44 -28 -54 -39 -20 -177 -9 -319 28 -106 27 -126 29
-138 17 -37 -36 56 -74 273 -112 80 -13 92 -19 122 -50 26 -28 32 -43 32 -78
0 -67 27 -154 66 -212 29 -45 48 -60 117 -95 45 -23 99 -55 119 -72 l37 -29 7
28 c14 68 15 68 119 3 44 -27 105 -61 135 -75 30 -14 63 -30 72 -35 24 -13 61
-13 92 2 21 9 38 7 96 -13 53 -18 75 -21 87 -13 30 19 25 31 -29 64 -49 30
-51 33 -33 46 10 8 22 14 27 14 4 0 17 19 29 43 12 23 32 55 45 70 26 31 29
44 15 66 -7 10 -25 -3 -77 -55 -47 -48 -95 -83 -152 -113 -77 -40 -85 -42
-113 -31 l-30 13 99 48 c86 42 108 58 179 133 84 88 133 169 133 219 0 40 -28
32 -60 -16 l-24 -38 -16 58 c-28 99 -63 148 -97 136 -20 -7 -16 -30 22 -113
38 -84 44 -130 20 -150 -14 -11 -24 -6 -66 36 -28 27 -65 74 -83 104 -48 82
-146 126 -163 73 -2 -5 17 -22 41 -38 33 -21 54 -45 77 -89 18 -34 48 -80 67
-103 33 -41 34 -44 19 -67 -19 -29 -97 -67 -186 -92 -71 -19 -70 -20 -255 38
-115 35 -158 68 -199 151 -46 95 -49 126 -17 214 16 43 46 128 68 189 22 61
44 120 51 131 19 36 71 73 102 73 63 0 143 69 137 119 -4 38 -31 37 -76 -3z"/>
<path d="M1204 2655 c-9 -23 23 -64 82 -103 27 -19 49 -41 49 -50 0 -11 20
-21 70 -34 39 -9 75 -18 80 -18 6 0 25 23 42 50 l33 50 -53 26 c-28 14 -64 37
-79 51 l-26 25 -7 -31 c-8 -38 -34 -41 -85 -10 -19 12 -50 30 -68 41 -29 18
-33 18 -38 3z"/>
<path d="M1290 2276 c0 -74 -3 -76 -65 -50 -27 11 -41 12 -49 4 -17 -17 5 -43
62 -70 48 -23 54 -30 74 -84 28 -77 103 -158 182 -198 66 -33 159 -52 306 -63
52 -3 104 -9 115 -11 11 -3 -5 11 -35 30 -30 20 -64 36 -76 36 -12 0 -32 8
-45 19 -13 10 -46 21 -74 25 -60 9 -122 35 -169 71 -79 60 -131 196 -109 283
11 41 10 42 -16 48 -34 8 -62 14 -83 20 -16 5 -18 -3 -18 -60z"/>
<path d="M2056 1814 c-3 -9 -6 -33 -6 -55 0 -36 -7 -46 -77 -116 -89 -87 -179
-150 -231 -159 -19 -4 -63 -2 -96 5 -165 32 -176 33 -265 14 -71 -15 -133 -18
-346 -17 -143 0 -312 2 -376 5 -112 4 -116 3 -157 -23 -48 -32 -68 -35 -93
-12 -17 15 -21 15 -56 -3 -67 -35 -99 -104 -72 -155 11 -20 12 -20 30 8 17 26
78 69 86 60 2 -1 -6 -25 -18 -51 -16 -37 -21 -68 -21 -129 0 -72 4 -86 36
-148 47 -91 47 -132 1 -226 -20 -39 -52 -85 -73 -103 l-37 -33 -8 -299 c-7
-247 -7 -301 5 -309 18 -12 145 -5 160 10 9 9 4 23 -22 64 l-33 53 6 120 c10
215 54 306 201 414 50 37 102 74 117 83 52 33 140 122 179 181 22 34 40 56 40
49 0 -29 -67 -145 -112 -196 l-48 -54 28 -5 c361 -65 469 -71 736 -42 202 22
189 18 171 63 -9 20 -29 59 -46 86 -16 27 -28 50 -26 53 3 2 32 -21 65 -52 64
-59 87 -97 101 -167 40 -200 79 -358 123 -500 l51 -168 84 0 c96 0 102 7 48
60 -81 79 -96 146 -98 442 -2 195 0 229 16 272 25 66 58 110 69 94 18 -27 84
76 113 175 19 66 30 75 20 17 -4 -22 -4 -40 -1 -40 19 0 76 166 76 224 0 22 7
27 53 41 80 23 184 35 252 28 61 -6 62 -5 87 28 35 48 40 66 24 97 -23 44 -45
57 -178 100 -181 59 -313 116 -358 154 -21 18 -56 43 -78 56 -35 19 -41 20
-46 6z m314 -229 c33 -39 -31 -63 -66 -24 -16 17 -16 22 -4 29 22 14 56 12 70
-5z m310 -104 c15 -28 13 -33 -10 -21 -11 6 -20 17 -20 25 0 21 17 18 30 -4z"/>
<path d="M639 681 c-80 -53 -95 -66 -101 -92 -1 -9 42 -86 98 -170 56 -85 109
-169 118 -187 9 -17 23 -32 31 -32 8 0 24 -14 37 -30 16 -23 30 -30 55 -30 37
0 39 7 22 75 -6 24 -25 59 -41 77 -93 102 -168 224 -168 271 0 14 24 45 64 83
l65 62 -44 11 c-59 15 -52 17 -136 -38z"/>
<path d="M1523 677 c-82 -11 -75 -1 -98 -136 -10 -60 -26 -111 -44 -145 -65
-116 -121 -232 -121 -248 0 -10 16 -26 40 -38 44 -22 67 -25 104 -10 l25 9
-22 50 -21 51 22 23 c25 26 63 109 139 297 30 74 57 141 60 148 3 6 1 11 -3
11 -5 -1 -42 -6 -81 -12z"/>
</g>
</svg>
