<?xml version="1.0" standalone="no"?>
<!DOCTYPE svg PUBLIC "-//W3C//DTD SVG 20010904//EN"
 "http://www.w3.org/TR/2001/REC-SVG-20010904/DTD/svg10.dtd">
<svg version="1.0" xmlns="http://www.w3.org/2000/svg"
 width="300.000000pt" height="300.000000pt" viewBox="0 0 300.000000 300.000000"
 preserveAspectRatio="xMidYMid meet">
<metadata>
Created by potrace 1.10, written by Peter Selinger 2001-2011
</metadata>
<g transform="translate(0.000000,300.000000) scale(0.100000,-0.100000)"
fill="#000000" stroke="none">
<path d="M49 2207 l-34 -23 -3 -223 -2 -223 27 -61 c34 -79 99 -164 157 -208
25 -19 46 -37 46 -41 0 -13 -65 -20 -153 -16 l-87 3 0 -108 0 -109 138 5 c152
5 182 12 262 60 l55 33 45 -28 c70 -42 183 -68 301 -68 118 0 198 18 286 64
l61 33 39 -24 c21 -13 76 -35 122 -49 75 -23 96 -26 205 -22 99 3 134 9 196
31 41 15 86 35 100 45 25 19 25 19 75 -9 162 -91 421 -93 594 -5 l54 28 46
-25 c78 -43 188 -67 306 -67 l105 0 0 116 c0 107 -1 116 -17 108 -28 -12 -164
-17 -202 -7 l-34 9 54 43 c66 52 122 125 163 211 l31 65 3 208 3 208 -31 29
c-38 35 -80 45 -171 37 -84 -7 -124 -31 -139 -85 -5 -20 -10 -93 -10 -161 0
-106 -3 -128 -20 -156 -43 -69 23 -65 -1114 -65 -1002 0 -1028 0 -1065 20 -68
34 -81 68 -81 213 0 208 -23 237 -183 237 -81 0 -99 -3 -128 -23z"/>
<path d="M428 1150 c-68 -52 -189 -84 -325 -85 l-103 0 0 -102 0 -102 56 -7
c125 -15 263 11 356 68 l46 29 35 -24 c19 -13 68 -34 108 -47 62 -20 95 -24
199 -25 136 0 217 19 308 72 38 23 45 24 60 10 28 -24 150 -68 221 -79 132
-21 305 7 405 66 l44 26 44 -25 c86 -50 172 -69 303 -69 131 0 217 19 303 69
l44 25 44 -26 c92 -54 245 -84 358 -70 l56 7 0 111 0 110 -32 -9 c-47 -12
-164 -8 -228 7 -58 13 -142 48 -174 73 -18 13 -26 11 -80 -18 -94 -51 -166
-68 -286 -68 -138 -1 -269 35 -332 91 -16 14 -20 14 -36 -1 -25 -22 -116 -62
-182 -78 -30 -7 -100 -13 -155 -13 -114 1 -187 18 -282 68 l-62 33 -33 -23
c-78 -55 -240 -90 -368 -78 -85 8 -157 30 -236 73 -52 28 -55 28 -76 11z"/>
</g>
</svg>
