<?xml version="1.0" standalone="no"?>
<!DOCTYPE svg PUBLIC "-//W3C//DTD SVG 20010904//EN"
 "http://www.w3.org/TR/2001/REC-SVG-20010904/DTD/svg10.dtd">
<svg version="1.0" xmlns="http://www.w3.org/2000/svg"
 width="300.000000pt" height="300.000000pt" viewBox="0 0 300.000000 300.000000"
 preserveAspectRatio="xMidYMid meet">
<metadata>
Created by potrace 1.10, written by Peter Selinger 2001-2011
</metadata>
<g transform="translate(0.000000,300.000000) scale(0.100000,-0.100000)"
fill="#000000" stroke="none">
<path d="M1359 2046 c-167 -91 -479 -275 -654 -386 -71 -45 -185 -108 -252
-141 -103 -51 -127 -59 -157 -54 -61 12 -126 -22 -126 -64 0 -36 189 -65 209
-33 6 10 23 8 82 -11 41 -13 107 -33 147 -43 40 -10 70 -23 68 -29 -14 -41 70
-75 127 -51 19 8 38 19 42 25 4 7 15 9 26 6 11 -4 79 -12 152 -18 l132 -12 5
-30 c8 -48 59 -75 141 -75 54 0 69 -3 69 -15 0 -27 45 -45 127 -52 88 -6 124
-1 147 23 46 46 -13 113 -117 134 -34 6 -22 8 63 9 58 1 142 4 187 7 80 7 81
7 85 -17 6 -45 84 -34 157 22 14 11 40 19 63 19 35 0 38 -2 28 -19 -5 -11 -10
-31 -10 -45 0 -14 -5 -26 -10 -26 -18 0 -60 -48 -60 -68 0 -27 66 -52 138 -52
67 0 102 19 102 56 0 20 5 24 29 24 16 0 43 3 60 6 24 5 31 3 31 -9 0 -25 56
-37 167 -37 134 0 163 13 163 71 0 51 -22 83 -77 116 -55 32 -116 28 -171 -11
l-36 -26 -28 27 c-16 15 -25 30 -21 34 5 3 52 16 107 29 91 20 101 21 135 7
57 -24 90 -29 127 -17 39 13 58 41 48 72 -9 31 11 37 72 20 92 -26 138 17 78
73 -37 34 -95 34 -118 1 l-16 -25 -87 45 c-49 24 -225 111 -393 193 -214 105
-357 183 -480 262 -311 198 -298 196 -501 85z"/>
<path d="M28 1384 c-21 -11 -28 -22 -28 -46 l0 -30 53 4 c56 5 108 25 115 46
4 14 -56 42 -90 42 -13 -1 -35 -8 -50 -16z"/>
<path d="M154 1310 c-50 -20 -37 -53 28 -71 34 -9 43 -8 59 7 25 22 24 39 -3
58 -25 18 -52 19 -84 6z"/>
<path d="M492 1280 c-28 -12 -38 -36 -22 -55 28 -34 90 -4 90 43 0 24 -26 28
-68 12z"/>
<path d="M560 1161 c0 -26 24 -43 57 -39 18 2 29 10 31 22 5 24 -14 36 -55 36
-26 0 -33 -4 -33 -19z"/>
<path d="M2805 1158 l-28 -22 23 -18 c32 -26 101 -24 126 3 19 21 18 21 -5 40
-31 25 -82 24 -116 -3z"/>
<path d="M1105 1103 c-29 -7 -55 -33 -49 -48 9 -21 61 -38 100 -32 39 6 74 32
74 53 0 23 -73 39 -125 27z"/>
<path d="M1838 1031 l-33 -30 28 -10 c38 -15 71 -14 112 3 41 17 44 29 13 50
-36 25 -83 20 -120 -13z"/>
</g>
</svg>
