<?xml version="1.0" standalone="no"?>
<!DOCTYPE svg PUBLIC "-//W3C//DTD SVG 20010904//EN"
 "http://www.w3.org/TR/2001/REC-SVG-20010904/DTD/svg10.dtd">
<svg version="1.0" xmlns="http://www.w3.org/2000/svg"
 width="300.000000pt" height="300.000000pt" viewBox="0 0 300.000000 300.000000"
 preserveAspectRatio="xMidYMid meet">
<metadata>
Created by potrace 1.10, written by Peter Selinger 2001-2011
</metadata>
<g transform="translate(0.000000,300.000000) scale(0.100000,-0.100000)"
fill="#000000" stroke="none">
<path d="M1465 2988 c-11 -6 -76 -54 -145 -107 -240 -183 -335 -255 -395 -301
-33 -25 -136 -104 -230 -175 -93 -71 -193 -147 -221 -169 -28 -23 -99 -76
-158 -119 -115 -84 -133 -106 -116 -136 22 -42 45 -36 151 43 56 42 110 76
120 76 18 0 19 -14 19 -345 l0 -345 1000 0 1000 0 0 345 c0 405 -10 383 122
281 106 -81 123 -90 147 -76 22 11 36 44 26 60 -4 6 -84 69 -178 140 -95 71
-257 195 -362 276 -104 80 -228 173 -274 207 -46 34 -111 84 -145 111 -114 91
-324 246 -333 246 -4 0 -17 -6 -28 -12z m107 -1000 c52 -16 121 -77 147 -133
41 -87 20 -207 -47 -279 -43 -45 -117 -76 -187 -76 -129 0 -243 113 -245 243
0 77 21 129 75 183 69 69 160 91 257 62z"/>
<path d="M1442 1892 c-36 -11 -81 -60 -92 -103 -22 -80 23 -154 110 -180 34
-10 44 -9 87 12 92 46 118 146 56 220 -42 50 -100 68 -161 51z"/>
<path d="M490 952 l0 -349 -39 -12 c-22 -6 -53 -27 -70 -46 -58 -66 -50 -151
21 -208 32 -26 48 -31 113 -35 l75 -5 0 -128 c0 -177 -9 -169 203 -169 208 0
197 -10 197 168 l0 132 500 0 500 0 0 -133 c0 -177 -11 -167 198 -167 211 0
202 -7 202 169 l0 128 73 5 c112 7 169 56 170 148 1 41 -5 56 -30 87 -18 23
-47 44 -71 53 l-42 14 0 348 0 348 -1000 0 -1000 0 0 -348z m1103 227 c136
-68 188 -222 117 -345 -50 -89 -127 -134 -224 -134 -90 1 -175 53 -219 135
-29 54 -30 173 -3 228 58 117 215 173 329 116z m935 -691 c17 -17 15 -54 -4
-72 -14 -14 -121 -16 -1034 -16 -913 0 -1020 2 -1034 16 -19 18 -20 38 -6 65
10 19 33 19 1038 19 786 0 1031 -3 1040 -12z"/>
<path d="M1420 1079 c-44 -27 -57 -44 -70 -91 -15 -54 2 -109 45 -147 31 -27
43 -31 95 -31 71 0 109 27 136 96 15 39 16 51 4 82 -34 98 -130 139 -210 91z"/>
</g>
</svg>
