<?xml version="1.0" standalone="no"?>
<!DOCTYPE svg PUBLIC "-//W3C//DTD SVG 20010904//EN"
 "http://www.w3.org/TR/2001/REC-SVG-20010904/DTD/svg10.dtd">
<svg version="1.0" xmlns="http://www.w3.org/2000/svg"
 width="300.000000pt" height="300.000000pt" viewBox="0 0 300.000000 300.000000"
 preserveAspectRatio="xMidYMid meet">
<metadata>
Created by potrace 1.10, written by Peter Selinger 2001-2011
</metadata>
<g transform="translate(0.000000,300.000000) scale(0.100000,-0.100000)"
fill="#000000" stroke="none">
<path d="M1485 2988 c-48 -17 -92 -55 -112 -97 -14 -30 -25 -40 -50 -44 -46
-8 -81 -35 -105 -80 -45 -88 13 -197 114 -213 31 -6 38 -3 53 20 16 24 16 28
1 51 -9 14 -25 25 -35 25 -24 0 -51 31 -51 58 0 29 31 44 80 36 52 -8 70 7 70
58 0 85 102 131 164 73 14 -13 26 -29 26 -34 0 -6 11 -18 25 -27 24 -16 27
-15 63 10 40 27 89 34 123 16 24 -13 49 -61 49 -94 0 -38 -43 -82 -95 -95 -35
-9 -46 -17 -51 -37 -10 -41 23 -68 74 -59 99 16 180 116 170 208 -15 129 -130
212 -251 180 -35 -10 -43 -8 -74 13 -61 41 -128 53 -188 32z"/>
<path d="M2066 2934 c-9 -8 -16 -23 -16 -33 0 -21 30 -51 52 -51 19 0 48 32
48 53 0 21 -27 47 -50 47 -10 0 -26 -7 -34 -16z"/>
<path d="M1566 2634 c-22 -21 -20 -47 5 -70 19 -17 23 -17 47 -3 32 17 39 50
17 73 -21 20 -49 21 -69 0z"/>
<path d="M1266 2434 c-23 -23 -20 -50 10 -73 l25 -20 -12 -182 c-12 -173 -11
-183 6 -195 23 -17 36 -17 59 -1 18 13 22 43 42 310 l6 77 99 0 99 0 1 -67 c0
-38 6 -121 13 -186 14 -134 26 -158 73 -141 26 9 28 13 27 69 0 33 -4 119 -9
190 l-8 131 27 17 c30 20 34 47 8 70 -16 15 -48 17 -235 17 -183 0 -218 -2
-231 -16z"/>
<path d="M1378 1890 c-200 -36 -381 -152 -563 -360 -132 -150 -190 -235 -381
-559 -115 -196 -187 -267 -354 -351 -36 -18 -68 -38 -72 -44 -4 -6 -8 -138 -8
-293 l0 -283 1500 0 1500 0 0 290 0 290 -81 40 c-87 43 -131 73 -198 132 -53
49 -91 103 -186 268 -294 509 -538 759 -830 850 -79 24 -249 35 -327 20z m257
-505 c188 -48 353 -200 468 -430 104 -209 181 -502 202 -767 l7 -88 -816 0
c-705 0 -816 2 -816 14 0 22 37 272 50 336 104 522 332 863 628 934 77 19 205
19 277 1z"/>
<path d="M1379 1286 c-99 -28 -197 -96 -248 -173 l-31 -46 0 -418 c0 -366 2
-420 16 -433 13 -14 62 -16 377 -16 312 0 366 2 385 16 l22 15 0 419 0 418
-36 48 c-65 85 -133 133 -233 164 -72 23 -181 25 -252 6z m226 -100 c63 -19
151 -79 175 -119 18 -28 20 -51 20 -199 l0 -168 -34 0 c-37 0 -66 -21 -66 -47
0 -28 31 -53 67 -53 l33 0 0 -150 0 -150 -300 0 -300 0 0 371 c0 416 -4 393
76 454 91 70 220 93 329 61z"/>
</g>
</svg>
