<?xml version="1.0" standalone="no"?>
<!DOCTYPE svg PUBLIC "-//W3C//DTD SVG 20010904//EN"
 "http://www.w3.org/TR/2001/REC-SVG-20010904/DTD/svg10.dtd">
<svg version="1.0" xmlns="http://www.w3.org/2000/svg"
 width="300.000000pt" height="181.000000pt" viewBox="0 0 300.000000 181.000000"
 preserveAspectRatio="xMidYMid meet">
<metadata>
Created by potrace 1.10, written by Peter Selinger 2001-2011
</metadata>
<g transform="translate(0.000000,181.000000) scale(0.100000,-0.100000)"
fill="#000000" stroke="none">
<path d="M1331 1773 c-11 -16 -25 -32 -30 -36 -5 -5 -19 -18 -30 -28 -12 -11
-19 -24 -15 -30 3 -6 -4 -20 -16 -31 -31 -29 -39 -57 -30 -108 16 -96 48 -131
100 -106 38 19 62 9 58 -21 -3 -24 -14 -30 -153 -74 -82 -27 -156 -49 -162
-49 -18 0 -16 35 1 49 9 7 28 10 48 6 25 -5 41 -1 68 18 33 22 35 26 34 76 -1
38 -8 59 -23 75 -12 12 -21 34 -21 48 0 27 -40 68 -66 68 -7 0 -20 13 -28 29
-9 16 -22 31 -31 35 -30 11 -77 -6 -95 -37 -10 -16 -29 -34 -42 -41 -12 -6
-24 -22 -26 -35 -2 -12 -12 -31 -23 -42 -10 -10 -21 -29 -25 -43 l-6 -24 -42
21 c-24 12 -47 31 -52 41 -14 30 -37 39 -77 32 -26 -5 -39 -14 -48 -35 -7 -15
-25 -35 -41 -44 -16 -9 -28 -25 -28 -36 0 -11 -11 -32 -25 -47 -19 -20 -25
-38 -25 -73 -1 -43 -2 -45 -15 -27 -8 11 -15 30 -15 42 0 21 -45 64 -67 64 -4
0 -16 14 -25 30 -27 48 -104 37 -133 -20 -8 -16 -22 -30 -31 -30 -16 0 -34
-38 -27 -57 3 -7 -1 -13 -9 -13 -36 0 -51 -84 -28 -159 18 -56 45 -75 88 -60
43 15 62 6 62 -30 0 -29 -2 -30 -132 -73 l-133 -43 -3 -207 -2 -206 789 -261
c434 -144 797 -261 806 -261 9 0 186 54 393 121 208 67 431 138 497 159 66 21
203 65 305 97 l185 59 3 210 2 210 -127 41 c-116 36 -128 43 -131 65 -4 35 21
52 72 49 35 -1 50 4 76 25 30 26 31 30 25 73 -4 25 -16 56 -27 68 -11 12 -23
37 -27 55 -5 24 -15 38 -40 50 -18 9 -42 31 -53 49 -18 29 -22 31 -61 25 -41
-6 -77 -35 -77 -61 0 -26 -43 -21 -71 8 -15 15 -34 27 -43 27 -9 0 -23 14 -31
31 -15 28 -19 30 -63 27 -42 -3 -49 -6 -62 -35 -15 -32 -30 -43 -30 -22 0 6
-9 18 -20 27 -11 10 -21 30 -22 46 -2 27 -45 71 -69 71 -5 0 -18 15 -30 34
-19 31 -22 33 -61 27 -40 -7 -67 -28 -68 -53 0 -7 -12 -18 -27 -25 -18 -8 -29
-22 -31 -38 -2 -14 -11 -31 -20 -37 -16 -9 -18 -6 -19 29 -1 25 -11 49 -27 69
-15 17 -26 43 -26 59 0 23 -7 32 -40 47 -22 10 -42 25 -45 35 -10 27 -34 41
-72 40 -36 -1 -73 -31 -73 -59 0 -7 -6 -13 -13 -13 -21 0 -50 -37 -43 -55 4
-11 2 -15 -6 -13 -7 3 -15 15 -16 29 -2 13 -15 36 -28 52 -13 16 -24 41 -24
57 0 23 -7 32 -39 47 -21 10 -45 30 -54 46 -13 22 -23 27 -56 27 -32 0 -44 -6
-60 -27z m234 -343 c-3 -5 1 -26 10 -46 8 -20 13 -39 11 -41 -2 -2 -40 8 -85
22 -70 23 -81 30 -81 49 0 29 33 44 81 38 23 -2 40 1 44 8 6 9 10 8 17 -4 5
-9 6 -20 3 -26z m389 -182 c5 -16 5 -28 0 -28 -4 0 -45 12 -91 27 -72 23 -83
30 -83 50 0 28 31 46 65 37 28 -7 84 12 86 30 1 6 5 -11 9 -39 4 -27 10 -62
14 -77z m-973 82 c6 0 9 -14 7 -32 -3 -31 -6 -32 -115 -69 -150 -50 -173 -55
-173 -35 0 20 31 36 58 29 50 -13 112 28 112 74 0 17 6 23 23 23 12 0 29 5 37
10 8 5 21 8 28 5 8 -3 18 -5 23 -5z m733 -6 c20 -8 21 -35 1 -29 -51 16 -50
16 -35 25 18 12 15 11 34 4z m516 -133 c-1 -9 -6 -26 -13 -37 -9 -17 -17 -20
-34 -13 -27 10 -31 53 -7 67 23 13 54 3 54 -17z m-1642 11 c44 12 64 4 60 -24
-3 -19 -24 -28 -153 -70 -82 -26 -153 -48 -157 -48 -14 0 -8 37 8 51 9 7 35
12 60 10 38 -2 49 3 74 28 17 16 30 36 30 45 0 12 5 13 22 7 13 -4 38 -4 56 1z
m1512 -12 c8 -5 12 -12 8 -15 -8 -8 -58 5 -58 16 0 12 31 11 50 -1z m-541 -69
c38 -9 73 -20 77 -24 4 -4 14 -7 23 -7 22 0 137 -55 146 -70 4 -6 0 -19 -10
-29 -21 -24 -55 -10 -79 32 -15 27 -20 29 -58 23 -50 -8 -64 -18 -72 -51 -4
-16 -14 -25 -26 -25 -22 0 -44 -34 -36 -56 3 -8 -1 -14 -8 -14 -16 0 -46 -59
-46 -91 0 -12 8 -46 18 -75 20 -61 53 -85 92 -64 11 6 26 9 33 7 24 -9 -78
-47 -126 -47 -40 0 -53 5 -77 29 -16 16 -34 49 -41 75 -6 25 -16 49 -21 52 -5
3 -69 5 -144 5 -196 -1 -295 27 -363 104 -27 31 -32 44 -29 78 3 35 9 45 43
69 22 15 72 37 110 47 61 17 109 24 305 45 83 8 224 2 289 -13z m1119 -124 c4
-20 -6 -21 -45 -6 -26 10 -27 12 -8 20 29 11 49 6 53 -14z"/>
</g>
</svg>
