<?xml version="1.0" standalone="no"?>
<!DOCTYPE svg PUBLIC "-//W3C//DTD SVG 20010904//EN"
 "http://www.w3.org/TR/2001/REC-SVG-20010904/DTD/svg10.dtd">
<svg version="1.0" xmlns="http://www.w3.org/2000/svg"
 width="300.000000pt" height="300.000000pt" viewBox="0 0 300.000000 300.000000"
 preserveAspectRatio="xMidYMid meet">
<metadata>
Created by potrace 1.10, written by Peter Selinger 2001-2011
</metadata>
<g transform="translate(0.000000,300.000000) scale(0.100000,-0.100000)"
fill="#000000" stroke="none">
<path d="M1365 2984 c-148 -20 -193 -29 -285 -55 -449 -128 -839 -504 -989
-955 -168 -505 -56 -1059 297 -1459 250 -285 603 -462 984 -494 772 -66 1443
446 1595 1217 26 135 23 414 -6 552 -130 610 -592 1065 -1196 1176 -79 15
-341 26 -400 18z m407 -531 c198 -69 371 -224 437 -389 10 -27 25 -84 32 -126
11 -67 11 -87 -4 -153 -37 -170 -113 -265 -307 -384 -53 -33 -108 -75 -122
-93 -34 -45 -58 -93 -58 -118 0 -11 -9 -29 -20 -40 -19 -19 -33 -20 -228 -20
-164 0 -212 3 -228 14 -16 13 -19 26 -18 103 1 78 5 98 32 154 49 101 160 205
302 279 93 48 117 68 140 115 44 90 15 159 -89 212 -51 27 -74 33 -125 33 -97
0 -151 -23 -227 -99 -36 -36 -80 -84 -97 -105 -49 -62 -66 -57 -231 69 -94 71
-143 116 -147 132 -13 52 149 248 271 328 138 90 272 126 465 122 121 -3 144
-6 222 -34z m-40 -1470 c16 -15 18 -35 18 -225 0 -195 -1 -209 -20 -228 -19
-19 -33 -20 -228 -20 -164 0 -212 3 -228 14 -18 13 -19 28 -19 229 0 167 3
218 14 230 12 15 41 17 229 17 186 0 218 -2 234 -17z"/>
</g>
</svg>
