<?xml version="1.0" standalone="no"?>
<!DOCTYPE svg PUBLIC "-//W3C//DTD SVG 20010904//EN"
 "http://www.w3.org/TR/2001/REC-SVG-20010904/DTD/svg10.dtd">
<svg version="1.0" xmlns="http://www.w3.org/2000/svg"
 width="300.000000pt" height="300.000000pt" viewBox="0 0 300.000000 300.000000"
 preserveAspectRatio="xMidYMid meet">
<metadata>
Created by potrace 1.10, written by Peter Selinger 2001-2011
</metadata>
<g transform="translate(0.000000,300.000000) scale(0.100000,-0.100000)"
fill="#000000" stroke="none">
<path d="M1471 2762 c-73 -73 -111 -179 -111 -312 0 -44 1 -46 62 -84 l62 -38
62 30 c68 34 65 28 78 145 9 76 64 160 118 180 19 6 15 9 -110 71 l-113 56
-48 -48z"/>
<path d="M743 2643 c-12 -58 -9 -263 5 -308 20 -67 19 -66 109 -48 68 14 93
15 147 6 62 -10 141 -42 197 -79 24 -16 27 -15 84 17 51 28 56 34 41 43 -130
77 -373 246 -508 353 l-67 53 -8 -37z"/>
<path d="M2175 2607 c-103 -88 -276 -203 -433 -289 l-74 -41 49 -26 c26 -15
58 -33 69 -41 19 -12 27 -10 72 18 104 64 224 85 327 58 32 -8 61 -13 63 -11
9 9 14 382 6 387 -5 3 -40 -22 -79 -55z"/>
<path d="M485 2160 c-101 -26 -190 -104 -225 -197 -74 -198 64 -413 276 -431
70 -5 88 7 56 41 -38 41 -80 135 -92 206 -20 117 16 257 87 341 13 16 22 34
18 40 -7 11 -76 12 -120 0z"/>
<path d="M865 2161 c-88 -23 -179 -102 -218 -189 -29 -67 -29 -180 1 -247 68
-151 240 -228 393 -176 35 12 73 28 83 36 19 15 19 15 -2 58 -65 130 -67 278
-5 400 28 57 24 67 -46 98 -50 22 -158 33 -206 20z"/>
<path d="M1445 2161 c-66 -19 -110 -45 -156 -93 -151 -158 -103 -410 97 -509
68 -33 187 -34 259 -1 66 30 138 103 166 166 31 69 31 181 2 248 -28 62 -96
134 -156 165 -53 27 -159 39 -212 24z"/>
<path d="M2010 2157 c-26 -7 -63 -23 -83 -36 l-37 -22 29 -57 c60 -120 60
-263 0 -384 l-28 -58 42 -24 c161 -94 358 -34 449 136 19 36 23 58 23 138 0
80 -4 102 -23 138 -32 59 -104 129 -157 153 -57 25 -157 33 -215 16z"/>
<path d="M2432 2164 c-9 -4 -4 -16 16 -42 118 -150 123 -367 12 -525 -46 -67
-42 -73 45 -64 113 11 222 90 266 191 31 69 31 181 2 248 -28 62 -96 134 -156
164 -47 24 -157 41 -185 28z"/>
<path d="M1180 1474 c-45 -32 -122 -60 -188 -69 -51 -7 -54 -9 -80 -58 -23
-45 -27 -64 -27 -137 0 -70 4 -94 24 -135 32 -64 93 -124 156 -155 70 -34 189
-35 260 -2 171 78 238 274 152 442 -21 40 -28 46 -86 63 -34 10 -84 31 -110
48 -27 16 -52 29 -57 29 -5 -1 -25 -12 -44 -26z"/>
<path d="M1784 1489 c-8 -13 -115 -63 -156 -73 l-27 -6 20 -58 c30 -84 30
-198 -1 -284 l-24 -68 30 -25 c63 -56 123 -79 209 -79 66 -1 89 3 135 25 141
67 213 214 176 359 -25 96 -43 116 -122 129 -64 12 -175 59 -189 81 -8 13 -42
13 -51 -1z"/>
<path d="M675 1418 c-73 -16 -103 -18 -159 -11 l-68 9 -24 -31 c-34 -45 -54
-109 -54 -176 0 -209 203 -363 403 -305 31 9 58 20 61 24 2 4 -14 45 -37 91
-41 82 -42 87 -42 185 0 84 4 111 24 159 20 49 22 60 10 68 -8 5 -16 8 -19 7
-3 0 -45 -10 -95 -20z"/>
<path d="M2248 1433 c-15 -4 -15 -8 3 -50 56 -130 39 -299 -41 -420 l-21 -31
48 -19 c73 -28 184 -24 248 9 172 89 234 295 135 451 l-27 44 -66 -10 c-61 -9
-161 2 -249 27 -7 2 -21 2 -30 -1z"/>
<path d="M1485 868 c-38 -38 -110 -73 -195 -94 -83 -21 -86 -23 -115 -69 -24
-39 -30 -61 -33 -121 -4 -61 0 -81 21 -127 66 -145 242 -227 423 -199 259 40
392 278 263 467 -19 27 -32 35 -68 40 -70 11 -146 43 -203 86 -29 21 -57 39
-63 38 -5 0 -19 -9 -30 -21z"/>
<path d="M889 815 c-58 -30 -154 -55 -212 -55 -45 0 -46 -1 -53 -34 -14 -76
27 -185 96 -253 65 -66 120 -88 217 -88 45 0 87 5 92 10 7 7 5 28 -6 64 -23
79 -14 203 19 270 l25 51 -65 30 c-35 16 -65 30 -66 30 0 -1 -22 -12 -47 -25z"/>
<path d="M2029 809 l-57 -29 26 -62 c22 -52 27 -78 26 -148 0 -53 -6 -101 -16
-128 -20 -54 -15 -57 97 -56 92 0 144 21 208 83 60 56 89 123 95 214 l5 77
-46 0 c-68 0 -145 19 -209 51 -32 16 -61 28 -65 27 -4 0 -33 -14 -64 -29z"/>
</g>
</svg>
