<?xml version="1.0" standalone="no"?>
<!DOCTYPE svg PUBLIC "-//W3C//DTD SVG 20010904//EN"
 "http://www.w3.org/TR/2001/REC-SVG-20010904/DTD/svg10.dtd">
<svg version="1.0" xmlns="http://www.w3.org/2000/svg"
 width="300.000000pt" height="300.000000pt" viewBox="0 0 300.000000 300.000000"
 preserveAspectRatio="xMidYMid meet">
<metadata>
Created by potrace 1.10, written by Peter Selinger 2001-2011
</metadata>
<g transform="translate(0.000000,300.000000) scale(0.100000,-0.100000)"
fill="#000000" stroke="none">
<path d="M1590 2630 c-200 -54 -522 -171 -680 -247 -167 -80 -307 -191 -358
-284 -87 -158 19 -344 300 -531 61 -40 417 -248 425 -248 7 0 127 -82 172
-118 48 -39 81 -100 73 -138 -8 -43 -60 -83 -187 -145 -228 -110 -793 -329
-1170 -454 -60 -20 -120 -43 -132 -51 -25 -16 -31 -62 -11 -82 9 -9 270 -12
1113 -12 1262 0 1144 -9 1304 97 165 110 260 189 358 298 136 150 188 263 181
395 -4 98 -37 166 -121 250 -173 176 -465 304 -1042 456 -338 89 -422 122
-456 179 -38 61 -21 121 53 191 128 120 324 219 743 376 42 16 55 27 55 49 0
35 -32 39 -297 38 -214 -1 -269 -4 -323 -19z"/>
</g>
</svg>
