<?xml version="1.0" standalone="no"?>
<!DOCTYPE svg PUBLIC "-//W3C//DTD SVG 20010904//EN"
 "http://www.w3.org/TR/2001/REC-SVG-20010904/DTD/svg10.dtd">
<svg version="1.0" xmlns="http://www.w3.org/2000/svg"
 width="300.000000pt" height="300.000000pt" viewBox="0 0 300.000000 300.000000"
 preserveAspectRatio="xMidYMid meet">
<metadata>
Created by potrace 1.10, written by Peter Selinger 2001-2011
</metadata>
<g transform="translate(0.000000,300.000000) scale(0.100000,-0.100000)"
fill="#000000" stroke="none">
<path d="M30 2719 l0 -161 45 -58 45 -58 0 -1161 0 -1161 1419 0 1419 0 -30
72 c-52 125 -90 158 -184 158 -64 0 -91 18 -114 75 -24 59 -79 117 -133 139
-18 8 -62 18 -99 24 -88 13 -117 35 -175 134 -44 74 -53 83 -103 105 -132 57
-124 50 -130 128 -3 45 -13 84 -27 110 -12 22 -26 69 -32 104 -17 101 -42 126
-157 156 -31 8 -67 21 -80 30 -20 13 -53 84 -70 150 -5 21 -12 25 -45 25 l-39
0 0 80 0 80 -105 0 -105 0 0 -80 0 -80 -100 0 -100 0 0 80 0 81 -102 -3 -103
-3 0 -77 1 -78 -93 0 -93 0 0 458 0 457 45 57 45 58 0 160 0 160 -84 0 -85 0
-3 -52 -3 -53 -67 -3 -68 -3 0 56 0 55 -90 0 -90 0 0 -55 0 -55 -70 0 -70 0 0
55 0 55 -85 0 -85 0 0 -161z m390 -544 l0 -45 -50 0 c-39 0 -50 4 -50 16 0 23
55 74 79 74 18 0 21 -6 21 -45z m95 20 c14 -13 25 -33 25 -45 0 -17 -6 -20
-45 -20 l-45 0 0 45 c0 39 3 45 20 45 12 0 32 -11 45 -25z m-97 -142 l-3 -48
-47 -3 -48 -3 0 50 0 51 51 0 50 0 -3 -47z m130 0 l-3 -48 -47 -3 -48 -3 0 50
0 51 51 0 50 0 -3 -47z m-130 -120 l-3 -48 -47 -3 -48 -3 0 50 0 51 51 0 50 0
-3 -47z m127 -3 l0 -45 -47 -3 -48 -3 0 51 0 51 48 -3 47 -3 0 -45z m-125
-485 l0 -45 -50 0 c-39 0 -50 4 -50 16 0 23 55 74 79 74 18 0 21 -6 21 -45z
m94 24 c15 -12 26 -30 26 -45 0 -22 -4 -24 -45 -24 l-45 0 0 45 c0 37 3 45 19
45 10 0 30 -9 45 -21z m-96 -146 l-3 -48 -47 -3 -48 -3 0 50 0 51 51 0 50 0
-3 -47z m127 -3 l0 -45 -46 -3 -46 -3 -6 43 c-3 23 -3 46 0 51 2 4 26 7 51 5
l47 -3 0 -45z m-127 -117 l-3 -48 -47 -3 -48 -3 0 50 0 51 51 0 50 0 -3 -47z
m127 -3 l0 -45 -47 -3 -48 -3 0 51 0 51 48 -3 47 -3 0 -45z m595 -280 l0 -50
-40 0 -40 0 0 50 0 50 40 0 40 0 0 -50z m120 0 l0 -50 -45 0 -45 0 0 50 0 50
45 0 45 0 0 -50z m-230 -11 c0 -39 0 -39 -40 -39 -37 0 -40 2 -40 28 0 22 7
32 33 44 17 9 35 14 40 11 4 -2 7 -22 7 -44z m340 -14 c0 -22 -4 -25 -40 -25
l-40 0 0 45 0 45 40 -20 c30 -16 40 -26 40 -45z m-460 -15 c0 -5 -5 -10 -11
-10 -5 0 -7 5 -4 10 3 6 8 10 11 10 2 0 4 -4 4 -10z m507 -7 c-4 -3 -10 -3
-14 0 -3 4 0 7 7 7 7 0 10 -3 7 -7z m-509 -93 c-4 -39 -1 -53 12 -65 16 -14
18 -14 25 2 5 10 7 39 6 66 l-3 47 42 0 43 0 -5 -50 c-3 -31 0 -57 7 -67 11
-14 13 -14 29 8 9 14 12 25 6 27 -5 2 -10 21 -10 43 0 39 0 39 39 39 38 0 39
-1 43 -40 2 -22 -1 -41 -7 -43 -5 -2 -1 -14 9 -26 l19 -21 15 21 c11 16 12 23
3 29 -7 4 -11 22 -9 41 3 32 5 34 47 37 l44 3 -6 -55 c-4 -39 -2 -58 8 -66 21
-17 33 14 27 71 l-5 49 43 0 42 0 -3 -47 c-1 -27 1 -56 6 -66 7 -16 9 -16 25
-2 13 12 16 26 12 65 -4 45 -3 50 16 50 37 0 42 -45 42 -366 l0 -304 -310 0
-310 0 0 309 c0 177 4 321 10 335 6 17 17 26 31 26 20 0 21 -4 17 -50z m1039
-46 c10 -27 -11 -49 -53 -52 -43 -4 -65 15 -57 48 4 17 14 20 54 20 37 0 51
-4 56 -16z m68 -114 l0 -35 -62 -3 -63 -3 0 34 c0 18 3 37 7 41 4 4 32 6 63 4
l55 -3 0 -35z m-99 -85 c4 -8 3 -26 0 -40 -6 -23 -11 -25 -59 -25 -57 0 -77
12 -77 45 0 32 7 35 72 35 43 0 60 -4 64 -15z m152 -13 c5 -34 -15 -52 -59
-52 -37 0 -69 20 -69 44 0 25 25 37 75 34 44 -3 50 -6 53 -26z m137 -7 c0 -30
-1 -30 -55 -30 -45 0 -55 3 -58 18 -6 32 17 48 67 45 44 -3 46 -4 46 -33z
m-40 -78 c13 -10 16 -21 11 -40 -6 -25 -10 -27 -60 -27 -52 0 -66 9 -66 40 0
35 78 53 115 27z m153 1 c17 -17 15 -55 -4 -62 -9 -3 -33 -6 -54 -6 -45 0 -63
21 -49 58 7 18 16 22 52 22 24 0 48 -5 55 -12z m-303 -33 c0 -29 -1 -30 -49
-30 -52 0 -75 18 -63 49 5 14 17 16 59 14 52 -3 53 -4 53 -33z m235 -90 l0
-36 -57 3 c-46 2 -58 7 -61 21 -7 38 5 47 63 47 l55 0 0 -35z"/>
</g>
</svg>
