<?xml version="1.0" standalone="no"?>
<!DOCTYPE svg PUBLIC "-//W3C//DTD SVG 20010904//EN"
 "http://www.w3.org/TR/2001/REC-SVG-20010904/DTD/svg10.dtd">
<svg version="1.0" xmlns="http://www.w3.org/2000/svg"
 width="300.000000pt" height="300.000000pt" viewBox="0 0 300.000000 300.000000"
 preserveAspectRatio="xMidYMid meet">
<metadata>
Created by potrace 1.10, written by Peter Selinger 2001-2011
</metadata>
<g transform="translate(0.000000,300.000000) scale(0.100000,-0.100000)"
fill="#000000" stroke="none">
<path d="M728 2566 c-135 -51 -248 -126 -369 -246 -58 -58 -123 -130 -143
-160 l-36 -55 0 -240 c0 -209 -2 -244 -17 -265 -22 -31 -22 -106 0 -149 22
-45 22 -118 0 -144 -23 -24 -23 -90 0 -114 14 -16 17 -39 17 -114 0 -82 -3
-97 -20 -112 -25 -21 -25 -32 0 -57 19 -19 20 -33 20 -215 l0 -195 1320 0
1320 0 0 199 c0 164 3 201 15 211 8 7 15 20 15 30 0 10 -7 23 -15 30 -21 17
-21 196 0 224 16 21 20 72 9 101 -6 13 -81 55 -100 55 -2 0 -4 -66 -4 -146 l0
-147 -42 7 c-24 4 -62 10 -85 13 l-43 6 0 73 c0 64 -3 76 -24 99 -25 26 -25
27 -50 8 -23 -16 -25 -25 -26 -92 l0 -73 -57 6 c-32 4 -75 9 -95 12 l-38 6 0
162 c0 143 -2 165 -17 178 -20 17 -78 48 -90 48 -4 0 -7 -86 -5 -190 l3 -191
-93 6 c-51 4 -99 8 -105 10 -10 3 -13 47 -13 172 0 166 1 169 29 226 16 31 25
57 20 57 -6 0 -37 18 -71 41 -33 22 -67 38 -74 35 -8 -3 -51 0 -96 6 -91 12
-186 -1 -208 -28 -26 -30 -125 -9 -164 35 -22 24 -56 27 -95 7 -51 -27 -57
-12 -112 239 -41 190 -44 196 -117 245 -14 10 -50 80 -102 200 -43 102 -84
193 -90 203 -15 25 -53 21 -152 -17z m205 -617 c14 -18 17 -43 17 -170 0 -81
-3 -150 -7 -152 -5 -3 -45 -8 -90 -12 l-83 -7 0 154 c0 166 2 175 55 203 37
19 84 12 108 -16z m-289 -48 c14 -16 16 -39 14 -167 l-3 -148 -65 -12 c-36 -7
-71 -13 -77 -13 -10 -1 -13 35 -13 150 l0 151 29 29 c35 35 88 40 115 10z
m-254 -90 c5 -11 10 -78 10 -149 l0 -129 -60 -16 c-33 -10 -64 -17 -70 -17
-14 0 -13 230 1 267 17 44 39 63 75 63 23 0 37 -6 44 -19z m847 -265 l28 -24
3 -186 3 -186 -29 0 c-16 0 -63 -3 -105 -6 l-77 -7 0 177 c0 106 4 185 11 197
15 29 69 59 106 59 19 0 43 -9 60 -24z m-312 -67 c18 -18 20 -35 23 -183 l3
-163 -62 -7 c-34 -3 -75 -6 -90 -6 l-29 0 0 161 c0 95 4 168 11 180 14 27 68
50 99 43 14 -3 34 -14 45 -25z m-317 -35 c42 -12 52 -51 52 -202 l0 -140 -57
-7 c-32 -3 -68 -9 -80 -12 l-23 -5 0 159 c0 153 1 160 23 180 19 18 41 30 57
32 3 0 15 -2 28 -5z m-253 -70 c34 -13 45 -58 45 -187 l0 -125 -47 -7 c-27 -3
-58 -9 -70 -12 l-23 -5 0 142 0 142 29 29 c31 30 39 33 66 23z m1216 -353 l29
-29 0 -216 0 -216 -100 0 -100 0 0 220 0 221 26 24 c40 37 106 35 145 -4z
m-352 5 c46 -24 51 -50 51 -266 l0 -200 -105 0 -105 0 0 203 c1 148 4 208 14
226 26 48 91 64 145 37z m900 0 c46 -24 51 -50 51 -267 l0 -200 -102 3 -103 3
0 208 0 209 33 29 c36 32 77 37 121 15z m-1198 -55 l29 -29 0 -191 0 -191 -90
0 -90 0 0 195 c0 195 0 196 25 220 35 36 88 34 126 -4z m1516 5 l28 -24 0
-194 0 -193 -93 -3 -93 -3 3 197 3 196 28 24 c37 32 87 32 124 0z m-1806 -35
l29 -29 0 -176 0 -176 -80 0 -80 0 0 176 c0 183 5 209 43 224 38 15 58 11 88
-19z m2084 -1 c18 -19 20 -36 23 -200 l3 -180 -85 0 -86 0 0 176 0 176 30 30
c26 25 36 29 63 24 18 -4 41 -15 52 -26z m-2335 -48 c18 -22 20 -40 20 -178
l0 -154 -70 0 -70 0 0 156 0 156 29 28 c33 34 61 31 91 -8z"/>
</g>
</svg>
