<?xml version="1.0" standalone="no"?>
<!DOCTYPE svg PUBLIC "-//W3C//DTD SVG 20010904//EN"
 "http://www.w3.org/TR/2001/REC-SVG-20010904/DTD/svg10.dtd">
<svg version="1.0" xmlns="http://www.w3.org/2000/svg"
 width="300.000000pt" height="300.000000pt" viewBox="0 0 300.000000 300.000000"
 preserveAspectRatio="xMidYMid meet">
<metadata>
Created by potrace 1.10, written by Peter Selinger 2001-2011
</metadata>
<g transform="translate(0.000000,300.000000) scale(0.100000,-0.100000)"
fill="#000000" stroke="none">
<path d="M1220 2580 l0 -140 230 0 230 0 0 140 0 140 -230 0 -230 0 0 -140z"/>
<path d="M757 2263 c-51 -47 -107 -101 -126 -119 l-35 -33 120 -115 119 -115
748 -1 c596 0 747 3 741 13 -4 6 -48 58 -97 114 l-89 102 24 29 c12 16 56 66
96 111 39 44 72 86 72 91 0 7 -257 10 -741 10 l-741 0 -91 -87z"/>
<path d="M1220 1690 l0 -90 230 0 230 0 0 90 0 90 -230 0 -230 0 0 -90z"/>
<path d="M672 1483 c8 -10 54 -63 102 -117 l86 -100 -23 -25 c-120 -134 -177
-200 -177 -205 0 -3 336 -6 748 -5 l747 0 123 118 123 118 -123 117 -123 116
-749 0 c-712 0 -748 -1 -734 -17z"/>
<path d="M1220 565 l0 -375 230 0 230 0 0 375 0 375 -230 0 -230 0 0 -375z"/>
</g>
</svg>
