<?xml version="1.0" standalone="no"?>
<!DOCTYPE svg PUBLIC "-//W3C//DTD SVG 20010904//EN"
 "http://www.w3.org/TR/2001/REC-SVG-20010904/DTD/svg10.dtd">
<svg version="1.0" xmlns="http://www.w3.org/2000/svg"
 width="300.000000pt" height="291.000000pt" viewBox="0 0 300.000000 291.000000"
 preserveAspectRatio="xMidYMid meet">
<metadata>
Created by potrace 1.10, written by Peter Selinger 2001-2011
</metadata>
<g transform="translate(0.000000,291.000000) scale(0.100000,-0.100000)"
fill="#000000" stroke="none">
<path d="M1240 2880 c-345 -33 -597 -101 -663 -180 -48 -56 -20 -108 81 -153
411 -184 1526 -182 1908 3 33 16 68 37 76 47 98 108 -109 213 -532 269 -145
19 -715 28 -870 14z m730 -60 c334 -28 539 -90 514 -154 -15 -39 -153 -84
-334 -110 -504 -73 -1287 -19 -1401 95 -24 24 -24 31 4 57 48 46 242 91 472
111 141 12 608 13 745 1z"/>
<path d="M1310 2769 c-292 -20 -428 -74 -286 -113 281 -79 1196 -58 1230 29
26 68 -494 114 -944 84z"/>
<path d="M566 2322 c5 -130 9 -442 9 -692 -1 -377 -4 -479 -19 -595 -40 -319
-111 -557 -213 -719 -15 -22 -19 -37 -12 -33 8 3 50 21 94 40 113 50 233 73
300 58 117 -26 181 -95 231 -248 30 -92 31 -94 46 -71 30 44 123 131 182 170
157 101 353 109 583 23 48 -18 102 -39 120 -46 30 -12 34 -11 85 29 167 128
418 162 693 91 61 -16 238 -80 296 -107 3 -1 -21 50 -53 113 -115 224 -208
488 -257 725 -73 348 -79 765 -20 1299 11 101 18 185 16 187 -2 3 -24 -7 -48
-21 -60 -35 -172 -69 -309 -95 -63 -12 -125 -23 -137 -26 l-23 -4 0 -217 c0
-119 -2 -214 -5 -212 -2 3 -11 81 -20 175 -8 93 -17 187 -20 209 l-6 41 -72
-7 c-40 -4 -163 -11 -274 -15 l-202 -7 -6 -41 c-3 -23 -9 -57 -13 -76 l-6 -35
-7 40 c-4 22 -8 57 -8 77 -1 36 -2 37 -43 42 -24 3 -95 8 -158 11 -63 3 -161
12 -219 20 -57 8 -108 15 -112 15 -3 0 -10 -105 -14 -232 -5 -139 -11 -221
-16 -203 -4 17 -17 125 -30 241 l-23 212 -85 23 c-47 12 -119 39 -160 60 l-73
38 8 -237z"/>
<path d="M2797 2329 c-14 -11 -50 -31 -80 -44 -63 -29 -62 -27 -73 -228 l-5
-112 79 81 c59 61 91 105 126 174 26 50 45 98 42 105 -3 8 -18 21 -34 29 -28
14 -32 14 -55 -5z"/>
<path d="M78 1539 c-60 -31 -63 -48 -28 -132 42 -101 107 -207 185 -305 78
-96 246 -247 256 -229 9 17 37 268 45 407 l6 115 -85 16 c-93 18 -202 64 -275
116 -54 38 -55 38 -104 12z"/>
</g>
</svg>
