<?xml version="1.0" standalone="no"?>
<!DOCTYPE svg PUBLIC "-//W3C//DTD SVG 20010904//EN"
 "http://www.w3.org/TR/2001/REC-SVG-20010904/DTD/svg10.dtd">
<svg version="1.0" xmlns="http://www.w3.org/2000/svg"
 width="300.000000pt" height="300.000000pt" viewBox="0 0 300.000000 300.000000"
 preserveAspectRatio="xMidYMid meet">
<metadata>
Created by potrace 1.10, written by Peter Selinger 2001-2011
</metadata>
<g transform="translate(0.000000,300.000000) scale(0.100000,-0.100000)"
fill="#000000" stroke="none">
<path d="M1437 2746 c-24 -26 -129 -200 -171 -283 -39 -79 -74 -191 -82 -264
-15 -145 57 -299 229 -489 75 -83 123 -170 133 -242 8 -58 -28 -205 -91 -377
-47 -127 -48 -147 -10 -184 25 -25 78 -21 113 8 34 28 157 237 201 341 17 39
38 110 47 158 15 76 16 97 5 150 -26 125 -92 237 -247 416 -63 73 -101 145
-110 211 -8 55 29 211 85 365 40 111 44 126 42 157 -4 56 -102 79 -144 33z"/>
<path d="M2053 2493 c-16 -6 -108 -155 -156 -249 -125 -249 -99 -414 103 -640
39 -43 85 -107 102 -141 43 -88 37 -150 -30 -350 -29 -84 -52 -161 -52 -171 0
-33 29 -62 63 -62 48 0 80 33 152 162 89 159 116 233 122 338 5 74 2 94 -21
153 -31 82 -74 148 -160 247 -80 91 -126 177 -126 236 0 50 38 198 80 312 16
45 30 94 30 107 0 47 -58 79 -107 58z"/>
<path d="M852 2461 c-15 -15 -57 -82 -94 -147 -177 -314 -163 -458 68 -728 88
-104 124 -174 124 -244 0 -48 -39 -193 -84 -311 -36 -93 -36 -94 -18 -125 24
-42 68 -47 110 -12 30 26 120 175 166 276 101 221 65 383 -135 608 -33 37 -74
95 -91 130 -28 57 -30 68 -25 132 4 44 24 125 56 221 28 83 51 160 51 170 0
29 -36 59 -71 59 -21 0 -39 -9 -57 -29z"/>
<path d="M315 1011 c-120 -42 -202 -87 -256 -141 -75 -76 -78 -144 -9 -223
121 -137 515 -246 1042 -288 201 -16 819 -6 988 15 525 67 836 177 904 320 56
119 -49 228 -301 316 -76 27 -96 30 -108 20 -23 -19 -19 -25 35 -64 77 -55 65
-95 -45 -149 -306 -152 -1233 -198 -1815 -91 -245 45 -401 112 -408 176 -3 23
5 33 47 64 55 38 58 43 39 62 -16 16 -19 15 -113 -17z"/>
</g>
</svg>
