<?xml version="1.0" standalone="no"?>
<!DOCTYPE svg PUBLIC "-//W3C//DTD SVG 20010904//EN"
 "http://www.w3.org/TR/2001/REC-SVG-20010904/DTD/svg10.dtd">
<svg version="1.0" xmlns="http://www.w3.org/2000/svg"
 width="300.000000pt" height="300.000000pt" viewBox="0 0 300.000000 300.000000"
 preserveAspectRatio="xMidYMid meet">
<metadata>
Created by potrace 1.10, written by Peter Selinger 2001-2011
</metadata>
<g transform="translate(0.000000,300.000000) scale(0.100000,-0.100000)"
fill="#000000" stroke="none">
<path d="M2088 2980 c-14 -11 -40 -55 -58 -99 -32 -77 -34 -80 -77 -90 -76
-20 -111 -67 -165 -227 -66 -194 -128 -416 -128 -458 0 -43 16 -83 48 -118 19
-20 23 -34 19 -55 -4 -15 -14 -59 -22 -98 -71 -320 -134 -731 -147 -960 l-3
-50 -11 40 c-11 38 -22 114 -58 385 -30 220 -56 395 -70 471 -71 364 -181 528
-358 529 -72 0 -76 -16 -11 -50 27 -14 54 -39 65 -57 48 -88 65 -260 49 -493
-36 -516 -43 -664 -37 -830 7 -216 10 -230 45 -230 32 0 104 -20 195 -54 85
-32 178 -35 254 -7 29 10 57 22 61 27 5 5 14 101 21 214 11 204 35 429 64 611
18 106 71 375 85 429 5 19 12 51 15 70 5 30 13 39 57 59 80 39 87 51 154 286
21 72 56 181 78 244 46 132 47 183 5 245 l-26 38 28 62 c45 102 47 121 12 156
-36 35 -50 37 -84 10z"/>
<path d="M2651 2300 c-43 -45 -75 -70 -90 -70 -107 0 -244 -189 -340 -467 -46
-135 -43 -176 21 -265 14 -19 16 -11 -51 -228 -69 -224 -191 -679 -191 -714 0
-19 100 -46 173 -46 50 0 85 7 142 30 42 16 105 36 140 42 l65 13 46 145 c157
500 253 679 380 716 69 20 74 44 9 44 -177 0 -422 -216 -699 -620 -15 -22 -30
-40 -32 -38 -5 5 78 296 139 488 33 102 35 106 75 125 71 34 96 66 131 164 44
129 96 233 142 288 62 75 74 144 38 222 l-20 45 46 46 c53 53 59 93 22 128
-41 39 -71 29 -146 -48z"/>
<path d="M200 2180 c-20 -20 -26 -65 -12 -86 4 -6 29 -29 57 -49 77 -59 86
-74 68 -109 -25 -49 -13 -124 29 -182 43 -59 86 -150 124 -262 32 -97 74 -146
143 -166 39 -11 46 -18 57 -52 73 -234 174 -593 174 -621 0 -4 -42 35 -93 88
-250 259 -529 429 -705 429 -57 0 -54 -26 5 -49 90 -35 181 -152 312 -402 l70
-134 41 3 c52 4 123 -12 218 -49 55 -22 89 -29 140 -29 63 0 154 21 176 41 6
5 4 31 -4 66 -21 91 -80 321 -102 398 -11 39 -23 84 -28 100 -4 17 -24 80 -44
142 l-37 111 26 37 c50 75 26 202 -80 417 -79 160 -150 228 -241 228 -34 0
-46 7 -84 46 -94 96 -168 126 -210 84z"/>
<path d="M420 326 c-25 -7 -78 -25 -117 -40 -87 -31 -173 -34 -250 -7 l-53 18
0 -127 0 -127 73 -22 c39 -11 81 -21 92 -21 23 0 117 28 220 64 39 14 90 25
115 25 25 0 77 -11 115 -25 213 -76 220 -76 396 -13 130 46 176 48 274 13 39
-14 103 -35 143 -46 l72 -21 73 21 c39 11 104 32 142 46 100 36 140 33 290
-19 72 -25 141 -45 155 -45 27 0 115 25 225 64 39 14 90 25 115 25 25 0 77
-11 115 -25 103 -36 197 -64 220 -64 11 0 53 10 93 21 l72 22 0 127 0 127 -57
-20 c-83 -27 -182 -19 -288 24 -107 43 -197 45 -300 5 -38 -15 -88 -32 -110
-38 -65 -16 -161 -4 -250 32 -66 27 -94 32 -160 33 -69 0 -91 -5 -160 -34
-116 -49 -234 -49 -350 0 -69 29 -91 34 -160 34 -66 -1 -94 -6 -160 -33 -53
-22 -103 -34 -150 -37 -73 -6 -96 -1 -210 42 -86 32 -165 39 -225 21z"/>
</g>
</svg>
