<?xml version="1.0" standalone="no"?>
<!DOCTYPE svg PUBLIC "-//W3C//DTD SVG 20010904//EN"
 "http://www.w3.org/TR/2001/REC-SVG-20010904/DTD/svg10.dtd">
<svg version="1.0" xmlns="http://www.w3.org/2000/svg"
 width="300.000000pt" height="219.000000pt" viewBox="0 0 300.000000 219.000000"
 preserveAspectRatio="xMidYMid meet">
<metadata>
Created by potrace 1.10, written by Peter Selinger 2001-2011
</metadata>
<g transform="translate(0.000000,219.000000) scale(0.100000,-0.100000)"
fill="#000000" stroke="none">
<path d="M1452 2158 c-22 -18 -174 -167 -338 -331 l-299 -298 64 -60 63 -61
267 266 c195 194 274 266 291 266 16 0 93 -70 279 -252 141 -139 257 -256 259
-260 10 -22 45 -2 91 50 l50 59 -212 208 c-408 401 -454 445 -464 445 -6 0
-29 -15 -51 -32z"/>
<path d="M1236 1600 l-241 -240 158 -157 157 -158 0 51 c0 27 5 55 12 62 8 8
62 12 178 12 116 0 170 -4 178 -12 7 -7 12 -35 12 -62 l0 -51 158 158 157 157
-241 240 c-177 176 -247 240 -264 240 -17 0 -87 -64 -264 -240z"/>
<path d="M642 1408 c-181 -168 -642 -640 -642 -656 0 -15 57 -80 82 -93 10 -5
25 -6 32 -2 8 4 145 136 305 293 165 161 300 285 310 285 10 0 141 -121 302
-279 156 -153 294 -286 307 -294 21 -14 25 -13 60 15 20 17 43 41 51 55 14 25
13 28 -36 84 -97 112 -661 664 -677 664 -10 0 -52 -32 -94 -72z"/>
<path d="M1893 1127 c-194 -194 -353 -360 -353 -369 0 -20 53 -84 82 -99 10
-5 25 -6 33 -2 17 10 151 139 412 396 111 109 198 187 206 185 9 -1 147 -131
307 -288 160 -157 298 -289 306 -293 19 -11 55 12 90 58 24 32 25 37 11 57
-16 24 -510 523 -634 641 -39 37 -79 67 -89 67 -10 0 -172 -154 -371 -353z"/>
<path d="M430 862 l-282 -277 1 -279 c1 -254 2 -280 18 -292 13 -10 61 -13
179 -14 143 0 163 2 177 18 15 16 17 46 17 214 0 108 3 203 6 212 5 14 30 16
178 16 94 0 176 -4 182 -8 7 -4 13 -79 16 -214 4 -145 9 -212 18 -223 10 -12
43 -15 179 -15 117 0 171 4 179 12 9 9 12 87 12 288 l0 275 -283 283 c-155
155 -289 282 -298 282 -9 0 -143 -125 -299 -278z"/>
<path d="M1972 857 l-282 -282 0 -276 c0 -200 3 -278 12 -287 18 -18 342 -17
357 1 6 8 13 93 16 222 3 114 8 212 11 217 9 14 362 10 371 -4 4 -7 9 -105 11
-218 3 -174 6 -207 20 -218 23 -18 320 -16 345 2 15 12 17 39 18 292 l1 278
-284 278 c-155 153 -290 278 -298 278 -8 0 -142 -127 -298 -283z"/>
</g>
</svg>
