<?xml version="1.0" standalone="no"?>
<!DOCTYPE svg PUBLIC "-//W3C//DTD SVG 20010904//EN"
 "http://www.w3.org/TR/2001/REC-SVG-20010904/DTD/svg10.dtd">
<svg version="1.0" xmlns="http://www.w3.org/2000/svg"
 width="300.000000pt" height="300.000000pt" viewBox="0 0 300.000000 300.000000"
 preserveAspectRatio="xMidYMid meet">
<metadata>
Created by potrace 1.10, written by Peter Selinger 2001-2011
</metadata>
<g transform="translate(0.000000,300.000000) scale(0.100000,-0.100000)"
fill="#000000" stroke="none">
<path d="M1415 2866 c-34 -18 -290 -168 -570 -331 -281 -164 -568 -332 -640
-373 -158 -91 -185 -116 -185 -176 0 -52 26 -90 74 -107 31 -11 35 -18 50 -78
9 -36 29 -85 46 -110 27 -42 28 -48 15 -66 -87 -119 -94 -257 -19 -380 31 -52
33 -60 20 -74 -8 -9 -28 -43 -43 -76 -48 -105 -33 -243 37 -332 19 -24 19 -28
5 -47 -108 -150 -91 -334 42 -456 31 -29 76 -57 109 -69 55 -21 61 -21 1157
-19 l1102 3 57 28 c113 56 188 175 188 300 0 78 -12 120 -51 182 -27 43 -30
52 -18 70 53 83 63 110 67 186 5 87 -11 148 -54 211 l-26 38 30 47 c75 118 68
272 -19 394 -9 12 -6 24 14 55 31 47 57 116 57 154 0 23 6 29 39 39 70 20 101
103 63 165 -22 36 -1422 856 -1462 856 -14 0 -52 -15 -85 -34z m-864 -912 c95
-91 -14 -239 -131 -179 -16 9 -36 29 -45 45 -59 114 83 223 176 134z m1641 4
c-9 -43 -9 -136 1 -170 l7 -28 -700 0 -700 0 7 43 c9 53 9 80 0 140 l-8 47
700 0 701 0 -8 -32z m401 5 c51 -46 55 -122 9 -168 -94 -94 -238 17 -176 136
29 57 120 74 167 32z m-2062 -449 c60 -31 75 -127 26 -172 -74 -69 -181 -33
-193 64 -12 92 82 153 167 108z m1662 -11 c-10 -35 -10 -128 -1 -170 l8 -33
-701 0 -700 0 8 48 c9 59 9 86 0 140 l-7 42 700 0 700 0 -7 -27z m385 13 c54
-28 72 -109 37 -162 -44 -67 -155 -62 -191 8 -25 49 -18 96 20 134 38 38 85
45 134 20z m-2071 -447 c69 -26 97 -87 70 -152 -51 -120 -237 -62 -213 67 7
38 47 83 79 89 12 2 25 5 29 6 4 0 19 -4 35 -10z m651 -106 l3 -113 -181 0
-180 0 7 43 c9 53 9 80 0 140 l-8 47 178 -2 178 -3 3 -112z m1035 85 c-10 -41
-10 -134 0 -170 l7 -28 -180 0 -180 0 0 115 0 115 181 0 181 0 -9 -32z m372
18 c84 -36 93 -161 13 -202 -49 -25 -96 -18 -134 20 -66 66 -38 158 56 189 24
8 29 8 65 -7z m-2034 -462 c63 -32 74 -127 21 -176 -57 -54 -144 -41 -176 27
-20 41 -20 68 -1 105 29 55 98 75 156 44z m627 -96 l-3 -113 -178 -3 -178 -2
8 47 c9 60 9 87 0 141 l-7 42 180 0 181 0 -3 -112z m1035 85 c-10 -37 -10
-130 0 -170 l9 -33 -181 0 -181 0 0 115 0 115 180 0 180 0 -7 -27z m385 13
c56 -29 74 -112 36 -163 -12 -16 -39 -34 -60 -42 -36 -12 -44 -12 -77 4 -21
10 -44 30 -52 46 -54 103 51 208 153 155z"/>
</g>
</svg>
