<?xml version="1.0" standalone="no"?>
<!DOCTYPE svg PUBLIC "-//W3C//DTD SVG 20010904//EN"
 "http://www.w3.org/TR/2001/REC-SVG-20010904/DTD/svg10.dtd">
<svg version="1.0" xmlns="http://www.w3.org/2000/svg"
 width="300.000000pt" height="300.000000pt" viewBox="0 0 300.000000 300.000000"
 preserveAspectRatio="xMidYMid meet">
<metadata>
Created by potrace 1.10, written by Peter Selinger 2001-2011
</metadata>
<g transform="translate(0.000000,300.000000) scale(0.100000,-0.100000)"
fill="#000000" stroke="none">
<path d="M1867 2921 c-31 -38 -84 -87 -117 -109 -58 -39 -155 -82 -186 -82
-29 0 -113 -50 -138 -83 -32 -41 -65 -115 -66 -144 0 -46 -19 -30 -44 38 -52
140 -56 235 -15 336 12 29 11 35 -3 49 -25 26 -53 8 -87 -55 -60 -112 -73
-228 -46 -387 18 -99 35 -154 93 -299 97 -242 182 -482 182 -513 0 -32 -117
-582 -125 -591 -2 -2 -17 26 -33 61 -51 113 -138 188 -217 188 -56 0 -73 15
-110 96 -26 56 -39 74 -54 74 -34 0 -40 -28 -25 -104 8 -38 13 -70 11 -72 -5
-5 -106 30 -146 51 -18 9 -44 15 -59 13 -23 -2 -27 -8 -27 -33 0 -25 8 -33 57
-61 102 -58 164 -76 258 -75 47 0 96 -4 110 -9 34 -14 65 -62 94 -146 26 -78
50 -127 77 -163 23 -28 23 -51 5 -128 -8 -32 -28 -125 -46 -208 -17 -82 -41
-190 -52 -238 l-20 -89 -157 -74 c-197 -93 -186 -86 -186 -120 l0 -29 686 -3
c617 -2 688 -1 700 14 9 11 10 21 3 32 -5 10 -80 53 -166 97 -87 44 -159 82
-161 85 -3 3 -10 174 -16 380 -6 206 -12 403 -14 438 l-2 63 66 22 c155 53
239 150 343 398 82 198 118 261 181 324 33 33 75 68 93 77 35 19 42 47 17 68
-37 30 -152 -39 -230 -137 -25 -32 -82 -130 -126 -217 -58 -114 -84 -155 -90
-145 -5 8 -27 60 -49 116 -44 111 -51 182 -25 233 8 16 49 56 90 90 105 86
175 195 211 332 20 74 15 98 -19 98 -30 0 -38 -10 -67 -85 -51 -132 -116 -213
-246 -305 -75 -54 -99 -110 -98 -230 1 -72 7 -110 23 -155 13 -33 36 -104 53
-158 25 -81 28 -100 17 -113 -14 -18 -80 -53 -120 -64 -26 -8 -26 -7 -33 53
-3 33 -6 95 -6 137 0 42 -3 125 -7 185 l-6 108 -91 133 c-50 74 -121 178 -159
232 l-67 99 -3 145 -2 144 30 50 c29 46 36 51 118 80 150 54 229 118 360 291
5 7 6 24 3 38 -5 19 -13 25 -34 25 -22 0 -39 -14 -85 -69z"/>
</g>
</svg>
