<?xml version="1.0" standalone="no"?>
<!DOCTYPE svg PUBLIC "-//W3C//DTD SVG 20010904//EN"
 "http://www.w3.org/TR/2001/REC-SVG-20010904/DTD/svg10.dtd">
<svg version="1.0" xmlns="http://www.w3.org/2000/svg"
 width="300.000000pt" height="300.000000pt" viewBox="0 0 300.000000 300.000000"
 preserveAspectRatio="xMidYMid meet">
<metadata>
Created by potrace 1.10, written by Peter Selinger 2001-2011
</metadata>
<g transform="translate(0.000000,300.000000) scale(0.100000,-0.100000)"
fill="#000000" stroke="none">
<path d="M196 2984 c-35 -11 -66 -32 -106 -72 -92 -93 -112 -201 -60 -319 17
-38 126 -153 543 -571 l522 -522 -522 -523 c-355 -356 -529 -536 -544 -567
-33 -63 -32 -165 0 -238 46 -103 172 -179 278 -169 112 11 110 10 670 570
l523 522 522 -522 c561 -560 559 -559 671 -570 106 -10 222 60 274 165 37 76
39 174 4 242 -16 31 -190 212 -544 568 l-522 522 522 523 c417 417 526 532
543 570 52 118 32 226 -60 319 -46 45 -69 60 -115 73 -68 20 -143 16 -202 -11
-25 -11 -219 -197 -566 -543 l-527 -526 -523 522 c-365 365 -535 528 -567 543
-57 29 -149 35 -214 14z"/>
</g>
</svg>
