<?xml version="1.0" standalone="no"?>
<!DOCTYPE svg PUBLIC "-//W3C//DTD SVG 20010904//EN"
 "http://www.w3.org/TR/2001/REC-SVG-20010904/DTD/svg10.dtd">
<svg version="1.0" xmlns="http://www.w3.org/2000/svg"
 width="300.000000pt" height="300.000000pt" viewBox="0 0 300.000000 300.000000"
 preserveAspectRatio="xMidYMid meet">
<metadata>
Created by potrace 1.10, written by Peter Selinger 2001-2011
</metadata>
<g transform="translate(0.000000,300.000000) scale(0.100000,-0.100000)"
fill="#000000" stroke="none">
<path d="M705 2977 c-81 -45 -75 69 -75 -1394 l0 -1303 -32 0 c-51 0 -193 -37
-247 -64 -101 -52 -76 -120 61 -165 247 -80 681 -59 818 40 65 48 48 95 -50
138 -47 20 -181 51 -225 51 l-25 0 0 1297 c0 1276 0 1297 -20 1338 -23 48 -81
85 -131 85 -19 0 -52 -10 -74 -23z"/>
<path d="M2089 2871 c-34 -11 -53 -21 -209 -112 -152 -88 -202 -104 -298 -96
-58 4 -86 15 -227 86 -188 96 -214 100 -273 47 l-37 -34 -3 -492 c-2 -434 -1
-495 14 -525 14 -30 42 -47 227 -144 223 -115 264 -131 337 -131 67 1 131 27
277 113 157 92 195 107 278 107 50 0 96 -11 223 -55 88 -30 177 -55 197 -55
44 0 88 29 104 67 8 21 11 167 9 531 l-3 502 -26 25 c-41 41 -403 167 -494
171 -38 2 -82 0 -96 -5z"/>
</g>
</svg>
