<?xml version="1.0" standalone="no"?>
<!DOCTYPE svg PUBLIC "-//W3C//DTD SVG 20010904//EN"
 "http://www.w3.org/TR/2001/REC-SVG-20010904/DTD/svg10.dtd">
<svg version="1.0" xmlns="http://www.w3.org/2000/svg"
 width="900.000000pt" height="660.000000pt" viewBox="0 0 900.000000 660.000000"
 preserveAspectRatio="xMidYMid meet">
<metadata>
Created by potrace 1.10, written by Peter Selinger 2001-2011
</metadata>
<g transform="translate(0.000000,660.000000) scale(0.100000,-0.100000)"
fill="#000000" stroke="none">
<path d="M1170 6586 c0 -8 -20 -19 -47 -26 -164 -41 -359 -219 -418 -380 -50
-140 -48 -105 -54 -780 l-6 -635 -275 -5 c-264 -5 -276 -6 -306 -27 -67 -48
-64 -14 -64 -634 0 -623 -4 -591 68 -639 37 -25 40 -25 307 -30 l270 -5 6
-300 c7 -353 17 -405 105 -542 97 -151 239 -254 405 -294 76 -18 132 -19 1157
-19 1015 0 1081 1 1148 19 201 52 351 174 439 356 75 157 75 162 75 1022 0
461 4 754 9 758 10 6 119 -16 201 -40 25 -7 74 -21 110 -30 126 -35 379 -142
498 -212 41 -24 76 -43 78 -43 9 0 167 -107 244 -165 147 -109 311 -272 469
-465 37 -45 63 -98 56 -110 -4 -6 -258 -10 -689 -10 -535 0 -686 -3 -693 -12
-5 -7 -249 -732 -542 -1612 -411 -1237 -529 -1602 -520 -1612 10 -12 462 -14
2868 -12 l2856 3 3 20 c2 15 -767 2354 -848 2580 -6 17 -27 80 -46 140 -20 61
-42 126 -49 145 -8 19 -28 80 -45 135 -18 55 -38 115 -46 133 -8 18 -14 39
-14 47 0 7 -7 21 -16 29 -14 14 -85 16 -631 16 l-616 0 6 114 c4 63 11 148 16
188 5 40 13 137 16 216 6 126 5 143 -10 148 -16 6 -54 -16 -186 -111 -31 -22
-66 -47 -79 -55 -12 -8 -41 -29 -64 -46 -22 -17 -55 -39 -73 -49 l-32 -18 -86
74 c-463 398 -966 631 -1550 719 -100 15 -204 22 -365 25 l-225 4 -5 378 c-6
392 -7 400 -52 488 -51 98 -155 214 -532 591 -400 400 -518 504 -612 540 -24
9 -44 23 -44 30 0 12 -129 14 -785 14 -661 0 -785 -2 -785 -14z m1395 -342
c14 -9 34 -32 46 -50 27 -44 38 -199 39 -548 0 -232 2 -253 21 -292 12 -26 36
-53 57 -66 36 -23 44 -23 407 -29 388 -5 423 -9 463 -52 49 -52 52 -77 52
-386 l0 -290 -29 -20 c-16 -12 -34 -21 -40 -21 -6 0 -11 -4 -11 -10 0 -5 13
-10 29 -10 16 0 34 -6 40 -14 9 -10 11 -218 8 -802 -3 -839 -1 -799 -49 -890
-27 -49 -111 -119 -173 -142 l-57 -22 -1056 0 c-962 0 -1060 1 -1102 17 -25 9
-52 22 -61 30 -8 7 -21 13 -27 13 -24 0 -103 115 -122 180 -19 59 -20 89 -18
330 l3 265 1020 2 c1142 3 1059 -2 1110 75 l25 38 0 546 c0 535 0 547 -21 580
-11 19 -35 44 -52 56 l-32 23 -1025 5 -1025 5 -3 590 c-3 522 -1 597 14 652
32 123 128 219 244 243 19 4 320 8 668 9 565 1 635 -1 657 -15z m-337 -2006
c3 -149 11 -157 76 -83 33 39 54 55 72 55 35 0 30 -15 -26 -74 -48 -51 -49
-53 -35 -80 8 -15 33 -48 55 -73 40 -46 52 -83 26 -83 -30 0 -46 14 -92 76
-26 35 -50 64 -54 64 -13 0 -20 -29 -20 -81 0 -36 -4 -51 -16 -56 -9 -3 -20 0
-25 8 -10 16 -12 408 -3 434 4 9 14 15 23 13 13 -3 16 -22 19 -120z m-1690 90
c19 -19 14 -46 -9 -53 -31 -10 -55 16 -40 44 13 24 31 27 49 9z m-338 -83 c0
-41 4 -76 8 -79 12 -7 43 22 102 97 53 67 82 82 94 50 4 -10 -3 -27 -22 -47
-59 -64 -102 -125 -102 -144 0 -11 29 -57 65 -103 70 -90 80 -119 42 -119 -17
0 -36 17 -70 63 -25 34 -59 77 -75 95 -36 42 -42 32 -42 -74 0 -60 -3 -76 -16
-81 -37 -14 -44 22 -44 213 0 151 3 185 15 198 31 31 45 9 45 -69z m342 -177
c0 -67 -1 -131 -1 -141 -1 -23 -30 -34 -42 -16 -14 22 -11 283 3 297 10 10 15
9 26 -2 11 -11 14 -44 14 -138z m320 123 l33 -29 4 -121 c3 -132 -4 -160 -40
-140 -17 9 -19 22 -19 119 0 98 -2 112 -21 131 -24 24 -62 20 -94 -12 -16 -16
-21 -37 -25 -123 -3 -58 -8 -108 -12 -111 -4 -4 -14 -5 -23 -2 -13 5 -15 30
-15 157 0 142 1 150 19 150 11 0 23 -4 26 -10 9 -15 41 -12 55 5 21 25 76 18
112 -14z m376 16 c9 -10 7 -20 -5 -37 -10 -14 -18 -41 -18 -62 -1 -27 -9 -46
-29 -67 -25 -26 -37 -31 -90 -33 -46 -2 -61 -7 -61 -18 0 -15 31 -25 117 -35
60 -8 88 -32 88 -77 0 -25 -8 -41 -27 -59 -58 -52 -119 -62 -190 -30 -45 21
-59 47 -47 89 4 15 8 77 9 137 2 61 3 117 4 126 0 9 15 31 33 48 31 30 35 31
119 31 59 0 90 -4 97 -13z m282 -7 c13 -11 31 -20 40 -20 10 0 29 9 43 20 30
24 74 26 105 4 41 -28 52 -66 52 -173 0 -112 -4 -131 -30 -131 -26 0 -30 19
-30 131 0 86 -3 102 -20 119 -28 28 -47 25 -86 -14 -34 -34 -34 -34 -34 -130
0 -79 -3 -98 -16 -103 -26 -10 -34 16 -34 108 0 133 -22 173 -83 150 -46 -18
-57 -46 -57 -154 0 -79 -3 -99 -16 -104 -8 -3 -20 -1 -25 4 -8 8 -15 211 -10
291 1 15 25 16 49 1 14 -9 25 -8 48 4 40 22 76 21 104 -3z m510 3 c42 -24 50
-53 50 -172 0 -116 -10 -143 -46 -123 -13 7 -25 6 -41 -5 -34 -23 -102 -11
-130 22 -53 61 -13 138 77 151 75 10 80 13 80 45 0 40 -32 54 -97 43 -66 -11
-68 -11 -68 5 0 21 64 51 108 51 22 0 52 -7 67 -17z m623 -2 c15 -10 35 -28
44 -41 17 -24 23 -93 10 -107 -5 -4 -52 -10 -105 -13 -96 -5 -97 -5 -94 -30 1
-14 14 -36 29 -48 24 -22 32 -23 95 -17 56 6 68 5 68 -8 0 -28 -31 -41 -98
-41 -75 -1 -113 17 -138 65 -20 40 -18 146 4 188 35 65 127 91 185 52z m307 4
c19 -23 4 -45 -29 -45 -51 0 -71 -38 -71 -137 0 -86 -10 -123 -34 -123 -22 0
-26 24 -26 166 0 111 3 136 15 140 8 4 22 1 29 -6 11 -9 21 -8 43 4 36 19 57
20 73 1z m2485 -1246 c61 -17 135 -38 165 -46 30 -8 73 -21 95 -28 22 -7 69
-20 105 -30 36 -9 83 -23 105 -30 22 -7 69 -20 105 -30 36 -9 85 -23 110 -31
57 -17 127 -37 210 -59 36 -10 83 -24 106 -32 22 -8 56 -13 75 -11 40 4 42 10
57 195 6 61 13 116 17 122 7 13 982 16 1001 3 9 -5 394 -1138 394 -1157 0 -2
-25 -32 -55 -67 -30 -34 -55 -67 -55 -73 0 -6 26 -37 58 -70 48 -51 102 -114
122 -145 3 -5 16 -10 30 -11 23 -4 34 -34 186 -489 89 -267 159 -488 155 -493
-9 -9 -4723 -9 -4732 0 -9 9 323 1017 342 1039 6 8 19 14 28 14 11 0 48 49
104 138 48 76 87 143 87 149 0 6 -21 29 -47 51 l-48 40 29 89 c16 48 47 140
68 203 22 63 44 129 48 145 4 17 24 77 45 135 20 58 40 119 45 135 4 17 24 77
45 135 20 58 40 119 44 135 12 41 34 89 46 97 5 4 188 8 405 8 l395 0 110 -31z"/>
<path d="M1057 4152 c-36 -40 -9 -102 45 -102 49 0 78 69 42 104 -21 22 -67
20 -87 -2z"/>
<path d="M1041 3899 c-27 -29 -24 -50 9 -66 42 -21 94 -16 120 12 24 25 24 26
4 45 -10 11 -40 23 -65 26 -40 5 -49 3 -68 -17z"/>
<path d="M1917 4022 c-34 -37 -15 -82 34 -82 46 0 74 33 70 83 -2 25 -81 24
-104 -1z"/>
<path d="M2531 4149 c-13 -12 -21 -30 -19 -42 3 -19 10 -22 55 -25 86 -5 116
23 70 66 -30 28 -76 28 -106 1z"/>
<path d="M6835 2340 c-11 -5 -33 -9 -50 -10 -49 -1 -216 -46 -225 -60 -5 -7
-7 -18 -5 -24 2 -6 25 -78 51 -159 l47 -149 36 5 c20 3 54 9 76 15 22 6 67 16
100 22 110 21 110 21 108 65 0 22 -7 100 -14 173 l-12 132 -46 -1 c-25 0 -55
-4 -66 -9z"/>
<path d="M7367 2303 c-8 -16 -18 -50 -21 -78 -4 -27 -13 -75 -21 -105 -24
-100 -28 -140 -13 -144 7 -2 40 -12 73 -21 33 -9 93 -31 133 -48 43 -17 76
-26 81 -21 5 5 26 41 47 79 76 141 113 218 108 227 -13 21 -155 78 -305 122
-70 20 -66 21 -82 -11z"/>
<path d="M6135 2102 c-6 -5 -37 -24 -70 -42 -33 -18 -79 -46 -103 -61 -24 -16
-46 -29 -50 -29 -13 -1 -52 -38 -52 -50 0 -6 15 -37 33 -68 18 -31 36 -64 40
-72 17 -36 70 -126 84 -142 14 -15 18 -15 61 9 26 15 65 38 87 52 22 14 51 31
64 38 80 44 101 58 101 71 0 12 -81 179 -127 262 -20 35 -49 49 -68 32z"/>
<path d="M5403 1735 c-56 -18 -121 -36 -143 -40 -49 -8 -50 -17 -19 -162 11
-54 23 -109 25 -123 14 -73 12 -70 54 -70 21 0 49 4 62 9 13 5 55 19 93 31
190 59 203 68 175 118 -5 9 -26 58 -46 107 -64 160 -67 165 -83 165 -9 -1 -62
-16 -118 -35z"/>
<path d="M4564 1678 c-11 -13 -53 -151 -81 -261 -9 -33 -11 -62 -7 -67 32 -28
366 -72 387 -51 8 8 13 69 15 176 l4 164 -24 6 c-12 3 -70 12 -128 20 -58 8
-117 17 -131 20 -16 4 -29 2 -35 -7z"/>
</g>
</svg>
