<?xml version="1.0" standalone="no"?>
<!DOCTYPE svg PUBLIC "-//W3C//DTD SVG 20010904//EN"
 "http://www.w3.org/TR/2001/REC-SVG-20010904/DTD/svg10.dtd">
<svg version="1.0" xmlns="http://www.w3.org/2000/svg"
 width="300.000000pt" height="299.000000pt" viewBox="0 0 300.000000 299.000000"
 preserveAspectRatio="xMidYMid meet">
<metadata>
Created by potrace 1.10, written by Peter Selinger 2001-2011
</metadata>
<g transform="translate(0.000000,299.000000) scale(0.100000,-0.100000)"
fill="#000000" stroke="none">
<path d="M1065 2848 l-133 -128 -7 -492 c-7 -470 -7 -492 11 -505 14 -11 77
-13 304 -11 l285 3 0 50 0 50 -250 5 -250 5 0 83 c0 45 2 226 3 402 l2 319
123 3 122 3 3 118 3 117 212 -2 212 -3 5 -155 5 -155 45 0 45 0 3 203 c2 157
0 203 -10 207 -7 2 -145 5 -307 7 l-293 4 -133 -128z"/>
<path d="M1667 2424 c-4 -4 -7 -63 -7 -130 l0 -123 -127 -3 -128 -3 0 -95 0
-95 128 -3 127 -3 0 -130 0 -130 98 3 97 3 3 128 3 127 124 0 125 0 0 95 0 94
-33 6 c-19 4 -40 6 -48 5 -8 -1 -49 -2 -91 -1 l-77 1 -3 128 -3 127 -90 3
c-50 1 -94 0 -98 -4z"/>
<path d="M567 1693 c-12 -21 -547 -1641 -547 -1656 0 -16 90 -17 1480 -17
1177 0 1480 3 1480 13 0 6 -124 383 -275 837 l-274 825 -930 3 c-511 1 -932
-1 -934 -5z m1826 -476 c54 -160 98 -297 97 -303 0 -6 -11 -21 -25 -34 -31
-30 -31 -41 1 -71 14 -13 35 -39 46 -57 11 -18 26 -31 33 -29 8 4 39 -78 97
-251 l85 -257 -1225 -3 c-674 -1 -1227 -1 -1228 1 -9 9 179 547 190 547 7 0
34 34 60 75 l46 76 -26 23 -27 22 92 277 93 277 796 0 797 0 98 -293z"/>
<path d="M1920 1183 c-48 -6 -170 -35 -170 -41 0 -3 12 -44 27 -90 24 -74 29
-83 47 -78 12 4 49 12 83 18 l63 13 -6 85 c-4 47 -9 87 -13 91 -3 3 -17 4 -31
2z"/>
<path d="M2165 1133 c-4 -21 -11 -54 -16 -73 -15 -60 -13 -64 54 -87 34 -12
69 -24 77 -28 12 -4 26 15 55 75 33 68 37 83 25 90 -24 16 -114 48 -153 55
-35 7 -36 6 -42 -32z"/>
<path d="M1473 1020 c-39 -22 -74 -44 -77 -49 -6 -9 75 -160 85 -161 4 0 41
21 82 46 l76 46 -40 79 c-21 44 -43 79 -47 79 -4 0 -39 -18 -79 -40z"/>
<path d="M1140 863 c-41 -14 -76 -27 -78 -28 -8 -7 33 -175 42 -175 12 0 179
50 185 56 5 5 -61 174 -68 173 -3 0 -40 -12 -81 -26z"/>
<path d="M702 773 c-33 -111 -35 -106 28 -120 30 -6 76 -12 101 -12 55 -1 59
6 59 111 l0 66 -37 6 c-21 3 -59 8 -84 12 l-46 6 -21 -69z"/>
</g>
</svg>
