<?xml version="1.0" standalone="no"?>
<!DOCTYPE svg PUBLIC "-//W3C//DTD SVG 20010904//EN"
 "http://www.w3.org/TR/2001/REC-SVG-20010904/DTD/svg10.dtd">
<svg version="1.0" xmlns="http://www.w3.org/2000/svg"
 width="300.000000pt" height="300.000000pt" viewBox="0 0 300.000000 300.000000"
 preserveAspectRatio="xMidYMid meet">
<metadata>
Created by potrace 1.10, written by Peter Selinger 2001-2011
</metadata>
<g transform="translate(0.000000,300.000000) scale(0.100000,-0.100000)"
fill="#000000" stroke="none">
<path d="M1745 2986 c-83 -16 -116 -29 -133 -49 -22 -26 -2 -45 81 -72 199
-66 395 -171 512 -273 35 -31 35 -32 19 -58 -16 -24 -16 -27 3 -52 l21 -27
-56 -60 c-31 -33 -203 -209 -383 -392 l-327 -332 -136 140 c-131 135 -136 141
-121 162 8 12 15 25 15 30 0 5 -25 35 -57 68 l-56 59 66 68 c70 73 83 101 73
156 -9 48 -488 533 -563 570 -158 78 -338 72 -475 -16 -61 -39 -142 -127 -174
-191 -76 -149 -64 -360 28 -496 34 -50 469 -498 502 -518 12 -7 40 -12 63 -13
40 0 49 6 116 70 l73 69 54 -54 c56 -57 79 -66 101 -39 11 13 30 -2 151 -123
76 -76 138 -141 138 -144 0 -4 -118 -127 -262 -275 -145 -148 -313 -320 -374
-382 -100 -103 -113 -113 -132 -103 -35 19 -145 13 -198 -10 -59 -25 -264
-222 -264 -253 0 -21 415 -446 435 -446 6 0 59 49 118 108 122 124 149 172
151 267 0 33 -3 76 -7 95 -9 39 -54 -10 512 564 l225 229 373 -379 373 -379
-7 -35 c-16 -74 -9 -153 20 -211 29 -58 215 -259 240 -259 20 0 437 428 437
448 0 9 -51 66 -112 127 -131 128 -173 150 -280 143 -35 -2 -70 -7 -78 -11
-12 -6 -112 91 -388 372 -205 208 -372 382 -372 386 0 6 457 481 682 709 l79
79 34 -33 c31 -30 37 -32 61 -21 33 14 40 9 99 -73 83 -118 187 -357 219 -503
8 -37 28 -56 53 -51 23 4 61 115 74 221 26 202 -32 409 -160 577 -43 57 -48
67 -35 81 18 20 18 38 -2 60 -15 17 -15 21 14 53 58 66 65 145 19 211 -29 41
-45 53 -90 65 -53 15 -104 3 -147 -37 -38 -33 -38 -33 -68 -16 -29 17 -31 17
-52 -2 -14 -13 -25 -16 -34 -10 -7 6 -44 34 -82 62 -132 100 -271 150 -439
158 -63 3 -126 -1 -170 -9z"/>
</g>
</svg>
