<?xml version="1.0" standalone="no"?>
<!DOCTYPE svg PUBLIC "-//W3C//DTD SVG 20010904//EN"
 "http://www.w3.org/TR/2001/REC-SVG-20010904/DTD/svg10.dtd">
<svg version="1.0" xmlns="http://www.w3.org/2000/svg"
 width="537.000000pt" height="900.000000pt" viewBox="0 0 537.000000 900.000000"
 preserveAspectRatio="xMidYMid meet">
<metadata>
Created by potrace 1.10, written by Peter Selinger 2001-2011
</metadata>
<g transform="translate(0.000000,900.000000) scale(0.100000,-0.100000)"
fill="#000000" stroke="none">
<path d="M805 8930 c-224 -20 -441 -145 -589 -340 -37 -49 -77 -122 -116 -215
-7 -16 -21 -70 -31 -119 -49 -232 5 -475 150 -671 24 -33 725 -740 1558 -1572
832 -831 1513 -1517 1513 -1523 0 -7 -683 -695 -1519 -1529 -835 -834 -1536
-1541 -1558 -1571 -350 -483 -108 -1159 472 -1320 113 -31 315 -31 430 0 102
28 220 87 299 149 106 83 3749 3729 3790 3793 73 114 111 207 130 318 7 41 16
64 24 63 9 -2 12 23 12 97 0 74 -3 99 -12 97 -8 -1 -17 22 -24 63 -21 124 -72
239 -154 350 -59 79 -3688 3702 -3768 3763 -110 82 -191 119 -342 157 -49 12
-181 17 -265 10z"/>
</g>
</svg>
