<?xml version="1.0" standalone="no"?>
<!DOCTYPE svg PUBLIC "-//W3C//DTD SVG 20010904//EN"
 "http://www.w3.org/TR/2001/REC-SVG-20010904/DTD/svg10.dtd">
<svg version="1.0" xmlns="http://www.w3.org/2000/svg"
 width="300.000000pt" height="300.000000pt" viewBox="0 0 300.000000 300.000000"
 preserveAspectRatio="xMidYMid meet">
<metadata>
Created by potrace 1.10, written by Peter Selinger 2001-2011
</metadata>
<g transform="translate(0.000000,300.000000) scale(0.100000,-0.100000)"
fill="#000000" stroke="none">
<path d="M1860 2948 c-1 -13 -11 -219 -24 -458 l-24 -435 155 -335 154 -335
421 -280 c231 -154 425 -282 431 -284 15 -6 1 158 -28 315 -112 602 -459 1287
-837 1650 -78 75 -220 184 -240 184 -4 0 -8 -10 -8 -22z"/>
<path d="M1705 2852 c-22 -26 -170 -200 -330 -387 -326 -381 -662 -774 -990
-1159 -121 -141 -221 -261 -223 -266 -2 -4 214 95 480 222 l483 230 291 291
292 292 20 410 c12 225 20 410 19 412 -2 1 -21 -19 -42 -45z"/>
<path d="M1474 1685 c-254 -254 -262 -264 -317 -366 -30 -57 -200 -374 -376
-703 -177 -330 -321 -601 -321 -603 0 -1 387 -3 861 -3 l861 0 -6 38 c-3 20
-24 195 -46 387 -22 193 -49 429 -60 525 -11 96 -25 219 -31 273 -11 97 -13
104 -150 400 -77 166 -143 305 -147 308 -4 3 -124 -112 -268 -256z"/>
<path d="M523 1088 c-277 -133 -503 -247 -503 -254 0 -6 35 -86 78 -175 43
-90 120 -255 172 -367 52 -111 98 -202 102 -202 3 0 31 46 61 103 57 108 406
760 462 862 107 198 146 275 138 274 -4 0 -234 -109 -510 -241z"/>
<path d="M2154 1169 c25 -239 126 -1082 130 -1086 4 -5 659 602 663 615 2 6
-765 522 -790 531 -7 2 -8 -17 -3 -60z"/>
</g>
</svg>
