<?xml version="1.0" standalone="no"?>
<!DOCTYPE svg PUBLIC "-//W3C//DTD SVG 20010904//EN"
 "http://www.w3.org/TR/2001/REC-SVG-20010904/DTD/svg10.dtd">
<svg version="1.0" xmlns="http://www.w3.org/2000/svg"
 width="300.000000pt" height="300.000000pt" viewBox="0 0 300.000000 300.000000"
 preserveAspectRatio="xMidYMid meet">
<metadata>
Created by potrace 1.10, written by Peter Selinger 2001-2011
</metadata>
<g transform="translate(0.000000,300.000000) scale(0.100000,-0.100000)"
fill="#000000" stroke="none">
<path d="M1476 2988 c-3 -7 -6 -48 -9 -90 -5 -96 -29 -136 -123 -207 -185
-141 -510 -254 -677 -237 -71 7 -90 16 -148 73 -82 79 -125 36 -46 -46 57 -58
66 -77 73 -148 23 -218 -159 -645 -323 -764 -43 -30 -56 -34 -133 -39 -83 -5
-85 -6 -85 -30 0 -24 2 -25 85 -30 102 -6 129 -19 199 -96 146 -159 271 -466
271 -664 0 -90 -10 -114 -77 -182 -56 -57 -63 -81 -27 -95 10 -4 34 12 72 50
69 68 92 77 191 77 232 0 624 -189 723 -348 17 -28 24 -57 28 -122 5 -83 6
-85 30 -85 24 0 25 2 30 85 6 101 19 129 93 196 175 159 591 299 756 254 29
-7 62 -29 97 -62 35 -33 59 -48 69 -44 34 12 27 36 -23 90 -63 66 -77 111 -68
221 19 253 189 607 334 697 28 18 57 24 122 28 83 5 85 6 85 30 0 24 -2 25
-85 30 -97 6 -132 23 -197 93 -145 158 -273 468 -273 664 0 93 10 116 77 185
38 38 54 62 50 72 -14 36 -38 29 -101 -32 -73 -70 -97 -78 -220 -69 -191 14
-473 135 -616 265 -79 71 -93 99 -100 202 -5 79 -7 85 -28 88 -12 2 -24 -3
-26 -10z m-17 -560 c-47 -113 -355 -256 -531 -246 l-69 4 -102 102 -102 102
60 0 c196 0 531 133 704 279 l46 39 3 -126 c2 -80 -2 -137 -9 -154z m276 126
c100 -60 227 -114 337 -144 78 -21 227 -42 240 -34 4 3 8 1 8 -3 0 -5 -42 -51
-94 -102 -94 -93 -95 -94 -151 -99 -130 -11 -321 59 -468 172 -69 53 -77 76
-77 230 l0 138 58 -52 c31 -28 98 -76 147 -106z m-917 -482 c10 -173 -123
-468 -239 -527 -20 -11 -63 -15 -159 -15 l-130 0 65 82 c138 174 255 485 255
676 l0 57 102 -102 102 -102 4 -69z m652 85 l0 -163 -27 -27 c-39 -36 -148
-85 -211 -93 l-52 -7 -120 118 c-66 65 -118 120 -117 122 2 1 41 10 88 18 138
24 311 97 390 165 19 16 37 29 42 30 4 0 7 -73 7 -163z m131 111 c39 -30 154
-89 232 -118 44 -16 189 -50 214 -50 4 0 -44 -52 -107 -116 l-115 -115 -55 3
c-63 4 -175 52 -215 92 -25 25 -25 27 -25 192 0 187 -7 175 71 112z m807 -193
c53 -188 157 -386 261 -498 l45 -49 -145 4 c-140 3 -147 4 -181 30 -86 66
-196 288 -216 436 -14 104 -6 123 99 228 l94 94 12 -87 c6 -49 20 -119 31
-158z m-1282 -307 c-8 -61 -51 -159 -90 -205 l-28 -33 -164 0 c-90 0 -164 2
-164 5 0 3 16 26 37 52 75 99 163 326 163 423 0 20 3 40 7 44 4 4 61 -47 127
-113 l119 -120 -7 -53z m1041 15 c25 -59 80 -150 139 -230 l16 -23 -164 0
-164 0 -31 33 c-38 38 -89 145 -98 205 l-7 43 118 120 118 119 22 -99 c12 -54
35 -130 51 -168z m-697 -45 l0 -163 -115 115 c-76 75 -110 117 -102 122 6 4
27 10 47 13 19 3 64 21 100 40 36 18 66 34 68 34 1 1 2 -72 2 -161z m230 81
c25 -7 47 -14 49 -16 6 -5 -201 -213 -211 -213 -5 0 -8 70 -8 155 l0 155 63
-34 c34 -19 82 -40 107 -47z m-390 -174 l115 -115 -162 0 -162 0 33 68 c19 37
37 81 41 97 10 42 16 65 18 65 1 0 54 -52 117 -115z m504 68 c3 -21 22 -69 41
-107 19 -39 35 -71 35 -73 0 -2 -71 -3 -157 -3 l-158 0 110 110 c60 61 113
110 116 110 4 0 9 -17 13 -37z m-1212 -268 c109 -74 228 -337 228 -503 l0 -65
-97 -99 -98 -99 -13 88 c-34 237 -149 500 -283 647 l-51 56 139 0 c130 0 140
-1 175 -25z m432 -2 c41 -38 89 -147 94 -213 l3 -55 -115 -114 c-105 -105
-115 -112 -120 -90 -2 13 -10 53 -16 89 -19 108 -117 320 -166 360 -8 8 -20
22 -25 32 -9 17 -2 18 153 18 163 0 163 0 192 -27z m376 19 c0 -10 -208 -217
-213 -211 -2 2 -9 24 -16 49 -7 25 -28 73 -47 108 l-34 62 155 0 c85 0 155 -3
155 -8z m480 3 c0 -3 -12 -29 -27 -58 -15 -29 -34 -78 -43 -109 l-16 -58 -114
115 -115 115 158 0 c86 0 157 -2 157 -5z m424 -7 c-5 -7 -23 -33 -41 -57 -71
-93 -142 -275 -158 -407 l-8 -56 -118 118 c-107 107 -119 122 -119 154 0 71
50 193 97 236 25 23 31 24 190 24 129 0 163 -3 157 -12z m357 -33 c-141 -153
-280 -496 -281 -692 0 -35 -3 -63 -8 -63 -4 0 -49 42 -101 94 -79 79 -94 100
-101 137 -26 142 104 466 218 544 35 24 44 25 176 25 l139 0 -42 -45z m-1204
-311 c-2 -3 -34 12 -71 31 -37 19 -85 38 -107 41 -21 4 -39 9 -39 13 0 3 48
54 108 114 l107 107 3 -151 c1 -84 1 -153 -1 -155z m235 65 c-31 -9 -80 -28
-109 -43 -29 -14 -55 -26 -58 -26 -3 0 -5 71 -5 157 l0 158 115 -115 115 -115
-58 -16z m-387 -66 c51 -18 131 -71 145 -98 7 -12 10 -78 8 -178 l-3 -157 -60
45 c-113 85 -246 141 -398 169 l-58 11 120 118 120 119 43 -7 c23 -4 61 -14
83 -22z m629 -102 l118 -118 -56 -8 c-135 -16 -314 -87 -417 -165 l-54 -40 -3
157 c-2 112 1 165 10 181 24 46 166 111 243 112 38 0 46 -6 159 -119z m-849
-203 c153 -44 325 -150 358 -221 13 -27 17 -64 17 -167 l0 -132 -57 52 c-159
142 -434 261 -666 287 l-68 8 94 93 c121 121 153 128 322 80z m1023 12 c15 0
212 -187 212 -202 0 -4 -27 -8 -59 -8 -196 0 -543 -140 -696 -281 l-45 -42 0
139 c0 132 1 141 25 176 55 82 250 180 420 213 39 8 83 12 99 9 16 -2 35 -4
44 -4z"/>
</g>
</svg>
