<?xml version="1.0" standalone="no"?>
<!DOCTYPE svg PUBLIC "-//W3C//DTD SVG 20010904//EN"
 "http://www.w3.org/TR/2001/REC-SVG-20010904/DTD/svg10.dtd">
<svg version="1.0" xmlns="http://www.w3.org/2000/svg"
 width="300.000000pt" height="300.000000pt" viewBox="0 0 300.000000 300.000000"
 preserveAspectRatio="xMidYMid meet">
<metadata>
Created by potrace 1.10, written by Peter Selinger 2001-2011
</metadata>
<g transform="translate(0.000000,300.000000) scale(0.100000,-0.100000)"
fill="#000000" stroke="none">
<path d="M898 2373 l-3 -178 -177 -3 -178 -2 0 -130 0 -130 180 0 180 0 0
-377 0 -378 -93 -18 c-109 -21 -236 -73 -332 -136 -98 -64 -232 -200 -305
-312 -62 -95 -145 -248 -137 -255 2 -2 669 -3 1482 -2 l1479 3 -88 92 c-88 92
-190 176 -276 225 -124 71 -350 118 -567 118 l-123 0 -77 56 c-164 118 -399
201 -620 221 l-73 6 0 379 0 379 98 -1 c53 -1 134 -1 180 -1 l82 1 0 130 0
130 -180 0 -180 0 0 180 0 180 -135 0 -135 0 -2 -177z"/>
</g>
</svg>
