<?xml version="1.0" standalone="no"?>
<!DOCTYPE svg PUBLIC "-//W3C//DTD SVG 20010904//EN"
 "http://www.w3.org/TR/2001/REC-SVG-20010904/DTD/svg10.dtd">
<svg version="1.0" xmlns="http://www.w3.org/2000/svg"
 width="300.000000pt" height="299.000000pt" viewBox="0 0 300.000000 299.000000"
 preserveAspectRatio="xMidYMid meet">
<metadata>
Created by potrace 1.10, written by Peter Selinger 2001-2011
</metadata>
<g transform="translate(0.000000,299.000000) scale(0.100000,-0.100000)"
fill="#000000" stroke="none">
<path d="M1340 2969 c-186 -24 -314 -62 -488 -144 -408 -195 -698 -566 -798
-1025 -15 -69 -19 -127 -19 -305 0 -207 2 -227 28 -329 122 -487 445 -858 902
-1039 77 -31 165 -57 240 -73 58 -13 238 -32 295 -33 76 0 247 22 342 44 404
93 760 369 967 746 162 296 209 651 136 1024 -3 17 -22 77 -42 135 -156 459
-512 804 -973 943 -187 57 -416 79 -590 56z m278 -475 c65 -32 108 -84 128
-153 30 -100 2 -193 -79 -268 -99 -91 -245 -85 -346 16 -53 53 -71 99 -71 179
0 82 25 137 87 192 53 47 85 58 169 59 46 1 72 -5 112 -25z m112 -1364 l0
-640 -230 0 -230 0 0 640 0 640 230 0 230 0 0 -640z"/>
</g>
</svg>
