<?xml version="1.0" standalone="no"?>
<!DOCTYPE svg PUBLIC "-//W3C//DTD SVG 20010904//EN"
 "http://www.w3.org/TR/2001/REC-SVG-20010904/DTD/svg10.dtd">
<svg version="1.0" xmlns="http://www.w3.org/2000/svg"
 width="900.000000pt" height="720.000000pt" viewBox="0 0 900.000000 720.000000"
 preserveAspectRatio="xMidYMid meet">
<metadata>
Created by potrace 1.10, written by Peter Selinger 2001-2011
</metadata>
<g transform="translate(0.000000,720.000000) scale(0.100000,-0.100000)"
fill="#000000" stroke="none">
<path d="M5900 7186 c0 -8 -15 -17 -37 -20 -79 -14 -216 -92 -296 -166 -116
-109 -178 -210 -218 -355 -17 -65 -19 -115 -19 -746 0 -511 -3 -678 -12 -687
-9 -9 -83 -12 -273 -12 -297 0 -339 -7 -394 -64 -42 -43 -50 -83 -51 -238 0
-105 -3 -128 -15 -128 -8 0 -114 49 -237 109 -123 59 -286 139 -363 175 -77
37 -227 110 -333 162 -107 52 -203 96 -215 97 -17 1 -23 -4 -26 -23 -3 -22 64
-318 105 -466 8 -29 12 -58 9 -65 -3 -8 -45 -34 -93 -58 -73 -37 -143 -77
-232 -131 -83 -50 -150 -95 -228 -155 -51 -38 -105 -79 -120 -90 -131 -96
-375 -339 -480 -478 -30 -39 -71 -92 -92 -117 -20 -25 -45 -59 -55 -77 -11
-18 -26 -35 -34 -38 -8 -3 -218 -6 -467 -5 -248 0 -462 -4 -475 -9 -19 -7 -31
-29 -58 -112 -18 -57 -37 -114 -42 -126 -5 -13 -44 -132 -88 -265 -44 -134
-85 -256 -91 -273 -6 -16 -26 -77 -45 -135 -20 -58 -40 -118 -45 -135 -65
-189 -254 -757 -261 -780 -4 -16 -125 -379 -269 -805 -276 -822 -294 -876
-286 -897 8 -20 6248 -19 6265 0 11 14 5 43 -25 115 -8 18 -14 39 -14 47 0 8
-6 29 -14 47 -8 18 -23 62 -35 98 -23 76 -38 119 -80 240 -7 19 -16 49 -21 65
-5 17 -13 44 -19 60 -24 65 -63 182 -71 210 -4 17 -13 44 -19 60 -25 68 -94
272 -101 300 -8 30 -20 66 -46 135 -7 19 -19 58 -28 85 -9 28 -27 84 -42 125
-14 41 -29 89 -34 105 -4 17 -13 44 -19 60 -6 17 -31 91 -56 165 -25 74 -50
149 -56 165 -6 17 -15 44 -19 60 -8 29 -39 119 -87 260 -14 39 -28 84 -33 100
-10 37 -28 88 -48 137 -8 20 -11 45 -8 55 7 16 10 14 29 -12 56 -80 157 -161
269 -213 136 -64 87 -62 1388 -62 1312 0 1254 -3 1395 67 96 47 104 52 164
102 64 54 138 150 176 228 16 32 34 70 42 85 7 14 13 37 13 50 0 12 7 45 15
72 13 42 15 228 15 1366 0 1263 -1 1320 -19 1376 -43 134 -109 224 -326 444
-353 358 -751 745 -820 796 -77 57 -160 104 -184 104 -6 0 -11 7 -11 15 0 13
-101 15 -850 15 -719 0 -850 -2 -850 -14z m1516 -373 c14 -9 38 -35 53 -57
l26 -41 2 -385 c3 -449 6 -472 71 -536 l44 -44 374 0 c314 0 386 -3 440 -16
84 -21 124 -49 151 -104 l23 -44 0 -1210 c0 -1345 4 -1262 -67 -1373 -35 -53
-113 -118 -173 -143 -30 -13 -206 -15 -1210 -18 -1258 -3 -1179 -5 -1279 42
-32 15 -121 95 -121 109 0 6 -6 18 -14 26 -7 9 -21 39 -31 66 -16 43 -19 93
-23 343 -3 220 -1 296 8 307 11 13 160 15 1113 15 1080 0 1101 0 1142 20 23
11 52 35 66 52 l24 33 0 615 0 615 -28 37 c-15 20 -45 44 -65 55 -35 17 -92
18 -1144 21 l-1108 3 -5 22 c-4 13 -4 313 -2 667 3 619 4 647 24 698 37 96
110 172 206 214 l62 26 708 1 c647 1 710 0 733 -16z m-368 -2075 c8 -8 12 -51
12 -125 0 -140 7 -146 81 -68 35 37 59 55 73 53 35 -5 28 -27 -28 -86 -31 -32
-56 -62 -56 -66 0 -4 27 -43 61 -87 61 -80 69 -109 30 -109 -18 0 -79 65 -122
130 -24 37 -39 17 -39 -55 0 -55 -3 -64 -20 -70 -47 -15 -50 2 -50 244 0 226
3 251 35 251 6 0 16 -5 23 -12z m-1840 -40 c2 -19 -2 -28 -18 -33 -37 -12 -64
27 -38 53 21 21 53 10 56 -20z m-380 -70 c4 -120 13 -120 107 5 53 70 84 93
109 84 28 -11 26 -14 -86 -146 -26 -31 -48 -62 -48 -69 0 -7 34 -58 75 -112
73 -97 86 -122 65 -135 -20 -12 -45 6 -82 58 -65 90 -115 147 -130 147 -4 0
-8 -45 -8 -99 0 -103 -5 -117 -40 -106 -19 6 -20 15 -20 229 0 122 3 226 7
230 4 4 16 6 28 4 18 -3 20 -11 23 -90z m376 -44 c3 -9 6 -82 6 -164 0 -154
-7 -178 -44 -164 -14 5 -16 28 -16 168 0 90 3 166 7 169 12 13 41 7 47 -9z
m157 0 c15 -14 20 -14 54 0 78 33 142 12 169 -54 23 -57 23 -242 0 -265 -31
-31 -39 -12 -44 111 -6 126 -17 160 -56 170 -28 7 -80 -19 -96 -49 -7 -13 -12
-62 -13 -124 0 -110 -10 -137 -43 -117 -15 10 -17 32 -20 158 -2 134 5 186 25
186 4 0 14 -7 24 -16z m606 0 c4 -11 -2 -23 -17 -34 -16 -12 -21 -23 -16 -38
13 -39 -4 -91 -38 -115 -28 -20 -44 -23 -143 -27 -19 0 -16 -28 5 -38 9 -5 51
-12 92 -16 63 -5 78 -10 98 -32 50 -56 3 -144 -86 -159 -58 -10 -137 3 -167
27 -30 23 -34 75 -9 114 15 21 15 28 4 50 -11 19 -11 32 -2 57 6 19 9 55 5 88
-11 105 33 139 175 139 76 0 94 -3 99 -16z m135 -1 c17 -15 21 -15 54 0 50 24
87 21 124 -9 l31 -26 39 26 c43 28 104 34 130 13 44 -34 50 -57 50 -195 0
-109 -3 -134 -15 -138 -36 -14 -45 14 -45 134 0 105 -2 118 -22 139 -29 31
-50 29 -92 -8 l-35 -31 -3 -115 c-2 -66 -7 -118 -13 -120 -27 -8 -34 16 -38
125 -3 94 -7 118 -24 140 -28 38 -55 39 -97 2 l-36 -32 0 -113 c0 -66 -4 -116
-10 -120 -6 -3 -19 -3 -30 0 -19 6 -20 15 -20 169 0 89 3 166 7 169 11 11 25
8 45 -10z m722 5 c50 -22 60 -52 64 -188 3 -107 1 -128 -12 -139 -14 -11 -21
-12 -40 -1 -18 9 -29 9 -44 1 -11 -6 -42 -11 -67 -11 -60 0 -105 40 -105 92 0
64 54 105 155 117 58 7 67 23 34 65 -20 25 -27 27 -68 23 -25 -3 -59 -8 -74
-12 -26 -7 -28 -5 -25 15 6 41 123 65 182 38z m694 -8 c56 -34 84 -138 43
-160 -11 -5 -60 -10 -109 -10 -104 0 -120 -9 -96 -56 24 -47 30 -49 122 -49
70 0 87 -3 87 -15 0 -24 -46 -40 -115 -40 -114 0 -163 53 -163 176 0 70 19
111 65 148 42 33 117 36 166 6z m202 5 c7 -8 18 -15 25 -15 7 0 18 7 25 15 7
8 25 15 40 15 36 0 57 -24 40 -45 -7 -8 -23 -15 -37 -15 -14 0 -36 -13 -54
-32 -28 -32 -29 -35 -29 -141 0 -87 -3 -109 -15 -113 -8 -4 -22 -1 -30 6 -12
10 -15 42 -15 160 0 82 3 155 6 164 8 20 28 21 44 1z m-3120 -427 c0 -134 5
-260 9 -282 13 -52 61 -100 123 -120 41 -13 98 -16 318 -16 235 0 269 -2 274
-16 10 -26 7 -522 -3 -529 -10 -6 -51 76 -51 101 0 7 -6 28 -14 46 -17 41 -35
93 -46 133 -19 66 -39 109 -56 122 -16 11 -121 14 -589 12 -418 -1 -570 2
-573 11 -4 10 41 70 262 358 32 42 113 149 179 237 117 156 142 185 159 185 4
0 8 -109 8 -242z m-908 -146 c16 -20 33 -66 52 -148 15 -65 35 -145 44 -177
10 -37 12 -61 6 -67 -6 -6 -206 -10 -525 -11 -416 0 -514 2 -514 13 0 27 257
178 445 262 113 50 198 81 385 139 70 22 80 21 107 -11z m-1749 -832 c-1 -14
-14 -52 -29 -85 -41 -90 -98 -251 -139 -390 -24 -79 -75 -302 -75 -324 0 -41
19 -29 45 26 48 104 126 257 163 318 85 142 249 365 335 458 l26 27 1299 0
c1076 0 1301 -2 1311 -13 10 -13 69 -177 91 -252 4 -16 13 -43 19 -60 24 -66
93 -272 101 -300 5 -16 13 -43 19 -60 29 -81 94 -274 101 -301 4 -18 11 -37
15 -44 4 -7 11 -26 16 -44 4 -17 19 -62 33 -101 14 -38 26 -78 26 -88 0 -10
-27 -47 -60 -81 -33 -35 -60 -69 -60 -77 0 -8 23 -37 51 -64 28 -28 73 -78
101 -111 33 -41 59 -64 78 -67 27 -6 41 -32 70 -132 9 -31 24 -75 46 -135 16
-44 92 -275 104 -315 4 -16 13 -43 19 -60 22 -62 99 -291 104 -310 3 -11 13
-40 22 -64 12 -33 13 -46 4 -57 -10 -12 -398 -14 -2583 -14 -1805 0 -2575 3
-2583 11 -7 7 9 65 54 197 35 103 68 201 72 217 10 37 128 392 140 420 4 11
31 88 58 170 45 137 52 150 72 147 19 -3 60 30 61 50 0 4 20 36 45 72 25 37
45 69 45 72 0 3 16 29 35 58 19 29 35 58 35 64 0 6 -22 27 -50 47 -55 40 -61
61 -37 118 15 35 93 264 107 312 4 17 13 44 19 60 29 78 124 364 132 398 5 21
13 45 18 55 5 9 26 69 46 132 20 63 44 123 53 133 14 16 35 17 221 15 l206 -3
-2 -25z"/>
<path d="M5787 4548 c-29 -10 -41 -38 -35 -84 2 -22 10 -30 36 -38 22 -6 41
-5 57 2 21 10 25 18 25 56 0 35 -5 48 -22 60 -25 18 -23 18 -61 4z"/>
<path d="M5747 4252 c-37 -40 -3 -85 63 -85 61 0 90 19 90 59 0 38 -12 44 -84
44 -39 0 -57 -5 -69 -18z"/>
<path d="M6730 4403 c-52 -19 -67 -75 -26 -94 60 -28 136 20 122 76 -5 21 -12
25 -44 24 -20 0 -44 -3 -52 -6z"/>
<path d="M7410 4549 c-30 -12 -59 -47 -60 -71 0 -16 11 -18 85 -18 82 0 85 1
85 23 0 26 -33 62 -65 70 -11 3 -31 1 -45 -4z"/>
<path d="M4095 2513 c-114 -11 -344 -66 -356 -85 -9 -15 -2 -51 17 -90 8 -15
14 -36 14 -47 0 -11 6 -35 14 -53 7 -18 22 -60 32 -93 25 -86 32 -91 91 -72
26 9 89 23 138 32 154 29 140 16 143 124 2 59 -3 120 -13 162 -8 37 -12 75 -9
83 6 16 -12 48 -25 44 -3 -1 -24 -3 -46 -5z"/>
<path d="M4622 2478 c-6 -6 -12 -24 -12 -38 0 -15 -7 -49 -15 -76 -8 -27 -15
-60 -15 -74 0 -14 -8 -55 -17 -92 -20 -78 -13 -93 46 -104 20 -4 48 -13 63
-20 15 -8 35 -14 44 -14 9 0 46 -13 81 -30 34 -16 67 -30 72 -30 6 0 26 33 46
73 20 39 56 108 80 152 61 111 60 117 -25 160 -38 19 -77 35 -87 35 -10 0 -27
7 -37 15 -11 8 -30 15 -42 15 -12 0 -37 6 -55 14 -54 22 -112 29 -127 14z"/>
<path d="M3245 2224 c-33 -19 -69 -39 -80 -44 -11 -6 -33 -19 -50 -30 -16 -11
-37 -23 -45 -27 -32 -15 -100 -65 -100 -73 0 -5 13 -30 29 -57 66 -112 141
-246 141 -254 0 -16 37 -9 81 16 24 14 51 28 59 32 8 4 33 19 55 33 69 44 79
49 113 64 18 8 35 23 39 32 7 19 -144 321 -167 334 -10 5 -36 -4 -75 -26z"/>
<path d="M2480 1849 c-136 -48 -174 -59 -194 -59 -15 0 -17 -6 -13 -37 12 -80
37 -199 47 -221 5 -13 10 -40 10 -60 0 -63 8 -68 86 -52 70 13 239 66 307 94
33 15 37 19 31 44 -4 15 -12 38 -19 52 -7 14 -20 43 -28 65 -8 22 -30 77 -49
122 -31 78 -35 83 -63 82 -16 0 -68 -14 -115 -30z"/>
<path d="M1540 1744 c-11 -26 -20 -53 -20 -60 0 -12 -24 -99 -60 -216 -11 -36
7 -55 58 -63 20 -3 62 -12 92 -20 30 -7 103 -16 161 -19 91 -6 108 -4 120 10
15 19 26 340 12 361 -5 6 -58 16 -121 22 -62 6 -121 15 -131 21 -11 5 -36 10
-55 10 -32 0 -37 -4 -56 -46z"/>
</g>
</svg>
