<?xml version="1.0" standalone="no"?>
<!DOCTYPE svg PUBLIC "-//W3C//DTD SVG 20010904//EN"
 "http://www.w3.org/TR/2001/REC-SVG-20010904/DTD/svg10.dtd">
<svg version="1.0" xmlns="http://www.w3.org/2000/svg"
 width="300.000000pt" height="300.000000pt" viewBox="0 0 300.000000 300.000000"
 preserveAspectRatio="xMidYMid meet">
<metadata>
Created by potrace 1.10, written by Peter Selinger 2001-2011
</metadata>
<g transform="translate(0.000000,300.000000) scale(0.100000,-0.100000)"
fill="#000000" stroke="none">
<path d="M2737 2926 l-258 -72 -412 -450 c-227 -248 -446 -488 -487 -533 l-76
-83 -56 58 c-52 56 -341 369 -721 784 -93 102 -177 193 -186 202 -13 15 -494
158 -528 158 -5 0 22 -114 60 -252 62 -228 73 -256 103 -288 18 -19 260 -242
538 -495 278 -253 504 -465 503 -471 -1 -7 -118 -139 -260 -294 l-259 -282
-25 24 c-14 12 -45 42 -69 65 -24 24 -48 43 -52 43 -4 0 -38 -31 -75 -68 l-67
-68 60 -59 60 -60 -157 -157 -157 -158 -31 30 -31 30 -69 -70 -69 -70 27 -28
c34 -35 33 -40 -3 -76 -17 -16 -30 -32 -30 -35 0 -4 56 -62 125 -131 l125
-124 33 32 c18 18 37 32 42 32 5 0 22 -12 37 -27 l28 -27 70 69 70 69 -32 33
-32 34 157 157 157 157 65 -65 65 -65 71 71 71 71 -71 74 c-39 41 -70 77 -69
81 2 4 133 127 292 273 l289 266 31 -29 c17 -15 139 -127 271 -247 132 -120
251 -229 265 -242 l25 -23 -73 -73 -72 -73 70 -69 70 -69 58 57 c32 31 62 57
67 57 6 0 79 -69 163 -153 l153 -154 -27 -32 -27 -32 69 -70 69 -69 29 30 30
30 36 -35 36 -35 129 130 129 130 -34 35 -34 35 27 28 c15 15 27 32 27 38 0 5
-29 38 -65 74 l-65 64 -28 -27 c-15 -15 -32 -27 -38 -27 -5 0 -79 70 -164 155
l-155 155 65 65 64 64 -64 66 c-36 36 -69 65 -75 65 -5 0 -42 -32 -82 -72 -44
-44 -76 -68 -81 -63 -14 16 -462 507 -494 541 l-28 30 276 255 c152 140 394
362 538 494 l261 241 73 258 c39 143 71 260 70 261 -2 1 -119 -30 -261 -69z"/>
</g>
</svg>
