<?xml version="1.0" standalone="no"?>
<!DOCTYPE svg PUBLIC "-//W3C//DTD SVG 20010904//EN"
 "http://www.w3.org/TR/2001/REC-SVG-20010904/DTD/svg10.dtd">
<svg version="1.0" xmlns="http://www.w3.org/2000/svg"
 width="175.000000pt" height="172.000000pt" viewBox="0 0 175.000000 172.000000"
 preserveAspectRatio="xMidYMid meet">
<metadata>
Created by potrace 1.10, written by Peter Selinger 2001-2011
</metadata>
<g transform="translate(0.000000,172.000000) scale(0.100000,-0.100000)"
fill="#000000" stroke="none">
<path d="M800 1675 c-7 -9 -15 -38 -18 -65 -5 -59 -22 -67 -22 -11 0 49 -13
58 -41 30 -19 -19 -21 -29 -17 -93 l5 -71 -19 43 c-21 46 -32 52 -48 23 -17
-32 -11 -83 15 -138 13 -29 22 -53 20 -53 -2 0 -17 23 -34 51 -38 61 -56 59
-55 -4 0 -33 9 -60 32 -97 44 -71 40 -74 -14 -12 -32 37 -50 50 -57 43 -17
-17 8 -82 49 -129 20 -24 34 -45 32 -48 -3 -2 -11 2 -18 11 -7 8 -19 15 -26
15 -22 0 -16 -36 12 -69 l26 -31 -26 0 c-30 0 -35 -24 -11 -56 8 -10 15 -22
15 -25 0 -4 -25 -14 -55 -24 -30 -9 -55 -20 -55 -24 0 -4 13 -20 30 -36 34
-32 31 -45 -10 -45 -41 0 -80 -17 -80 -35 0 -9 16 -25 35 -36 19 -12 35 -22
35 -24 0 -1 -19 0 -42 2 -49 5 -83 -13 -73 -38 6 -16 26 -29 80 -51 l30 -12
-30 -4 c-16 -2 -34 -8 -39 -13 -16 -15 24 -49 66 -55 37 -6 44 -24 9 -24 -10
0 -24 -7 -31 -15 -17 -20 6 -54 65 -97 24 -18 44 -36 45 -39 1 -20 -237 -146
-325 -173 -27 -8 -90 -27 -138 -41 -121 -36 -130 -73 -21 -90 38 -5 43 -9 34
-21 -18 -21 -4 -44 27 -44 15 0 58 11 95 24 55 18 68 20 68 8 0 -21 43 -8 114
34 73 43 145 58 254 51 67 -4 90 -10 122 -31 30 -20 57 -27 119 -32 l80 -7
-20 -28 c-25 -36 -14 -37 22 -3 22 21 32 24 63 19 20 -4 45 -18 55 -31 21 -27
31 -30 31 -10 0 8 -13 26 -30 39 -35 30 -37 38 -12 60 23 21 85 22 102 2 7 -8
20 -15 29 -15 12 1 9 7 -12 25 -33 30 -83 32 -167 10 -66 -18 -77 -18 -63 -4
5 5 36 17 69 25 128 34 191 80 274 203 63 93 96 127 180 186 30 21 59 44 63
51 4 8 15 14 24 14 9 0 36 10 60 21 41 20 43 22 28 39 -9 10 -29 24 -45 30
-16 7 -33 24 -38 39 -15 42 -62 92 -107 112 -54 25 -107 23 -190 -6 -38 -14
-72 -25 -74 -25 -5 0 9 131 29 275 20 138 58 261 116 376 34 68 34 79 3 79
-16 0 -39 -21 -89 -80 l-21 -25 17 40 c9 22 18 46 21 53 8 19 -31 14 -60 -8
-14 -11 -35 -44 -47 -73 l-21 -52 5 41 c5 53 -4 70 -31 55 -29 -15 -53 -71
-54 -128 l-2 -48 -6 52 c-7 58 -13 68 -36 59 -24 -9 -36 -55 -36 -136 0 -82
-12 -79 -24 8 -5 35 -11 52 -21 52 -20 0 -36 -47 -32 -92 4 -46 -4 -49 -19 -8
-8 21 -16 28 -27 24 -22 -8 -43 73 -64 239 -16 137 -24 156 -52 122z m290
-1539 c0 -22 -11 -25 -50 -17 l-35 8 35 11 c48 14 50 14 50 -2z"/>
</g>
</svg>
