<?xml version="1.0" standalone="no"?>
<!DOCTYPE svg PUBLIC "-//W3C//DTD SVG 20010904//EN"
 "http://www.w3.org/TR/2001/REC-SVG-20010904/DTD/svg10.dtd">
<svg version="1.0" xmlns="http://www.w3.org/2000/svg"
 width="167.000000pt" height="300.000000pt" viewBox="0 0 167.000000 300.000000"
 preserveAspectRatio="xMidYMid meet">
<metadata>
Created by potrace 1.10, written by Peter Selinger 2001-2011
</metadata>
<g transform="translate(0.000000,300.000000) scale(0.100000,-0.100000)"
fill="#000000" stroke="none">
<path d="M931 2976 c-7 -8 -15 -31 -18 -53 -4 -21 -37 -89 -76 -153 -38 -63
-99 -163 -134 -223 -36 -59 -69 -109 -73 -112 -5 -3 -44 5 -88 16 -107 29
-123 24 -161 -53 -27 -54 -39 -98 -27 -98 3 0 16 4 30 10 27 10 30 4 51 -97 8
-38 21 -32 -190 -74 -88 -17 -175 -37 -192 -44 -29 -12 -33 -18 -33 -53 0 -22
6 -44 13 -49 13 -11 20 -13 157 -49 52 -14 115 -35 140 -47 82 -40 234 -31
335 20 30 15 115 92 115 104 0 10 -127 49 -160 49 -17 0 -30 4 -30 8 0 10 292
22 519 22 l156 -1 -85 -29 c-60 -21 -119 -33 -200 -40 -157 -14 -155 -14 -219
-75 -31 -30 -79 -63 -105 -75 -91 -39 -247 -48 -323 -19 -13 5 -23 7 -23 4 0
-2 9 -49 20 -105 11 -56 20 -123 20 -150 0 -59 2 -59 160 -67 115 -5 228 7
240 27 3 5 36 -42 73 -105 53 -92 65 -121 61 -144 -4 -19 0 -33 11 -45 30 -29
44 -15 65 64 12 44 61 102 145 170 49 41 130 140 173 215 40 69 92 205 92 242
0 24 19 43 42 43 24 0 51 44 46 74 -5 23 -3 24 89 28 51 3 96 8 100 11 3 3 3
13 -1 22 -5 14 -24 16 -138 14 l-133 -2 -7 58 c-22 174 -110 319 -297 490 -63
58 -95 131 -88 205 5 57 -3 80 -29 80 -6 0 -17 -6 -23 -14z m151 -377 c97 -97
120 -126 155 -199 43 -88 82 -226 67 -240 -5 -4 -170 -10 -366 -14 l-358 -7 0
24 c0 31 13 41 73 56 56 13 71 8 64 -25 -5 -28 1 -30 31 -8 45 31 17 144 -51
200 l-36 30 37 59 c21 33 78 126 126 207 l89 147 27 -58 c21 -43 58 -89 142
-172z m213 -661 c-28 -132 -154 -323 -271 -409 -29 -21 -67 -60 -85 -85 -17
-25 -35 -42 -39 -37 -14 15 -142 238 -143 248 0 29 14 187 19 199 6 17 41 24
204 41 82 9 156 24 215 43 50 17 94 31 98 31 5 1 5 -14 2 -31z"/>
<path d="M350 1468 c-6 -23 -31 -104 -57 -179 -45 -134 -45 -136 -28 -163 53
-80 303 -132 450 -92 58 15 126 48 172 82 l31 24 -62 147 c-35 82 -69 165 -75
186 l-13 39 -77 -9 c-96 -10 -167 -10 -258 0 l-72 9 -11 -44z"/>
<path d="M307 1026 c-3 -8 -9 -47 -12 -87 -6 -62 -13 -83 -43 -127 l-37 -54
32 -26 32 -27 -9 -150 c-5 -83 -10 -230 -11 -328 -2 -159 0 -179 16 -197 26
-28 80 -27 99 3 8 12 19 75 25 147 51 561 43 514 82 531 17 7 28 17 25 24 -30
79 -30 119 0 221 5 19 -1 23 -68 39 -40 10 -85 24 -100 31 -22 11 -27 11 -31
0z"/>
<path d="M795 1020 c-22 -11 -65 -25 -95 -31 -30 -7 -57 -14 -59 -15 -1 -2 11
-43 29 -93 32 -88 33 -101 17 -188 0 -5 12 -10 29 -13 28 -5 32 -13 92 -180
35 -96 72 -197 82 -225 10 -27 33 -90 51 -140 18 -50 39 -98 47 -107 23 -28
78 -23 98 7 19 28 19 22 -30 210 -53 200 -85 319 -107 404 l-19 75 21 23 22
22 -39 43 c-32 36 -43 59 -63 136 -13 50 -26 92 -30 91 -3 0 -24 -9 -46 -19z"/>
</g>
</svg>
