<?xml version="1.0" standalone="no"?>
<!DOCTYPE svg PUBLIC "-//W3C//DTD SVG 20010904//EN"
 "http://www.w3.org/TR/2001/REC-SVG-20010904/DTD/svg10.dtd">
<svg version="1.0" xmlns="http://www.w3.org/2000/svg"
 width="300.000000pt" height="418.000000pt" viewBox="0 0 300.000000 418.000000"
 preserveAspectRatio="xMidYMid meet">
<metadata>
Created by potrace 1.10, written by Peter Selinger 2001-2011
</metadata>
<g transform="translate(0.000000,418.000000) scale(0.100000,-0.100000)"
fill="#000000" stroke="none">
<path d="M992 4168 c-19 -19 -15 -40 23 -112 38 -73 45 -134 24 -195 -6 -17
-42 -71 -80 -119 -133 -167 -183 -322 -159 -492 13 -95 58 -214 107 -284 31
-44 34 -46 84 -46 45 0 50 2 44 18 -74 176 -72 298 9 404 39 50 121 108 154
108 26 0 27 -6 6 -55 -19 -47 -13 -75 31 -132 70 -92 82 -194 33 -293 l-25
-50 67 0 c37 0 74 5 83 13 25 18 85 172 118 304 65 257 25 494 -114 678 -53
69 -173 168 -264 217 -91 49 -120 57 -141 36z"/>
<path d="M1015 2719 c-64 -12 -92 -26 -138 -69 -44 -40 -101 -70 -134 -70 -34
0 -91 20 -127 45 l-36 24 0 -298 0 -298 -64 -134 c-98 -206 -121 -315 -66
-313 14 0 35 4 47 8 21 7 21 4 20 -56 -2 -62 -2 -62 28 -68 l30 -5 3 -378 2
-377 595 0 595 0 0 945 0 944 -52 16 c-251 72 -565 109 -703 84z"/>
<path d="M2728 936 c-63 -23 -183 -103 -230 -154 -54 -58 -75 -95 -98 -176
-14 -51 -21 -61 -46 -69 -16 -5 -147 -12 -291 -14 l-263 -5 0 56 0 56 -630 0
-630 0 0 -39 c0 -75 14 -71 -249 -71 -130 0 -241 -4 -248 -8 -25 -16 -30 -58
-21 -167 13 -158 30 -208 87 -264 87 -85 33 -81 1059 -81 866 0 904 1 952 19
115 44 169 124 178 259 2 42 8 84 13 93 12 24 135 35 158 15 9 -9 36 -22 60
-31 150 -53 356 42 427 198 24 52 28 75 29 147 0 72 -4 93 -25 134 -50 97
-140 137 -232 102z m99 -166 c17 -34 16 -110 -2 -153 -27 -66 -124 -127 -201
-127 -148 0 -93 164 91 275 67 40 94 41 112 5z"/>
</g>
</svg>
