<?xml version="1.0" standalone="no"?>
<!DOCTYPE svg PUBLIC "-//W3C//DTD SVG 20010904//EN"
 "http://www.w3.org/TR/2001/REC-SVG-20010904/DTD/svg10.dtd">
<svg version="1.0" xmlns="http://www.w3.org/2000/svg"
 width="300.000000pt" height="362.000000pt" viewBox="0 0 300.000000 362.000000"
 preserveAspectRatio="xMidYMid meet">
<metadata>
Created by potrace 1.10, written by Peter Selinger 2001-2011
</metadata>
<g transform="translate(0.000000,362.000000) scale(0.050000,-0.050000)"
fill="#000000" stroke="none">
<path d="M2915 6715 l-5 -405 -185 -6 -185 -6 0 -269 0 -269 -60 0 -60 0 0
270 0 270 -170 0 -170 0 0 -245 c-1 -267 -10 -302 -82 -292 -48 7 -48 10 -54
272 l-5 265 -180 0 -179 0 0 -547 0 -547 155 -181 c85 -99 184 -215 220 -257
l65 -77 0 -2134 0 -2135 -105 -6 c-92 -5 -106 -12 -112 -52 -5 -39 -16 -45
-70 -40 l-63 6 -5 1412 -5 1413 123 147 c68 82 133 154 145 162 24 16 44 647
23 730 -11 44 -21 48 -117 42 l-104 -6 -10 -170 c-8 -139 -16 -171 -44 -176
-30 -6 -35 16 -40 170 l-6 176 -114 6 -114 6 -6 -176 c-5 -147 -12 -177 -40
-182 -30 -6 -35 16 -40 170 l-6 176 -114 6 -114 6 -6 -176 c-5 -147 -12 -177
-40 -182 -30 -6 -35 16 -40 170 l-6 176 -110 0 -110 0 -10 -170 c-8 -133 -16
-170 -40 -170 -24 0 -32 37 -40 170 l-10 170 -110 0 -110 0 -10 -170 c-8 -133
-16 -170 -40 -170 -24 0 -32 37 -40 170 l-10 170 -110 0 -110 0 -5 -367 -6
-368 114 -132 c63 -73 126 -143 141 -155 21 -19 25 -284 21 -1450 l-5 -1428
-66 -6 c-65 -7 -66 -8 -60 -100 l6 -94 2690 0 2690 0 6 95 c6 94 6 95 -55 95
l-61 0 0 1433 0 1432 130 146 130 145 0 383 0 383 -105 -6 -105 -6 -10 -170
c-13 -221 -67 -250 -75 -40 -9 219 -9 220 -135 220 l-108 0 -6 -175 c-8 -250
-61 -253 -76 -5 l-10 170 -114 6 -114 6 -6 -176 c-5 -147 -12 -177 -40 -182
-30 -6 -35 16 -40 170 l-6 176 -114 6 -114 6 -6 -176 c-5 -147 -12 -177 -40
-182 -30 -6 -35 16 -40 170 l-6 176 -110 0 -110 0 -10 -170 c-8 -133 -16 -170
-40 -170 -24 0 -32 37 -40 170 l-10 170 -110 0 -110 0 -6 -340 c-7 -415 -14
-388 145 -568 l131 -148 0 -1428 0 -1429 -65 7 c-50 5 -66 17 -71 51 -6 40
-18 45 -105 45 l-99 0 0 2141 0 2142 165 191 c91 105 185 214 210 242 44 49
45 57 45 607 l0 557 -180 0 -180 0 0 -271 0 -272 -55 7 -55 6 -6 265 -5 265
-180 0 -179 0 0 -271 0 -272 -55 7 -55 6 -6 265 -5 265 -180 0 -179 0 0 227 0
227 165 17 c91 9 199 15 240 13 l75 -3 0 117 c0 164 -19 176 -228 146 -238
-35 -252 -33 -252 26 0 40 -10 50 -50 50 l-49 0 -6 -405z m190 -2862 c73 -68
130 -189 138 -294 l7 -89 -285 -6 c-324 -6 -305 -18 -264 173 48 223 269 341
404 216z m-1978 -1254 c56 -45 106 -176 86 -228 -10 -27 -41 -32 -188 -27
l-175 6 6 70 c17 175 158 268 271 179z m3860 0 c56 -45 106 -176 86 -228 -10
-27 -41 -32 -188 -27 l-175 6 6 70 c14 173 158 268 271 179z m-1890 -249 c71
-60 134 -187 151 -305 l12 -85 -292 0 -293 0 12 94 c39 281 248 432 410 296z
m-1970 -751 c56 -45 106 -176 86 -228 -10 -27 -41 -32 -188 -27 l-175 6 6 70
c17 175 158 268 271 179z m3860 0 c56 -45 106 -176 86 -228 -10 -27 -41 -32
-188 -27 l-175 6 6 70 c14 173 158 268 271 179z"/>
</g>
</svg>
