<?xml version="1.0" standalone="no"?>
<!DOCTYPE svg PUBLIC "-//W3C//DTD SVG 20010904//EN"
 "http://www.w3.org/TR/2001/REC-SVG-20010904/DTD/svg10.dtd">
<svg version="1.0" xmlns="http://www.w3.org/2000/svg"
 width="300.000000pt" height="305.000000pt" viewBox="0 0 300.000000 305.000000"
 preserveAspectRatio="xMidYMid meet">
<metadata>
Created by potrace 1.10, written by Peter Selinger 2001-2011
</metadata>
<g transform="translate(0.000000,305.000000) scale(0.050000,-0.050000)"
fill="#000000" stroke="none">
<path d="M2953 6007 c-7 -8 -13 -113 -13 -235 l0 -222 -169 -315 c-93 -174
-174 -333 -181 -355 -12 -39 -3 -40 389 -40 220 0 401 6 401 13 0 7 -49 104
-108 215 -209 390 -276 532 -265 560 12 31 122 43 593 63 159 7 298 18 308 24
24 15 -42 42 -108 44 -72 2 -200 40 -200 59 0 9 68 28 150 42 269 46 195 72
-291 100 -242 14 -445 33 -451 43 -12 20 -36 22 -55 4z"/>
<path d="M2260 4482 l0 -237 92 -113 93 -112 534 0 534 0 93 115 94 115 0 235
0 235 -110 0 -110 0 0 -100 c0 -109 -40 -139 -150 -112 -45 11 -50 23 -50 112
l0 100 -100 0 -100 0 0 -100 c0 -89 -5 -101 -50 -112 -110 -27 -150 3 -150
112 l0 100 -110 0 -110 0 0 -100 c0 -88 -5 -101 -49 -111 -97 -25 -131 4 -131
112 l0 99 -110 0 -110 0 0 -238z"/>
<path d="M2432 3845 c-7 -41 -34 -252 -60 -469 -27 -217 -53 -402 -58 -410 -5
-9 -20 -115 -32 -236 -12 -121 -28 -263 -34 -315 l-12 -95 743 0 743 0 -11 65
c-6 36 -25 204 -42 374 -17 169 -35 315 -40 322 -5 8 -27 180 -49 382 -22 202
-45 387 -51 412 l-10 45 -537 0 -538 0 -12 -75z m622 -368 c42 -40 46 -60 46
-250 l0 -207 -120 0 -120 0 0 204 c0 270 73 366 194 253z"/>
<path d="M539 3565 c-1 -41 0 -239 1 -440 l2 -365 -51 -20 c-47 -17 -51 -29
-51 -140 l0 -120 -100 0 -100 0 0 131 0 131 -115 -6 c-63 -3 -113 -13 -110
-21 3 -8 5 -86 5 -174 0 -149 3 -159 45 -165 l45 -6 5 -1155 5 -1155 450 0
450 0 0 1160 0 1160 50 0 c50 0 50 1 50 180 l0 180 -120 0 -120 0 0 -131 0
-131 -105 6 -105 6 -2 90 c-3 146 -7 160 -38 160 -25 0 -30 41 -30 248 l0 249
135 12 c237 21 364 55 293 78 -135 44 -144 68 -40 112 128 55 106 73 -113 90
-241 18 -275 27 -275 73 0 21 -13 38 -30 38 -21 0 -30 -22 -31 -75z m88 -1534
c51 -47 53 -58 53 -250 l0 -201 -120 0 -120 0 0 218 c0 203 3 219 45 249 62
43 81 41 142 -16z"/>
<path d="M5373 3627 c-7 -8 -13 -209 -13 -448 0 -424 -1 -435 -42 -445 -32 -9
-38 -21 -28 -53 7 -24 7 -78 0 -122 l-14 -79 -98 0 -98 0 0 130 0 130 -120 0
-120 0 0 -180 c0 -179 0 -180 50 -180 l50 0 0 -1160 0 -1160 450 0 450 0 5
1155 5 1155 60 10 60 10 0 170 0 170 -120 0 -120 0 -6 -125 -6 -125 -99 0 -99
0 0 120 c0 111 -4 123 -50 140 -49 19 -50 22 -50 257 l0 239 145 13 c80 7 187
23 239 35 l93 23 -92 45 -93 44 77 32 c42 18 85 32 95 32 11 0 16 11 11 25 -5
16 -85 33 -218 47 -224 23 -257 33 -257 79 0 30 -24 38 -47 16z m66 -1576 c75
-39 81 -62 81 -283 l0 -188 -120 0 c-82 0 -120 8 -121 25 0 14 -4 85 -8 159
-10 153 11 248 63 288 45 33 37 33 105 -1z"/>
<path d="M1160 1130 l0 -1070 690 0 690 0 0 286 c0 437 129 614 446 614 303 0
434 -187 434 -619 l0 -281 690 0 690 0 0 1070 0 1070 -109 0 -109 0 -6 -95 -6
-95 -104 -6 -104 -6 -6 96 -6 96 -100 0 -100 0 -6 -95 -6 -95 -89 0 -89 0 0
100 0 100 -120 0 -120 0 0 -100 0 -100 -110 0 -110 0 0 100 0 100 -100 0 -100
0 0 -100 0 -100 -100 0 -100 0 0 100 0 100 -120 0 -120 0 0 -100 0 -100 -100
0 -100 0 0 100 0 100 -100 0 -100 0 0 -100 0 -100 -110 0 -110 0 0 100 0 100
-109 0 -109 0 -6 -95 -6 -95 -100 0 -100 0 -6 95 -6 95 -109 0 -109 0 0 -101
0 -101 -95 6 -95 6 -6 95 -6 95 -109 0 -109 0 0 -1070z m576 526 c13 -13 24
-58 24 -100 l0 -76 -100 0 -100 0 0 76 c0 112 104 172 176 100z m674 -36 c22
-102 -2 -140 -91 -140 l-79 0 0 100 0 100 78 0 c71 0 80 -6 92 -60z m646 -45
l6 -95 -91 0 -91 0 0 87 c0 164 166 171 176 8z m660 0 l6 -95 -91 0 -91 0 0
101 0 101 85 -6 85 -6 6 -95z m640 81 c13 -13 24 -58 24 -100 l0 -76 -90 0
-90 0 0 87 c0 113 84 161 156 89z"/>
</g>
</svg>
