<?xml version="1.0" standalone="no"?>
<!DOCTYPE svg PUBLIC "-//W3C//DTD SVG 20010904//EN"
 "http://www.w3.org/TR/2001/REC-SVG-20010904/DTD/svg10.dtd">
<svg version="1.0" xmlns="http://www.w3.org/2000/svg"
 width="300.000000pt" height="279.000000pt" viewBox="0 0 300.000000 279.000000"
 preserveAspectRatio="xMidYMid meet">
<metadata>
Created by potrace 1.10, written by Peter Selinger 2001-2011
</metadata>
<g transform="translate(0.000000,279.000000) scale(0.100000,-0.100000)"
fill="#000000" stroke="none">
<path d="M2358 2760 c-16 -5 -58 -25 -94 -45 -61 -34 -76 -38 -179 -46 -157
-12 -265 -57 -265 -110 0 -24 2 -25 111 -47 159 -33 268 -72 305 -109 37 -36
58 -100 49 -142 -10 -47 -106 -128 -324 -276 -45 -31 -363 -300 -480 -407 -61
-55 -113 -94 -356 -265 -174 -122 -469 -310 -571 -364 -136 -72 -232 -138
-315 -217 -101 -95 -121 -142 -61 -142 84 0 111 2 146 11 21 6 40 8 42 6 2 -2
-64 -49 -148 -105 -173 -115 -221 -154 -216 -180 3 -14 15 -17 80 -16 l77 1
-19 -35 c-36 -67 -12 -67 170 -6 99 33 212 84 420 191 l285 146 150 18 c83 10
195 28 249 40 118 26 227 22 327 -10 l66 -21 -5 -126 -5 -126 102 -100 c57
-55 99 -104 94 -108 -4 -4 -35 -10 -68 -12 -77 -5 -130 -31 -166 -81 -47 -65
-36 -75 34 -27 72 48 118 56 212 35 123 -26 191 -29 264 -10 35 9 95 16 133
16 66 0 89 -7 191 -59 23 -12 1 23 -39 62 l-47 44 59 13 c99 21 174 16 249
-19 47 -22 65 -27 65 -17 0 25 -83 85 -140 101 -81 23 -82 23 -78 36 6 17 69
48 100 48 14 0 40 -12 57 -26 29 -24 31 -24 31 -6 0 32 -38 71 -77 78 -51 10
-158 -12 -225 -46 -80 -41 -106 -34 -186 47 -95 97 -102 112 -102 220 l0 91
68 38 c150 84 228 151 333 289 103 135 240 396 299 572 37 109 36 96 28 498
-6 263 -21 314 -144 501 -86 131 -153 180 -280 203 -67 13 -167 13 -206 1z
m-268 -2257 l0 -68 102 -97 c113 -108 114 -102 -3 -112 l-56 -4 -51 51 c-84
87 -102 120 -102 193 l0 63 43 20 c66 30 67 29 67 -46z"/>
</g>
</svg>
