<?xml version="1.0" standalone="no"?>
<!DOCTYPE svg PUBLIC "-//W3C//DTD SVG 20010904//EN"
 "http://www.w3.org/TR/2001/REC-SVG-20010904/DTD/svg10.dtd">
<svg version="1.0" xmlns="http://www.w3.org/2000/svg"
 width="300.000000pt" height="294.000000pt" viewBox="0 0 300.000000 294.000000"
 preserveAspectRatio="xMidYMid meet">
<metadata>
Created by potrace 1.10, written by Peter Selinger 2001-2011
</metadata>
<g transform="translate(0.000000,294.000000) scale(0.100000,-0.100000)"
fill="#000000" stroke="none">
<path d="M2221 2851 l-173 -68 -114 -114 -114 -114 0 -142 0 -143 -65 0 -65 0
0 45 c0 51 -25 85 -62 85 -41 0 -68 -35 -68 -88 0 -25 -5 -30 -31 -36 -17 -3
-60 -6 -95 -6 l-64 0 0 45 c0 52 -25 85 -65 85 -40 0 -65 -33 -65 -85 0 -28
-5 -47 -12 -50 -7 -2 -66 -6 -130 -10 l-118 -6 0 60 c0 51 -3 62 -22 75 -59
42 -108 -2 -108 -95 0 -41 -4 -59 -12 -59 -7 0 -58 -7 -112 -15 -136 -21 -126
-24 -126 43 0 78 -16 106 -61 110 -57 5 -69 -14 -69 -113 l0 -84 -57 -11 c-32
-7 -105 -23 -161 -36 -57 -13 -105 -24 -107 -24 -3 0 -6 39 -7 87 -3 85 -4 88
-30 101 -23 11 -33 11 -55 0 l-28 -13 -3 -403 -2 -403 60 43 60 42 0 203 c0
237 -21 206 165 247 66 14 130 28 143 31 l22 5 0 -151 c0 -138 1 -151 17 -145
9 4 38 14 65 22 l47 16 3 142 3 141 70 12 c39 6 94 14 122 18 l53 6 0 -121 c0
-112 2 -122 18 -117 9 3 38 11 65 18 l47 13 0 112 0 112 98 6 c53 4 112 9 130
12 l32 5 0 -91 c0 -101 -5 -96 84 -84 l46 7 0 82 0 82 53 7 c28 3 71 6 95 6
l42 0 0 -76 0 -77 38 7 c20 3 49 6 65 6 27 0 27 1 27 65 l0 65 65 0 65 0 0
-65 0 -65 130 0 130 0 0 179 c0 175 1 180 22 195 19 14 65 16 298 16 233 0
279 -2 298 -16 22 -15 22 -20 22 -220 0 -188 1 -204 18 -204 9 0 67 -7 127
-15 61 -8 111 -15 113 -15 1 0 2 141 2 313 l0 312 -112 111 -113 111 -177 71
c-97 40 -178 72 -180 72 -2 -1 -81 -32 -177 -69z m227 -213 c17 -15 15 -74 -4
-92 -20 -21 -68 -20 -89 0 -25 25 -16 85 15 101 25 13 54 9 78 -9z"/>
<path d="M1615 1787 c-269 -139 -435 -244 -667 -418 -292 -221 -617 -544 -875
-871 l-53 -66 0 -206 0 -206 283 0 283 0 76 153 c186 371 452 764 716 1057
185 205 457 458 634 590 26 19 48 38 48 43 0 4 -64 7 -142 7 l-143 0 -160 -83z"/>
<path d="M2221 1810 c-281 -181 -634 -515 -906 -854 -168 -211 -376 -533 -517
-803 l-70 -133 354 0 353 0 48 137 c126 356 321 748 520 1048 100 151 278 388
392 523 48 57 85 105 83 107 -2 2 -46 6 -98 10 l-95 6 -64 -41z"/>
<path d="M1265 1815 c-265 -51 -606 -151 -786 -229 -118 -52 -246 -128 -366
-218 l-93 -69 0 -330 0 -329 119 137 c221 257 520 535 786 734 137 103 174
128 353 235 99 60 147 94 131 93 -13 0 -78 -11 -144 -24z"/>
<path d="M2530 1694 c-133 -158 -236 -289 -338 -431 -215 -299 -470 -800 -593
-1161 l-28 -82 316 2 316 3 53 205 c128 502 298 997 498 1450 38 87 51 127 43
131 -7 4 -43 10 -82 13 l-70 6 -115 -136z"/>
<path d="M2909 1723 c-225 -499 -412 -1032 -534 -1523 -20 -80 -38 -153 -41
-162 -5 -17 15 -18 320 -18 l326 0 0 885 c0 884 0 885 -20 885 -16 0 -28 -16
-51 -67z"/>
</g>
</svg>
