<?xml version="1.0" standalone="no"?>
<!DOCTYPE svg PUBLIC "-//W3C//DTD SVG 20010904//EN"
 "http://www.w3.org/TR/2001/REC-SVG-20010904/DTD/svg10.dtd">
<svg version="1.0" xmlns="http://www.w3.org/2000/svg"
 width="300.000000pt" height="293.000000pt" viewBox="0 0 300.000000 293.000000"
 preserveAspectRatio="xMidYMid meet">
<metadata>
Created by potrace 1.10, written by Peter Selinger 2001-2011
</metadata>
<g transform="translate(0.000000,293.000000) scale(0.100000,-0.100000)"
fill="#000000" stroke="none">
<path d="M2840 2914 c-164 -14 -403 -69 -570 -131 -122 -45 -342 -157 -445
-226 -62 -41 -86 -64 -107 -102 -35 -64 -85 -215 -94 -282 -3 -29 -10 -53 -14
-53 -16 0 -32 67 -39 155 l-6 90 -125 -125 c-217 -218 -304 -325 -361 -444
-50 -105 -98 -267 -100 -335 0 -20 -4 -45 -8 -55 -8 -22 -41 112 -41 169 0 19
-4 35 -9 35 -5 0 -34 -39 -64 -87 -172 -274 -294 -556 -346 -798 -22 -103 16
-58 -310 -359 -95 -88 -179 -172 -187 -187 -36 -70 4 -151 84 -172 24 -6 227
45 272 68 14 7 95 86 179 174 111 116 160 161 176 161 39 0 245 56 350 95 350
130 771 398 1085 694 l75 70 -70 1 c-75 2 -147 19 -145 35 1 6 29 15 63 22 84
16 165 45 266 96 77 38 91 50 156 132 104 129 245 346 245 376 0 5 -31 9 -69
9 -38 0 -82 5 -98 11 -27 11 -25 12 42 28 39 9 96 29 128 44 52 24 60 32 82
81 33 74 93 256 101 303 l6 38 -57 1 c-68 1 -93 18 -40 28 20 4 55 15 78 25
l43 19 12 78 c7 44 15 122 18 174 6 84 4 98 -12 118 -21 25 -63 32 -144 26z
m-428 -641 c-88 -102 -654 -666 -1137 -1134 -259 -251 -581 -569 -716 -707
l-246 -251 -88 -25 c-49 -14 -90 -24 -92 -22 -2 2 11 16 29 31 46 38 523 482
753 700 104 99 370 351 589 560 715 680 951 904 954 905 2 0 -19 -26 -46 -57z"/>
</g>
</svg>
