<?xml version="1.0" standalone="no"?>
<!DOCTYPE svg PUBLIC "-//W3C//DTD SVG 20010904//EN"
 "http://www.w3.org/TR/2001/REC-SVG-20010904/DTD/svg10.dtd">
<svg version="1.0" xmlns="http://www.w3.org/2000/svg"
 width="179.000000pt" height="300.000000pt" viewBox="0 0 179.000000 300.000000"
 preserveAspectRatio="xMidYMid meet">
<metadata>
Created by potrace 1.10, written by Peter Selinger 2001-2011
</metadata>
<g transform="translate(0.000000,300.000000) scale(0.100000,-0.100000)"
fill="#000000" stroke="none">
<path d="M805 2986 c-81 -25 -139 -86 -166 -174 -13 -45 -20 -50 -38 -28 -6 7
-36 21 -67 31 -246 77 -430 -220 -253 -409 l29 -31 -48 -6 c-199 -26 -288
-245 -164 -407 28 -37 74 -64 139 -81 l42 -11 -30 -56 c-54 -104 -35 -220 49
-296 85 -77 187 -90 286 -39 l55 30 7 -33 c10 -58 60 -131 110 -165 26 -17 53
-31 61 -31 9 0 12 -8 9 -22 -8 -37 -75 -377 -89 -452 l-13 -70 -38 77 c-94
190 -323 304 -511 253 -53 -14 -135 -60 -135 -75 0 -5 23 -43 51 -85 58 -87
163 -199 229 -243 86 -58 227 -103 324 -103 68 0 70 -5 63 -117 -4 -54 -4
-176 0 -271 l6 -172 37 0 36 0 12 228 c7 125 16 270 19 322 l6 95 86 85 c102
101 201 177 292 225 95 50 96 43 4 -16 -85 -55 -275 -239 -334 -323 l-35 -49
96 7 c336 23 586 187 802 525 26 40 45 79 42 87 -9 24 -98 74 -169 96 -56 17
-87 19 -175 16 -171 -7 -303 -63 -427 -183 -60 -58 -125 -149 -139 -193 -4
-12 -11 -22 -15 -22 -8 0 10 135 29 222 34 157 29 146 63 154 116 25 199 128
200 246 l0 37 31 -26 c103 -87 259 -81 348 13 78 83 90 240 24 313 -22 25 -20
31 12 31 65 1 152 65 189 139 24 49 24 163 0 212 -39 79 -123 137 -206 142
-23 1 -41 3 -41 5 0 2 12 19 26 38 58 75 69 167 30 249 -46 99 -122 148 -226
148 -68 0 -106 -14 -167 -60 l-33 -24 0 24 c0 88 -83 195 -172 222 -61 18 -99
18 -153 1z m213 -668 c128 -85 129 -275 2 -363 -49 -34 -135 -45 -195 -25
-110 36 -176 177 -132 283 20 46 63 95 106 117 55 30 164 24 219 -12z m-507
-1525 c92 -61 199 -168 199 -199 0 -13 -2 -24 -4 -24 -2 0 -30 32 -62 72 -50
61 -152 151 -220 195 -18 12 -18 12 1 6 11 -3 50 -26 86 -50z"/>
</g>
</svg>
