<?xml version="1.0" standalone="no"?>
<!DOCTYPE svg PUBLIC "-//W3C//DTD SVG 20010904//EN"
 "http://www.w3.org/TR/2001/REC-SVG-20010904/DTD/svg10.dtd">
<svg version="1.0" xmlns="http://www.w3.org/2000/svg"
 width="150.000000pt" height="300.000000pt" viewBox="0 0 150.000000 300.000000"
 preserveAspectRatio="xMidYMid meet">
<metadata>
Created by potrace 1.10, written by Peter Selinger 2001-2011
</metadata>
<g transform="translate(0.000000,300.000000) scale(0.100000,-0.100000)"
fill="#000000" stroke="none">
<path d="M152 2831 c-23 -82 -42 -158 -42 -168 0 -11 11 -30 25 -43 l25 -23 0
-259 c0 -238 -2 -261 -19 -286 -18 -26 -121 -410 -121 -452 0 -12 12 -33 26
-47 22 -22 32 -25 70 -20 l44 5 0 -734 c0 -653 2 -734 16 -748 8 -9 21 -16 28
-16 35 0 36 16 36 527 0 396 3 503 13 503 6 0 80 -20 162 -43 101 -29 152 -40
156 -33 3 6 14 66 25 134 21 140 26 138 49 -22 9 -56 17 -106 19 -113 7 -18
182 40 176 58 -2 8 -6 96 -8 197 -2 100 -6 182 -9 182 -3 0 -50 -14 -105 -31
l-99 -30 -99 31 c-55 17 -106 33 -113 36 -10 3 -18 -9 -27 -40 -12 -43 -108
-228 -130 -250 -7 -7 -10 95 -10 310 0 276 3 331 19 409 l20 90 0 -162 c1
-104 5 -163 11 -163 6 0 28 11 50 25 22 14 42 25 44 25 3 0 7 -42 8 -92 l3
-93 112 -37 111 -37 99 31 c54 16 101 33 106 37 4 4 6 111 5 237 l-3 229 -23
-37 c-42 -67 -154 -102 -253 -78 -41 10 -63 24 -105 66 -47 47 -59 53 -108 59
-56 7 -56 8 -56 41 0 22 -7 40 -20 51 -19 17 -20 30 -20 271 l0 254 31 39 30
38 -41 138 c-23 76 -44 148 -47 161 -3 12 -8 22 -12 22 -4 0 -26 -67 -49 -149z"/>
<path d="M600 2507 c-14 -7 -35 -30 -47 -52 -27 -48 -80 -204 -89 -263 -8 -51
-35 -86 -104 -137 -28 -20 -50 -41 -50 -46 0 -5 18 -9 40 -9 53 0 81 -14 108
-56 29 -45 91 -73 159 -74 73 0 100 13 166 81 66 69 70 91 28 149 -19 27 -33
62 -41 108 -20 120 -60 232 -99 275 -26 30 -45 37 -71 24z m-8 -259 c3 -51 4
-53 33 -53 29 0 30 2 27 40 -3 49 7 66 35 59 46 -12 58 -125 19 -171 -22 -25
-31 -28 -86 -28 -55 0 -64 3 -86 28 -24 28 -32 83 -18 134 5 18 37 39 66 42 4
1 8 -23 10 -51z"/>
<path d="M908 2049 c-10 -5 -18 -18 -18 -27 0 -10 53 -70 118 -134 l117 -117
52 -2 52 -3 126 122 c69 67 125 126 125 131 0 5 -7 17 -16 25 -13 14 -52 16
-277 16 -159 0 -269 -5 -279 -11z"/>
<path d="M890 1680 l0 -255 99 99 c92 92 99 101 94 131 -3 18 0 41 5 52 9 17
-3 33 -94 124 l-104 104 0 -255z"/>
<path d="M1375 1830 l-100 -100 4 -58 3 -57 97 -95 96 -95 3 128 c1 70 1 183
0 252 l-3 125 -100 -100z"/>
<path d="M1006 1461 l-118 -118 4 -149 c4 -176 0 -169 160 -350 83 -95 105
-114 128 -114 24 0 48 21 145 130 64 71 124 149 135 172 16 36 20 66 20 178
l0 135 -119 119 c-118 117 -120 119 -148 107 -21 -9 -37 -9 -57 -1 -15 5 -28
10 -29 10 -1 0 -56 -53 -121 -119z"/>
<path d="M355 828 c-7 -153 -7 -153 -40 -198 -19 -25 -35 -51 -37 -57 -2 -7
12 -23 31 -36 l34 -24 -2 -224 c-2 -205 -1 -227 16 -247 27 -32 73 -38 104
-13 27 21 37 62 54 221 7 65 25 197 30 225 2 11 20 28 38 38 33 18 36 18 68 2
19 -10 36 -19 38 -21 3 -3 20 -131 41 -319 15 -129 17 -134 55 -152 28 -13 38
-14 64 -4 16 7 33 20 36 29 4 10 6 119 5 245 0 125 3 227 7 227 4 0 21 11 38
24 l29 23 -39 57 -39 57 -9 142 c-5 78 -12 146 -17 150 -8 9 -175 -38 -196
-54 -6 -5 -8 -29 -3 -66 4 -32 8 -93 8 -136 1 -65 -3 -86 -25 -129 l-27 -52
-27 54 -28 55 10 134 c5 73 6 137 1 141 -9 8 -182 60 -199 60 -8 0 -14 -51
-19 -152z"/>
</g>
</svg>
