<?xml version="1.0" standalone="no"?>
<!DOCTYPE svg PUBLIC "-//W3C//DTD SVG 20010904//EN"
 "http://www.w3.org/TR/2001/REC-SVG-20010904/DTD/svg10.dtd">
<svg version="1.0" xmlns="http://www.w3.org/2000/svg"
 width="257.000000pt" height="300.000000pt" viewBox="0 0 257.000000 300.000000"
 preserveAspectRatio="xMidYMid meet">
<metadata>
Created by potrace 1.10, written by Peter Selinger 2001-2011
</metadata>
<g transform="translate(0.000000,300.000000) scale(0.100000,-0.100000)"
fill="#000000" stroke="none">
<path d="M86 2898 c-14 -19 -16 -67 -16 -326 0 -299 3 -334 34 -354 6 -4 55
-8 109 -8 l97 0 0 -742 c0 -729 -1 -744 -21 -788 -27 -58 -114 -273 -149 -370
-16 -41 -38 -101 -50 -132 -21 -54 -22 -59 -6 -83 l16 -25 1165 0 1165 0 16
25 c19 30 23 19 -128 394 l-98 245 0 738 0 738 103 0 c67 0 107 4 115 12 17
17 17 669 0 686 -9 9 -71 12 -218 12 -188 0 -208 -2 -223 -18 -14 -16 -17 -43
-17 -175 l0 -157 -60 0 -60 0 0 159 c0 132 -3 162 -16 175 -13 14 -47 16 -220
16 -263 0 -244 15 -244 -195 l0 -155 -115 0 -115 0 0 155 c0 210 19 195 -244
195 -173 0 -207 -2 -220 -16 -13 -13 -16 -43 -16 -175 l0 -159 -60 0 -60 0 0
155 c0 210 19 195 -244 195 -200 0 -205 0 -220 -22z m1282 -1007 c49 -25 86
-66 111 -121 19 -43 21 -65 21 -398 l0 -352 -237 2 -238 3 0 355 c0 347 0 356
22 396 67 126 204 175 321 115z"/>
</g>
</svg>
