<?xml version="1.0" standalone="no"?>
<!DOCTYPE svg PUBLIC "-//W3C//DTD SVG 20010904//EN"
 "http://www.w3.org/TR/2001/REC-SVG-20010904/DTD/svg10.dtd">
<svg version="1.0" xmlns="http://www.w3.org/2000/svg"
 width="300.000000pt" height="298.000000pt" viewBox="0 0 300.000000 298.000000"
 preserveAspectRatio="xMidYMid meet">
<metadata>
Created by potrace 1.10, written by Peter Selinger 2001-2011
</metadata>
<g transform="translate(0.000000,298.000000) scale(0.100000,-0.100000)"
fill="#000000" stroke="none">
<path d="M1255 2940 c-12 -4 -26 -14 -33 -22 -12 -15 -42 -146 -59 -257 l-8
-54 -87 -32 c-48 -18 -107 -44 -132 -59 -24 -14 -51 -26 -58 -26 -8 0 -59 33
-114 74 -129 94 -139 99 -180 91 -26 -4 -60 -32 -144 -116 -111 -111 -127
-137 -117 -188 6 -28 70 -128 134 -208 l34 -41 -32 -64 c-17 -34 -44 -99 -60
-143 -32 -91 -18 -82 -189 -110 -114 -18 -155 -37 -169 -78 -16 -43 -14 -316
2 -347 18 -37 69 -57 186 -75 151 -23 144 -19 165 -78 9 -29 36 -91 58 -139
47 -101 49 -91 -33 -203 -80 -110 -89 -127 -89 -170 0 -37 7 -46 119 -157 111
-110 121 -118 157 -118 29 0 53 11 94 39 30 22 85 60 122 86 l67 46 83 -40
c46 -22 108 -48 138 -58 l55 -18 11 -70 c36 -222 35 -221 79 -257 17 -15 43
-18 182 -18 l163 0 31 28 c34 30 34 33 71 248 l12 72 55 17 c30 9 88 32 129
51 l74 34 -29 32 c-15 18 -76 82 -134 142 l-105 108 -47 -16 c-126 -42 -323
-38 -462 10 -106 37 -171 80 -270 179 -99 99 -148 182 -188 319 -28 95 -29
283 -3 371 53 177 143 308 275 402 263 188 598 190 856 5 134 -97 216 -212
270 -381 37 -114 39 -288 6 -400 l-23 -74 29 -27 c77 -75 247 -230 252 -230 9
0 53 99 82 180 12 36 23 66 24 67 1 2 41 9 91 17 180 30 197 35 223 61 25 25
26 30 29 173 4 162 -5 211 -43 236 -13 9 -66 23 -117 31 -190 32 -197 35 -198
77 0 9 -4 19 -9 23 -5 3 -13 19 -16 36 -4 17 -22 62 -41 100 -19 37 -34 73
-34 80 0 6 35 59 77 117 64 90 77 114 81 155 l5 48 -120 120 c-149 149 -148
149 -290 52 -54 -36 -109 -74 -121 -84 -23 -18 -25 -18 -90 15 -37 18 -98 43
-137 56 -38 13 -75 29 -81 34 -10 10 -29 104 -50 235 -4 30 -16 55 -34 73
l-28 28 -164 -1 c-90 0 -172 -4 -183 -9z"/>
<path d="M1343 1950 c-48 -10 -103 -36 -103 -50 0 -5 44 -38 98 -73 53 -36
105 -74 116 -85 24 -27 32 -99 16 -146 -18 -57 -83 -132 -126 -146 -51 -17
-88 -4 -203 70 -52 34 -100 59 -107 56 -28 -11 -11 -121 32 -213 32 -66 110
-146 172 -176 48 -22 91 -25 248 -16 54 3 66 1 100 -24 36 -25 520 -516 899
-911 183 -191 213 -211 305 -204 72 5 122 40 158 109 19 36 23 55 19 103 -7
76 -20 93 -192 252 -77 71 -243 226 -370 344 -126 119 -248 231 -269 250 -22
19 -80 73 -129 120 -49 47 -95 89 -103 93 -9 5 -35 36 -60 69 -49 67 -53 92
-33 203 11 55 10 70 -10 135 -20 64 -30 81 -82 132 -32 31 -74 65 -91 74 -78
40 -187 53 -285 34z m1496 -1651 c24 -24 31 -39 31 -70 0 -51 -13 -75 -52 -95
-39 -20 -83 -12 -120 23 -64 61 -18 173 70 173 32 0 47 -7 71 -31z"/>
</g>
</svg>
