<?xml version="1.0" standalone="no"?>
<!DOCTYPE svg PUBLIC "-//W3C//DTD SVG 20010904//EN"
 "http://www.w3.org/TR/2001/REC-SVG-20010904/DTD/svg10.dtd">
<svg version="1.0" xmlns="http://www.w3.org/2000/svg"
 width="300.000000pt" height="237.000000pt" viewBox="0 0 300.000000 237.000000"
 preserveAspectRatio="xMidYMid meet">
<metadata>
Created by potrace 1.10, written by Peter Selinger 2001-2011
</metadata>
<g transform="translate(0.000000,237.000000) scale(0.100000,-0.100000)"
fill="#000000" stroke="none">
<path d="M2160 2353 c-120 -21 -291 -80 -377 -131 -26 -16 -60 -32 -75 -35
l-28 -7 40 57 c22 31 40 62 40 69 0 38 -48 22 -133 -44 -34 -26 -71 -52 -82
-58 -81 -43 -145 -82 -175 -104 -19 -15 -69 -46 -110 -70 -41 -24 -90 -60
-108 -79 -61 -66 -66 -81 -72 -261 -6 -152 -9 -175 -44 -295 -35 -120 -141
-364 -152 -352 -3 3 9 34 27 68 42 84 50 115 38 146 -8 22 -11 23 -26 12 -14
-13 -14 -11 1 19 9 18 23 35 31 38 7 3 18 20 24 37 11 29 12 30 26 11 13 -17
14 -9 14 81 0 62 -5 115 -14 140 -8 22 -15 41 -15 41 0 1 10 5 23 9 20 6 19 8
-12 15 -18 4 -45 17 -60 29 -14 11 -43 30 -64 41 l-38 21 19 27 c23 31 52 98
52 118 0 8 -9 4 -25 -10 -14 -13 -59 -37 -99 -54 l-74 -30 18 43 c24 56 41
117 31 113 -10 -4 -141 -144 -141 -151 0 -3 15 -3 34 0 22 3 36 1 41 -8 6 -9
4 -11 -8 -6 -14 5 -176 -42 -222 -65 -39 -20 -65 -52 -65 -79 0 -21 -7 -32
-28 -43 -59 -31 -81 -85 -62 -155 14 -54 26 -58 46 -16 11 24 23 35 38 35 12
0 26 4 32 9 11 11 94 24 94 15 0 -9 -23 -27 -108 -84 -85 -57 -173 -87 -209
-71 -25 11 -30 40 -11 59 6 6 9 14 6 17 -9 9 -38 -25 -38 -45 0 -42 70 -66
118 -41 9 5 43 19 75 32 32 12 86 39 119 61 33 21 62 37 64 35 5 -5 -84 -69
-116 -83 -22 -10 -23 -12 -7 -19 12 -5 43 2 85 19 37 14 83 26 103 26 19 0 70
12 113 26 43 14 80 23 83 20 8 -8 -69 -43 -124 -56 -41 -9 -58 -19 -79 -48
-32 -44 -93 -100 -114 -106 -8 -2 -32 -7 -52 -11 -21 -3 -38 -10 -38 -14 0
-11 25 -21 51 -21 25 0 24 -7 -6 -45 -28 -38 -61 -131 -68 -195 -9 -78 13
-163 66 -253 30 -51 57 -66 32 -17 -23 45 -18 47 13 4 16 -21 54 -62 86 -91
l57 -52 -30 -71 c-32 -74 -128 -215 -178 -261 -16 -15 -45 -29 -68 -32 -52 -8
-85 -34 -115 -91 -25 -47 -25 -48 -5 -62 13 -10 29 -13 45 -9 14 4 71 10 127
14 110 7 143 22 143 67 0 20 4 22 34 17 27 -4 36 -1 50 18 9 13 16 36 16 51 0
53 50 136 130 217 85 86 144 132 134 107 -5 -13 1 -16 27 -16 19 1 45 7 59 15
35 20 67 18 90 -5 26 -26 30 -25 30 5 0 14 4 25 10 25 17 0 41 -59 34 -85 -3
-14 -2 -25 3 -25 16 0 46 77 41 104 -6 31 -1 32 25 9 18 -17 19 -17 16 16 l-4
34 120 63 c74 39 148 70 192 80 l72 17 70 -27 c82 -32 254 -144 326 -211 28
-25 73 -62 102 -81 55 -36 94 -46 56 -15 -28 23 -30 35 -4 21 27 -14 34 -13
27 5 -11 30 50 -15 66 -49 21 -43 50 -179 43 -199 -4 -9 -22 -21 -41 -27 -19
-7 -39 -20 -44 -31 -14 -25 4 -95 27 -103 20 -8 208 12 246 26 15 6 30 21 33
33 5 21 -17 111 -37 148 -16 29 -2 33 20 6 23 -28 29 -13 6 17 -27 35 -15 39
15 4 40 -45 38 -32 -5 41 -19 33 -35 63 -35 66 0 3 11 -2 25 -11 39 -26 30
-11 -27 44 -55 53 -58 67 -12 50 l29 -11 -22 23 c-11 13 -37 48 -56 78 -19 30
-44 63 -56 74 -11 10 -18 22 -15 27 9 16 -39 31 -81 26 -64 -9 -77 -1 -114 68
-41 76 -222 269 -319 338 -76 56 -141 72 -246 62 -117 -11 -120 -14 -127 -121
-7 -107 -16 -130 -35 -85 -7 17 -17 31 -23 31 -5 0 -20 -19 -34 -43 -14 -23
-34 -50 -45 -60 -19 -18 -20 -17 -27 28 -7 51 0 73 11 31 3 -14 10 -26 15 -26
15 0 49 63 55 103 l7 38 27 -33 c29 -34 49 -34 31 0 -8 14 -7 29 0 51 6 18 9
45 7 62 -4 26 -2 30 14 26 24 -7 38 26 38 91 l1 47 22 -26 c12 -14 28 -35 35
-45 11 -16 12 -13 8 26 -3 25 -8 56 -12 70 -4 21 2 16 40 -25 25 -27 46 -44
46 -38 0 9 -40 112 -66 168 -3 6 17 9 51 7 51 -4 57 -1 87 29 l33 32 -58 12
c-33 7 -67 21 -79 33 l-21 21 29 6 c75 16 189 88 215 136 7 14 0 16 -64 13
l-72 -4 50 14 c132 38 225 85 282 142 48 49 55 70 21 60 -66 -19 -165 -37
-192 -34 -33 4 -32 5 49 34 58 21 151 108 210 197 40 60 41 85 2 50 -21 -20
-228 -103 -256 -103 -8 0 5 14 27 30 23 17 44 30 47 30 14 0 198 146 225 178
28 34 40 74 23 71 -5 -1 -19 -4 -33 -6z m-699 -291 c-56 -40 -166 -151 -203
-205 -68 -100 -72 -117 -72 -347 l-1 -205 -38 -74 c-21 -41 -49 -88 -61 -105
-27 -36 -76 -155 -76 -184 0 -17 -27 -39 -36 -29 -9 9 40 140 72 192 94 155
118 240 116 425 0 164 16 245 63 317 42 63 143 164 204 204 48 31 72 39 32 11z
m386 -19 c-4 -3 -10 -3 -14 0 -3 4 0 7 7 7 7 0 10 -3 7 -7z m-1208 -389 c-20
-24 -62 -42 -82 -35 -30 11 -21 25 25 38 64 17 73 16 57 -3z m159 -322 c-36
-38 -75 -90 -87 -115 -13 -26 -27 -49 -32 -53 -5 -3 -9 -10 -9 -16 0 -6 7 -5
17 3 15 12 16 12 9 -6 -24 -60 -28 -96 -16 -172 29 -184 23 -214 -19 -105 -23
59 -28 150 -10 201 17 49 4 48 -26 -4 -34 -57 -44 -51 -20 12 21 58 48 103 94
163 46 59 154 171 159 165 3 -3 -24 -35 -60 -73z m79 -319 c-4 -3 -7 0 -7 7 0
7 3 10 7 7 3 -4 3 -10 0 -14z"/>
<path d="M700 2311 c0 -6 7 -14 14 -17 16 -6 88 -98 98 -124 3 -8 30 -46 59
-85 68 -90 127 -206 135 -267 8 -58 19 -62 28 -10 18 111 56 162 151 206 30
13 55 29 55 33 0 4 -7 32 -15 62 -16 60 -43 95 -87 110 -27 10 -29 9 -22 -7 4
-9 9 -37 11 -62 l3 -45 -22 40 c-31 54 -121 145 -143 145 -17 0 -17 -2 3 -22
25 -28 72 -126 72 -152 0 -13 -13 -3 -42 34 -46 56 -69 70 -193 119 -43 18
-85 37 -92 43 -9 7 -13 7 -13 -1z"/>
<path d="M2568 1401 c-75 -25 -124 -62 -155 -119 -44 -81 -50 -129 -23 -189
22 -50 52 -88 83 -105 36 -19 103 -20 138 -2 21 10 29 19 21 22 -8 2 -19 -1
-25 -7 -21 -21 -56 -11 -97 27 -33 33 -40 45 -40 78 0 21 5 46 11 54 9 13 10
13 6 -2 -11 -32 13 -87 43 -103 34 -17 70 -20 70 -5 0 6 -6 10 -12 9 -40 -5
-55 21 -39 63 11 29 68 68 100 68 25 0 25 -2 5 -41 -8 -17 -12 -34 -8 -37 4
-4 9 -1 11 6 9 23 40 33 67 21 50 -23 58 -118 14 -174 -22 -28 -114 -75 -147
-75 -55 0 -262 102 -306 150 -54 59 -288 170 -360 170 -12 0 -51 -11 -85 -24
l-63 -23 39 -28 c22 -16 60 -49 86 -73 44 -42 48 -44 79 -33 82 29 143 11 280
-82 77 -53 112 -67 232 -97 139 -35 202 -24 267 45 19 20 56 48 82 61 45 23
138 109 138 127 0 5 -15 -1 -34 -12 -40 -25 -65 -28 -42 -6 36 37 74 195 46
195 -5 0 -10 -8 -10 -17 -1 -24 -37 -103 -47 -103 -4 0 -8 33 -8 74 0 68 -3
78 -31 113 -48 59 -83 75 -177 79 -45 2 -94 0 -109 -5z"/>
<path d="M306 901 c-3 -4 -34 -12 -68 -15 -117 -14 -153 -43 -204 -169 -45
-110 -8 -116 106 -16 49 42 62 49 77 40 15 -7 27 -6 49 6 16 9 43 19 59 22 23
6 29 12 26 27 -1 10 -3 40 -3 67 0 39 -3 47 -18 47 -11 0 -21 -4 -24 -9z"/>
<path d="M1530 673 c-71 -38 -87 -63 -105 -166 -10 -60 -28 -113 -55 -166 -42
-84 -78 -121 -117 -121 -44 0 -93 -31 -119 -76 -14 -24 -23 -48 -19 -54 9 -15
91 -12 132 5 40 17 143 20 143 5 0 -21 18 -8 31 22 l13 32 12 -30 13 -29 8 35
7 35 6 -35 6 -35 16 50 c9 28 17 43 18 35 2 -21 29 40 30 68 0 13 4 21 9 18 4
-3 16 12 26 34 10 22 27 47 38 57 29 26 61 82 77 133 12 41 52 107 73 121 5 4
7 17 5 30 -2 19 -11 25 -43 30 -22 4 -53 12 -68 18 -45 17 -81 13 -137 -16z"/>
</g>
</svg>
