<?xml version="1.0" standalone="no"?>
<!DOCTYPE svg PUBLIC "-//W3C//DTD SVG 20010904//EN"
 "http://www.w3.org/TR/2001/REC-SVG-20010904/DTD/svg10.dtd">
<svg version="1.0" xmlns="http://www.w3.org/2000/svg"
 width="300.000000pt" height="259.000000pt" viewBox="0 0 300.000000 259.000000"
 preserveAspectRatio="xMidYMid meet">
<metadata>
Created by potrace 1.10, written by Peter Selinger 2001-2011
</metadata>
<g transform="translate(0.000000,259.000000) scale(0.100000,-0.100000)"
fill="#000000" stroke="none">
<path d="M1360 2561 c-8 -5 -32 -16 -52 -24 -20 -9 -54 -32 -75 -50 -35 -31
-45 -35 -119 -40 -60 -3 -94 -12 -133 -31 -55 -28 -126 -92 -141 -129 -6 -12
-14 -29 -18 -37 -5 -8 -15 -26 -23 -40 -8 -15 -14 -60 -15 -113 -1 -85 -2 -89
-34 -122 -30 -31 -38 -34 -109 -38 -121 -7 -177 -25 -262 -84 -93 -66 -162
-172 -180 -276 -13 -78 -13 -106 0 -187 l11 -66 -52 -55 c-102 -105 -144 -242
-119 -389 6 -39 15 -78 20 -88 5 -9 19 -38 31 -64 26 -54 150 -184 195 -205
17 -7 37 -17 45 -22 66 -39 105 -46 260 -46 125 0 167 4 218 19 34 11 62 23
62 28 0 4 8 8 18 8 9 0 35 11 57 25 22 13 46 25 53 25 9 0 12 -51 12 -224 0
-191 2 -227 16 -240 21 -21 47 -20 67 2 15 16 17 48 17 240 0 122 3 222 6 222
3 0 33 -16 65 -35 33 -19 65 -35 70 -35 6 0 23 -7 39 -15 48 -25 204 -38 317
-27 55 6 109 15 119 20 11 5 42 20 69 33 28 12 63 32 80 43 66 47 153 151 169
204 4 12 11 22 16 22 35 0 197 -258 215 -342 4 -18 11 -37 15 -43 8 -11 24
-98 43 -240 l12 -90 36 -3 c21 -2 40 2 46 10 6 7 15 63 21 123 11 123 32 230
57 290 31 75 80 170 93 178 6 4 12 13 12 18 0 19 140 179 157 179 3 0 22 15
43 33 20 17 51 40 68 49 60 32 64 118 5 118 -58 0 -250 -155 -332 -268 -25
-34 -48 -59 -53 -56 -4 3 -8 19 -8 36 0 50 -21 158 -31 158 -5 0 -9 7 -9 16 0
28 -60 140 -90 169 -24 23 -32 26 -57 18 -25 -9 -28 -15 -27 -50 0 -22 9 -53
20 -69 11 -16 28 -49 38 -74 10 -25 22 -54 27 -65 8 -18 20 -79 36 -186 3 -22
0 -39 -6 -43 -6 -4 -11 -22 -11 -39 0 -42 -10 -77 -21 -77 -5 0 -9 7 -9 17 0
20 -52 123 -62 123 -4 0 -8 5 -8 10 0 14 -41 72 -57 83 -7 4 -13 13 -13 20 0
6 -26 37 -57 69 -51 52 -57 62 -55 95 6 84 -35 205 -99 289 -48 63 -48 65 -26
73 87 34 182 97 202 137 5 10 19 33 30 49 30 43 45 82 45 115 0 16 5 32 10 35
6 3 10 30 10 60 0 30 -4 57 -10 60 -5 3 -10 16 -10 29 0 32 -44 112 -81 145
l-30 28 -3 129 c-2 147 -7 161 -86 246 -69 76 -132 107 -233 115 -77 6 -85 8
-126 45 -24 21 -48 38 -53 38 -5 0 -28 9 -50 20 -32 15 -61 20 -127 19 -47 0
-93 -4 -101 -8z"/>
</g>
</svg>
