<?xml version="1.0" standalone="no"?>
<!DOCTYPE svg PUBLIC "-//W3C//DTD SVG 20010904//EN"
 "http://www.w3.org/TR/2001/REC-SVG-20010904/DTD/svg10.dtd">
<svg version="1.0" xmlns="http://www.w3.org/2000/svg"
 width="900.000000pt" height="522.000000pt" viewBox="0 0 900.000000 522.000000"
 preserveAspectRatio="xMidYMid meet">
<metadata>
Created by potrace 1.10, written by Peter Selinger 2001-2011
</metadata>
<g transform="translate(0.000000,522.000000) scale(0.100000,-0.100000)"
fill="#000000" stroke="none">
<path d="M7095 5114 c-16 -3 -41 -9 -55 -14 -14 -4 -38 -11 -53 -14 -50 -11
-19 -24 75 -31 172 -13 368 -71 368 -108 0 -9 -77 -12 -332 -12 -381 0 -465
-10 -620 -73 -63 -25 -63 -66 -1 -51 21 5 99 8 173 8 162 0 263 -21 268 -57 5
-33 -29 -37 -283 -36 -176 0 -248 5 -305 17 -41 9 -88 17 -104 17 -16 0 -55 6
-85 14 -31 8 -81 20 -111 26 -70 16 -175 47 -218 66 -47 20 -62 18 -62 -10 0
-33 63 -82 190 -145 58 -29 112 -56 120 -61 8 -4 38 -17 65 -28 88 -36 67 -45
-115 -46 -184 -2 -379 -20 -456 -42 -28 -8 -58 -14 -68 -14 -26 0 -143 -60
-168 -87 -17 -18 -19 -26 -10 -32 14 -8 115 3 178 20 52 14 246 6 337 -13 117
-26 122 -76 12 -108 -149 -44 -242 -53 -487 -47 -223 4 -298 12 -398 42 -75
22 -130 27 -130 12 0 -14 32 -45 65 -63 111 -59 144 -72 290 -112 156 -43 192
-51 261 -62 34 -5 74 -14 88 -20 15 -5 39 -10 54 -10 67 -1 64 -42 -5 -55 -19
-3 -142 -6 -273 -6 -193 1 -258 5 -351 21 -128 23 -220 43 -270 58 -19 5 -70
17 -114 27 -44 9 -125 28 -180 42 -55 13 -118 29 -140 33 -22 5 -58 13 -80 19
-22 5 -74 17 -115 25 -41 8 -111 23 -155 33 -117 26 -503 26 -590 0 -33 -10
-85 -25 -115 -34 -30 -8 -71 -21 -90 -28 -102 -37 -257 -63 -445 -74 -150 -9
-250 -25 -303 -47 -18 -8 -37 -14 -42 -14 -22 0 -192 -91 -247 -131 -141 -105
-224 -189 -540 -544 -162 -184 -185 -198 -348 -225 -27 -4 -79 -13 -115 -20
-71 -13 -224 -8 -293 10 -105 28 -186 55 -232 80 -60 31 -179 110 -183 122 -6
13 -32 9 -32 -4 0 -16 107 -118 162 -155 24 -15 80 -46 125 -68 46 -22 83 -43
83 -47 0 -33 -234 46 -291 98 -8 8 -19 14 -23 14 -28 0 -201 162 -283 263 -34
43 -59 65 -65 59 -13 -13 38 -290 75 -397 69 -204 151 -339 294 -482 51 -51
93 -98 93 -104 0 -20 -82 2 -178 48 -51 25 -134 76 -185 113 -51 38 -93 67
-95 65 -7 -6 21 -50 56 -90 92 -103 291 -221 432 -255 19 -5 55 -14 80 -20 71
-19 472 -16 535 4 28 9 65 16 82 16 18 0 50 6 70 14 21 8 67 23 103 35 134 42
156 52 345 155 26 14 134 91 188 135 86 68 277 262 277 280 0 17 -8 14 -74
-27 -82 -52 -193 -112 -206 -112 -19 0 -10 39 19 82 43 66 83 129 105 168 11
19 30 53 42 75 12 22 40 74 62 115 22 41 56 104 76 140 20 36 39 72 43 80 3 8
30 52 60 97 84 128 161 188 284 219 77 20 89 10 57 -42 -14 -22 -34 -59 -45
-84 -53 -116 -55 -124 -55 -252 0 -129 18 -226 62 -338 12 -30 24 -63 27 -74
3 -10 32 -70 65 -133 57 -113 67 -143 49 -143 -11 0 -52 51 -73 90 -7 14 -26
44 -41 68 -25 39 -35 58 -74 149 -7 18 -20 47 -28 65 -8 18 -22 61 -33 96 -10
35 -22 63 -27 63 -38 -2 9 -288 65 -402 6 -10 14 -27 19 -37 116 -236 220
-378 461 -627 44 -45 73 -86 83 -115 15 -44 40 -350 31 -375 -3 -7 -9 -72 -14
-146 -5 -74 -14 -169 -21 -213 -11 -71 -11 -81 6 -112 10 -18 32 -43 49 -56
88 -65 203 -220 248 -333 38 -96 48 -127 48 -158 0 -17 7 -57 15 -87 8 -30 15
-68 15 -85 0 -45 33 -90 84 -115 67 -32 73 -49 36 -113 -24 -42 -30 -66 -30
-110 0 -55 1 -58 33 -71 73 -31 349 -48 401 -24 14 6 28 19 31 28 8 25 -20
123 -52 183 -32 61 -110 177 -127 192 -33 27 -136 178 -165 240 -18 39 -38 79
-43 90 -22 39 -70 191 -77 240 -4 28 -13 66 -21 86 -7 20 -10 45 -6 55 8 21 1
27 81 -68 17 -20 53 -54 80 -77 147 -121 190 -163 245 -236 65 -86 84 -136 74
-189 -8 -47 5 -66 73 -101 64 -33 67 -43 44 -133 -14 -52 -6 -86 23 -106 29
-18 213 -37 302 -30 155 12 165 20 133 104 -24 62 -41 89 -122 187 -33 39 -69
93 -79 120 -11 26 -27 66 -36 88 -18 43 -142 172 -233 242 -106 83 -124 98
-161 136 -62 65 -64 140 -10 328 27 94 94 240 146 318 20 29 36 55 36 58 0 13
134 154 184 194 74 59 76 92 3 52 -102 -57 -256 -194 -313 -279 -19 -28 -46
-64 -60 -79 -14 -16 -35 -45 -46 -67 -11 -21 -23 -38 -27 -38 -5 0 -13 -10
-19 -22 -8 -17 -11 -18 -11 -7 -1 20 25 86 36 91 5 1 19 26 32 53 36 74 122
202 236 355 126 169 148 205 141 228 -4 10 -30 38 -59 63 -135 115 -156 125
-195 92 -21 -19 -142 -178 -142 -187 0 -3 -18 -35 -40 -70 -43 -71 -79 -146
-152 -316 -11 -25 -25 -58 -33 -75 -8 -16 -15 -41 -17 -54 -4 -30 -28 -41 -28
-13 0 49 85 283 150 417 86 173 139 255 223 340 34 34 46 40 81 40 33 0 52 -8
101 -46 33 -25 80 -58 105 -72 58 -34 293 -149 345 -169 109 -42 128 -50 235
-88 19 -6 51 -16 70 -20 63 -16 140 -39 151 -45 11 -7 90 -26 214 -51 39 -7
90 -18 115 -24 46 -11 240 -45 340 -60 199 -30 269 -72 470 -285 42 -44 155
-156 252 -248 98 -93 180 -177 183 -187 10 -32 -12 -57 -79 -89 -143 -67 -277
-76 -464 -32 l-94 22 -54 -26 c-74 -36 -101 -31 -132 25 -48 89 -73 120 -112
140 -79 40 -143 17 -202 -73 -47 -72 -51 -80 -103 -183 -40 -80 -44 -95 -34
-117 17 -38 49 -48 116 -36 94 18 344 6 428 -20 163 -51 190 -54 268 -38 40 9
97 25 127 37 67 27 140 49 200 61 25 5 65 13 90 19 25 5 76 9 113 10 83 0 144
28 204 93 60 65 86 121 81 171 -4 36 -41 128 -69 176 -5 8 -12 22 -15 30 -6
15 -54 119 -83 178 -9 18 -26 39 -38 47 -29 19 -124 55 -145 55 -10 0 -32 6
-50 14 -18 8 -58 21 -88 30 -268 77 -320 100 -292 128 9 9 20 8 47 -5 20 -9
44 -17 54 -17 10 0 53 -9 97 -21 43 -12 102 -27 129 -34 28 -7 64 -18 80 -23
32 -10 108 -32 203 -58 31 -8 71 -20 87 -26 17 -5 44 -13 60 -18 17 -5 55 -18
85 -30 30 -12 66 -25 80 -30 94 -31 247 -109 269 -136 34 -43 69 -155 76 -239
7 -96 -5 -191 -34 -265 -51 -130 -63 -173 -58 -207 3 -19 2 -46 -4 -60 -9 -24
-13 -25 -62 -21 -83 9 -115 0 -163 -47 -43 -41 -44 -43 -44 -105 0 -59 10
-105 46 -221 8 -26 14 -54 14 -63 0 -22 38 -96 49 -96 8 0 110 103 373 375
143 149 144 152 129 324 -7 79 -11 246 -9 401 2 250 1 268 -19 325 -56 156
-61 163 -216 261 -43 27 -113 74 -155 104 -42 31 -93 65 -112 77 -19 12 -44
30 -56 41 -11 11 -34 27 -50 35 -42 23 -106 85 -101 100 2 6 15 13 29 15 19 2
72 -31 224 -145 110 -81 216 -159 237 -173 20 -14 37 -28 37 -32 0 -5 6 -8 14
-8 8 0 16 -5 18 -11 2 -7 11 -10 19 -7 9 3 -62 82 -213 236 l-228 230 0 61 c0
41 10 94 29 154 52 162 61 217 61 357 0 153 -11 125 138 348 56 85 102 157
102 159 0 3 14 22 30 43 17 21 30 41 30 44 0 18 68 95 88 101 25 6 66 1 152
-21 56 -14 168 -18 208 -8 12 4 22 13 22 21 0 33 63 0 222 -116 182 -132 276
-218 303 -274 22 -48 88 -107 119 -107 46 0 160 31 188 51 16 12 38 42 51 67
12 26 32 51 45 57 18 8 22 18 22 52 0 30 -4 43 -14 43 -7 0 -58 87 -116 203
-56 111 -110 216 -120 232 -11 17 -31 53 -46 80 -14 28 -41 77 -60 110 -58
102 -74 139 -74 171 0 51 -30 105 -105 188 -80 88 -125 152 -125 175 0 19 46
172 66 219 17 39 18 82 3 82 -6 0 -29 -16 -51 -36 -56 -50 -72 -43 -78 33 -6
79 -20 95 -57 65 -54 -43 -104 -64 -136 -58 -27 6 -153 66 -244 117 -21 12
-49 25 -63 30 -14 4 -50 17 -80 29 -50 20 -107 36 -245 71 -50 12 -302 21
-360 13z"/>
</g>
</svg>
