<?xml version="1.0" standalone="no"?>
<!DOCTYPE svg PUBLIC "-//W3C//DTD SVG 20010904//EN"
 "http://www.w3.org/TR/2001/REC-SVG-20010904/DTD/svg10.dtd">
<svg version="1.0" xmlns="http://www.w3.org/2000/svg"
 width="300.000000pt" height="314.000000pt" viewBox="0 0 300.000000 314.000000"
 preserveAspectRatio="xMidYMid meet">
<metadata>
Created by potrace 1.10, written by Peter Selinger 2001-2011
</metadata>
<g transform="translate(0.000000,314.000000) scale(0.100000,-0.100000)"
fill="#000000" stroke="none">
<path d="M1100 3108 c0 -7 16 -40 35 -72 30 -53 106 -143 315 -371 144 -157
295 -327 298 -335 2 -5 -15 -28 -38 -51 -39 -41 -46 -59 -23 -66 6 -2 32 17
59 42 27 25 52 45 56 45 4 0 -20 -55 -52 -122 -65 -134 -47 -117 -218 -218
-66 -39 -75 -42 -97 -30 -31 16 -34 50 -5 50 35 0 100 39 120 73 21 33 27 77
11 77 -5 0 -40 14 -78 31 l-68 31 64 29 64 30 -28 29 c-15 15 -50 38 -78 50
-122 53 -247 -19 -247 -142 0 -49 25 -113 54 -137 20 -16 13 -33 -62 -154 -42
-68 -58 -104 -54 -119 5 -20 2 -21 -46 -16 l-50 5 -7 -95 c-19 -243 46 -439
189 -569 57 -53 189 -123 230 -123 25 0 84 29 119 58 28 24 21 -5 -15 -61 -18
-28 -52 -63 -77 -79 l-46 -29 -13 38 c-16 46 -42 83 -49 66 -21 -57 -114 -153
-148 -153 -6 0 -17 22 -24 50 -13 52 -31 76 -31 42 0 -38 -79 -98 -152 -116
l-26 -6 21 57 c13 36 21 83 21 124 1 56 -3 72 -27 108 -53 80 -70 165 -47 227
6 15 8 29 5 32 -9 10 -75 -30 -126 -76 -122 -109 -153 -295 -78 -470 l19 -44
-85 -158 -86 -158 96 -161 c93 -156 96 -162 89 -206 l-6 -45 96 0 c53 0 96 4
96 8 0 4 -13 29 -30 55 -16 26 -30 49 -30 51 0 2 -20 46 -44 97 -24 52 -52
115 -63 140 l-20 46 65 28 c68 30 186 136 217 194 15 31 18 31 360 110 151 35
330 57 351 43 9 -6 135 -238 201 -372 43 -87 106 -276 112 -335 l6 -60 93 -3
c56 -2 92 1 92 7 0 6 -14 30 -30 55 -37 54 -112 264 -187 521 -30 105 -57 200
-60 212 -4 17 3 31 28 54 l33 31 71 -10 c38 -6 96 -14 127 -17 l57 -6 51 -96
c27 -53 50 -97 50 -99 0 -1 -20 -10 -45 -20 -25 -9 -45 -19 -45 -22 0 -11 82
-111 96 -116 16 -6 89 100 99 144 4 17 -13 80 -47 180 l-53 153 -60 18 c-33
10 -87 25 -120 35 -70 20 -82 28 -68 46 11 15 63 136 63 147 0 5 -19 11 -42
15 -98 16 -207 67 -316 148 -66 48 -72 56 -72 89 0 20 3 38 6 42 3 3 34 -18
69 -47 101 -87 239 -155 343 -172 38 -6 41 -4 56 24 22 42 20 54 -9 88 -14 16
-33 45 -42 64 -34 72 -25 186 15 178 14 -3 16 -13 14 -64 -5 -79 10 -108 104
-205 63 -66 74 -82 74 -112 0 -19 6 -40 14 -46 21 -17 82 -25 90 -12 4 6 3 11
-3 11 -24 0 -51 45 -51 86 0 53 -21 114 -66 187 -30 49 -36 65 -31 98 5 39 47
132 71 157 7 7 52 17 101 23 48 6 93 16 100 22 16 17 55 74 55 81 0 3 -17 17
-39 30 -136 86 -335 88 -505 6 -91 -44 -231 -154 -294 -232 -57 -69 -72 -80
-72 -52 0 8 -7 47 -16 86 l-16 70 -47 -7 c-116 -17 -115 -17 -134 9 l-17 25
106 63 106 62 56 113 c31 62 59 113 62 113 4 0 16 -9 28 -21 23 -20 42 -18 42
5 0 7 -11 23 -25 36 -17 16 -25 34 -25 56 0 36 -37 74 -71 74 -11 0 -19 5 -19
10 0 6 3 10 8 10 11 0 92 80 92 91 0 26 -33 18 -67 -15 -21 -20 -41 -36 -44
-36 -8 0 -171 177 -419 455 -162 182 -189 209 -244 244 -55 34 -66 37 -66 19z
m356 -1425 c42 -24 60 -27 136 -28 l87 0 7 -63 c3 -34 2 -93 -4 -130 -21 -143
-81 -244 -184 -316 l-56 -38 -42 21 c-160 77 -250 232 -250 430 l0 68 69 6
c68 6 149 35 172 63 14 17 8 19 65 -13z"/>
<path d="M1069 2410 c-61 -32 -109 -106 -109 -168 0 -7 -7 -26 -15 -42 -18
-35 -49 -39 -97 -14 -55 28 -63 -15 -16 -87 66 -99 195 -81 242 33 42 101 57
128 71 128 8 0 21 13 29 28 8 16 32 41 52 57 l37 28 -32 29 c-25 23 -40 28
-79 28 -26 -1 -63 -9 -83 -20z"/>
<path d="M2615 1749 c-22 -4 -57 -8 -77 -8 -45 -1 -72 -34 -90 -109 -11 -49
-10 -53 26 -121 43 -83 67 -157 60 -186 -7 -29 31 -63 54 -48 14 8 17 28 18
106 1 85 4 101 29 143 18 30 28 63 29 90 1 49 -13 43 201 84 112 22 132 30
121 49 -8 13 -309 13 -371 0z m-46 -113 c19 -23 10 -71 -14 -71 -26 0 -44 47
-25 69 16 20 24 20 39 2z"/>
<path d="M356 1325 c-49 -17 -100 -67 -127 -122 -17 -35 -20 -56 -16 -120 3
-43 12 -106 22 -140 24 -85 15 -127 -39 -179 -31 -30 -60 -45 -107 -59 l-64
-18 34 -14 c44 -19 145 -27 215 -19 72 9 142 55 176 116 23 42 25 55 25 173 0
150 4 157 92 157 36 0 53 4 53 13 0 6 11 38 24 70 l24 58 -56 37 c-91 58 -179
75 -256 47z"/>
<path d="M1320 665 c-25 -7 -75 -21 -112 -30 -63 -17 -67 -19 -73 -52 -3 -19
-27 -74 -52 -123 l-46 -90 29 -22 c16 -13 58 -50 94 -83 36 -33 91 -82 123
-109 61 -52 64 -61 42 -118 -6 -16 1 -18 79 -18 52 0 86 4 86 10 0 45 -57 122
-214 287 l-68 73 57 51 c55 51 113 146 129 212 7 32 -3 33 -74 12z"/>
</g>
</svg>
