<?xml version="1.0" standalone="no"?>
<!DOCTYPE svg PUBLIC "-//W3C//DTD SVG 20010904//EN"
 "http://www.w3.org/TR/2001/REC-SVG-20010904/DTD/svg10.dtd">
<svg version="1.0" xmlns="http://www.w3.org/2000/svg"
 width="300.000000pt" height="247.000000pt" viewBox="0 0 300.000000 247.000000"
 preserveAspectRatio="xMidYMid meet">
<metadata>
Created by potrace 1.10, written by Peter Selinger 2001-2011
</metadata>
<g transform="translate(0.000000,247.000000) scale(0.100000,-0.100000)"
fill="#000000" stroke="none">
<path d="M94 2456 c-17 -8 -44 -31 -60 -52 l-29 -37 0 -1133 c0 -1128 0 -1133
21 -1160 38 -51 71 -69 129 -69 57 0 92 18 127 66 23 31 27 62 27 252 l1 157
1189 0 1189 0 4 -189 c3 -173 5 -192 24 -217 70 -94 183 -96 252 -6 l27 35 0
791 c0 619 -3 796 -13 813 -7 12 -28 34 -47 49 -47 36 -127 38 -174 5 -64 -46
-66 -53 -69 -398 l-4 -313 -1189 0 -1189 0 0 608 c-1 334 -3 629 -5 656 -5 55
-28 100 -65 127 -34 26 -107 33 -146 15z"/>
<path d="M693 2051 c-48 -12 -120 -58 -147 -94 -101 -134 -59 -329 87 -402 62
-30 178 -35 228 -9 47 24 108 84 132 128 24 48 29 159 9 218 -17 48 -83 115
-135 138 -50 22 -130 32 -174 21z"/>
<path d="M1167 1824 c-4 -4 -7 -148 -7 -321 l0 -313 690 0 690 0 0 214 c0 174
-3 221 -16 252 -27 63 -71 111 -132 141 l-57 28 -580 3 c-320 2 -584 0 -588
-4z"/>
<path d="M597 1421 c-32 -5 -56 -16 -75 -34 -24 -25 -27 -36 -31 -112 l-3 -85
271 0 271 0 0 120 0 120 -192 -1 c-106 -1 -214 -5 -241 -8z"/>
</g>
</svg>
