<?xml version="1.0" standalone="no"?>
<!DOCTYPE svg PUBLIC "-//W3C//DTD SVG 20010904//EN"
 "http://www.w3.org/TR/2001/REC-SVG-20010904/DTD/svg10.dtd">
<svg version="1.0" xmlns="http://www.w3.org/2000/svg"
 width="300.000000pt" height="293.000000pt" viewBox="0 0 300.000000 293.000000"
 preserveAspectRatio="xMidYMid meet">
<metadata>
Created by potrace 1.10, written by Peter Selinger 2001-2011
</metadata>
<g transform="translate(0.000000,293.000000) scale(0.050000,-0.050000)"
fill="#000000" stroke="none">
<path d="M3778 5756 c-1 -14 -4 -75 -6 -136 -8 -178 -61 -285 -332 -660 -140
-193 -145 -425 -16 -816 l62 -187 -78 -62 c-193 -154 -445 -459 -628 -760 -58
-96 -116 -175 -128 -175 -12 1 -121 28 -242 62 -145 40 -288 64 -420 71 l-200
11 -299 -112 c-356 -134 -341 -136 -270 38 62 153 76 279 31 296 -35 14 -72
-23 -73 -75 -1 -23 -9 -59 -18 -81 -9 -22 -12 55 -6 170 9 177 5 215 -22 237
-63 53 -82 17 -84 -158 -1 -93 -14 -218 -28 -279 l-27 -110 -25 73 c-35 100
-88 177 -122 177 -51 0 -54 -63 -6 -157 41 -80 48 -129 55 -357 9 -306 18
-318 161 -230 51 31 244 117 429 191 l336 134 89 -39 c195 -87 549 -311 549
-349 0 -21 -32 -165 -71 -320 -179 -711 -559 -1190 -1237 -1555 -136 -73 -315
-151 -772 -338 -235 -96 -267 -117 -241 -158 28 -45 909 140 1317 277 489 165
892 464 1247 926 123 160 261 278 417 355 50 25 142 80 205 122 132 90 165 93
503 48 276 -37 255 1 259 -463 4 -481 12 -500 173 -407 198 115 269 140 403
140 212 0 219 98 8 116 -61 5 -105 17 -99 27 24 39 261 185 337 207 58 17 83
36 87 67 11 70 -103 55 -276 -37 -134 -72 -143 -75 -85 -24 81 71 86 124 11
124 -41 0 -84 -31 -171 -122 -64 -68 -120 -119 -123 -115 -3 4 -15 127 -26
274 -27 349 -71 413 -417 614 -33 20 -24 36 94 180 72 88 160 203 196 256 36
54 73 89 83 79 9 -9 60 -79 112 -156 188 -273 313 -304 614 -155 288 143 468
194 596 166 110 -24 136 -16 136 38 0 41 -90 81 -181 81 -137 0 -1 162 208
248 88 36 96 98 13 108 -44 5 -122 -34 -314 -156 -66 -42 -79 -9 -39 96 84
218 3 256 -99 47 -101 -203 -360 -425 -554 -474 -69 -17 -85 13 -184 363 -160
560 -94 788 226 788 615 0 1035 961 533 1220 -356 183 -1085 -190 -1089 -556
-1 -146 -147 -284 -300 -284 l-90 1 -145 247 c-185 317 -186 335 -25 548 157
209 180 222 447 254 123 15 225 28 228 29 3 0 5 15 5 31 0 47 -77 66 -206 51
-130 -15 -134 -13 -134 57 0 37 40 92 143 195 193 194 163 311 -31 122 -190
-183 -185 -180 -229 -157 -34 18 -42 45 -47 147 -5 112 -11 126 -51 131 -27 4
-46 -4 -47 -20z"/>
</g>
</svg>
