<?xml version="1.0" standalone="no"?>
<!DOCTYPE svg PUBLIC "-//W3C//DTD SVG 20010904//EN"
 "http://www.w3.org/TR/2001/REC-SVG-20010904/DTD/svg10.dtd">
<svg version="1.0" xmlns="http://www.w3.org/2000/svg"
 width="300.000000pt" height="236.000000pt" viewBox="0 0 300.000000 236.000000"
 preserveAspectRatio="xMidYMid meet">
<metadata>
Created by potrace 1.10, written by Peter Selinger 2001-2011
</metadata>
<g transform="translate(0.000000,236.000000) scale(0.050000,-0.050000)"
fill="#000000" stroke="none">
<path d="M2877 4562 c-239 -264 -398 -630 -447 -1032 l-25 -200 138 -145 c170
-180 297 -351 401 -540 95 -173 80 -169 146 -40 88 169 214 346 367 514 164
181 167 194 112 505 -63 362 -193 654 -398 900 -154 183 -162 184 -294 38z"/>
<path d="M1150 3560 c48 -95 113 -330 200 -720 177 -803 635 -1255 1401 -1380
277 -46 299 -27 282 239 -65 969 -889 1862 -1800 1952 l-136 14 53 -105z"/>
<path d="M4710 3640 c-604 -91 -1227 -586 -1523 -1211 l-70 -146 44 -177 c33
-128 45 -240 47 -411 1 -166 9 -235 26 -235 154 0 562 143 745 261 414 267
580 560 749 1319 74 331 120 486 164 549 53 76 29 83 -182 51z"/>
<path d="M785 2009 c-1354 -400 -706 -1540 1075 -1892 682 -135 2074 -96 2630
74 742 226 1238 534 1405 872 55 112 65 421 16 515 -84 163 -389 358 -691 441
-273 75 -314 48 -70 -48 1773 -690 -378 -1881 -2895 -1603 -517 57 -1356 277
-1471 387 -15 14 -38 25 -51 25 -40 0 -281 191 -380 301 -280 311 -114 624
460 868 284 121 270 148 -28 60z"/>
<path d="M4491 1941 c-12 -20 9 -37 131 -107 861 -491 -922 -973 -2612 -705
-793 125 -1093 478 -613 720 89 45 67 62 -29 22 -413 -173 -379 -564 70 -816
830 -465 2506 -437 3268 54 347 224 375 540 64 735 -98 61 -266 119 -279 97z"/>
</g>
</svg>
