<?xml version="1.0" standalone="no"?>
<!DOCTYPE svg PUBLIC "-//W3C//DTD SVG 20010904//EN"
 "http://www.w3.org/TR/2001/REC-SVG-20010904/DTD/svg10.dtd">
<svg version="1.0" xmlns="http://www.w3.org/2000/svg"
 width="300.000000pt" height="152.000000pt" viewBox="0 0 300.000000 152.000000"
 preserveAspectRatio="xMidYMid meet">
<metadata>
Created by potrace 1.10, written by Peter Selinger 2001-2011
</metadata>
<g transform="translate(0.000000,152.000000) scale(0.100000,-0.100000)"
fill="#000000" stroke="none">
<path d="M1450 1480 c-298 -17 -462 -52 -676 -142 -41 -17 -73 -33 -70 -35 2
-2 37 6 77 17 41 11 133 32 204 46 119 24 158 27 460 31 588 10 877 -28 1160
-150 341 -146 425 -377 215 -587 -66 -66 -168 -136 -256 -177 -30 -14 -53 -27
-51 -29 7 -7 87 24 186 74 75 37 113 63 173 123 99 97 122 145 123 254 0 66
-5 90 -27 137 -97 207 -417 365 -858 424 -138 18 -473 25 -660 14z"/>
<path d="M522 1329 c-34 -11 -88 -35 -120 -54 -195 -114 -271 -367 -161 -539
16 -25 25 -46 22 -46 -4 0 -25 17 -46 38 l-39 37 16 -32 c70 -139 310 -230
786 -300 147 -22 746 -25 915 -5 524 61 788 157 907 330 44 64 50 149 15 219
-68 132 -289 249 -565 298 -44 7 -94 21 -111 29 -70 37 -182 0 -273 -89 l-47
-46 -251 -3 -251 -2 -19 30 c-10 17 -16 34 -12 37 4 3 70 14 147 24 177 23
154 34 -92 42 -375 12 -701 -70 -829 -209 -66 -71 -89 -130 -89 -223 1 -98 29
-160 102 -225 l48 -43 -43 7 c-150 23 -174 36 -217 123 -28 54 -30 66 -30 168
0 105 2 113 33 176 42 83 111 152 226 223 97 61 91 71 -22 35z m1625 -85 c33
-42 48 -109 47 -214 0 -175 -39 -267 -134 -319 -90 -50 -226 -23 -243 49 -5
19 -22 79 -39 133 l-30 97 33 55 c43 71 140 166 209 205 69 38 123 36 157 -6z
m-961 0 c43 -21 98 -95 136 -185 l29 -70 -31 -81 c-21 -54 -34 -109 -38 -162
l-7 -81 -37 -18 c-23 -11 -60 -18 -94 -18 -119 0 -212 86 -221 204 -12 140 86
365 178 410 42 21 43 21 85 1z m1113 -29 c244 -83 441 -228 441 -324 0 -59
-80 -139 -183 -185 l-58 -25 32 44 c20 27 33 60 36 87 9 87 -86 181 -250 244
l-76 29 -7 45 c-4 25 -12 60 -20 78 -16 40 -12 40 85 7z m-1348 -83 c-17 -32
-30 -42 -79 -60 -32 -12 -86 -40 -120 -61 -185 -120 -191 -319 -12 -409 l65
-33 -50 6 c-97 11 -111 15 -146 44 -47 39 -91 130 -97 197 -12 148 96 251 343
326 119 36 119 36 96 -10z m648 -36 c78 -41 171 -247 171 -380 0 -62 -23 -130
-52 -154 -10 -8 -69 -14 -166 -19 -122 -5 -154 -3 -168 8 -29 24 -64 111 -64
159 0 111 81 303 153 366 45 37 80 43 126 20z m131 -46 c0 -5 -4 -10 -10 -10
-5 0 -10 5 -10 10 0 6 5 10 10 10 6 0 10 -4 10 -10z m575 -69 c93 -29 148 -57
188 -96 33 -32 37 -42 37 -85 0 -70 -46 -129 -115 -147 -79 -21 -224 -51 -297
-63 -99 -15 -332 -39 -337 -34 -3 2 3 20 12 39 9 20 17 42 17 50 0 23 16 26
60 10 126 -44 276 20 330 141 21 48 40 131 40 174 0 17 1 30 3 30 1 0 29 -9
62 -19z m-1424 -63 c-25 -179 71 -313 239 -333 42 -5 70 -2 113 13 l58 19 21
-40 20 -40 -173 7 c-293 12 -423 57 -480 168 -24 47 -24 79 0 126 23 44 62 82
111 108 38 21 93 43 98 39 1 -1 -2 -31 -7 -67z"/>
<path d="M116 1073 c-92 -115 -129 -229 -109 -328 18 -86 41 -124 122 -206
115 -114 280 -191 547 -254 191 -45 330 -59 594 -59 263 -1 403 12 637 60 130
26 345 85 397 110 l31 14 -35 -5 c-837 -112 -1632 -56 -2015 144 -91 47 -177
132 -199 196 -34 101 -8 237 67 348 36 53 9 39 -37 -20z"/>
<path d="M2745 464 c-257 -139 -596 -248 -961 -306 -122 -20 -176 -23 -449
-23 -251 0 -333 3 -430 18 -157 24 -312 60 -427 98 -109 36 -302 126 -353 164
-55 43 -41 13 18 -37 145 -123 335 -218 567 -283 193 -54 367 -75 626 -76 289
0 458 22 702 91 214 61 352 115 520 207 135 73 314 197 276 192 -5 -1 -45 -21
-89 -45z"/>
</g>
</svg>
