<?xml version="1.0" standalone="no"?>
<!DOCTYPE svg PUBLIC "-//W3C//DTD SVG 20010904//EN"
 "http://www.w3.org/TR/2001/REC-SVG-20010904/DTD/svg10.dtd">
<svg version="1.0" xmlns="http://www.w3.org/2000/svg"
 width="248.000000pt" height="300.000000pt" viewBox="0 0 248.000000 300.000000"
 preserveAspectRatio="xMidYMid meet">
<metadata>
Created by potrace 1.10, written by Peter Selinger 2001-2011
</metadata>
<g transform="translate(0.000000,300.000000) scale(0.100000,-0.100000)"
fill="#000000" stroke="none">
<path d="M394 2903 c4 -32 19 -85 35 -119 53 -113 141 -175 326 -229 133 -38
192 -62 251 -101 184 -122 242 -326 141 -495 -57 -96 -201 -167 -318 -156
-116 10 -228 87 -280 192 -20 42 -24 64 -24 145 0 80 4 103 24 144 32 64 73
111 127 142 47 27 56 44 25 44 -20 0 -120 38 -136 52 -20 17 -45 6 -84 -38
-176 -201 -174 -487 5 -691 l44 -52 -22 -16 c-13 -9 -45 -30 -73 -48 -133 -85
-274 -261 -333 -414 -64 -164 -82 -377 -48 -557 36 -186 136 -440 206 -519 29
-34 85 -65 96 -54 3 3 -2 19 -10 36 -9 16 -16 39 -16 50 0 22 35 51 61 51 29
0 66 -38 73 -74 8 -41 19 -50 50 -42 l23 6 -25 50 c-30 62 -25 96 18 105 50
11 82 -12 95 -70 9 -41 14 -49 30 -47 36 6 40 20 17 61 -39 69 -26 116 33 114
45 -1 75 -27 75 -65 0 -37 14 -36 30 2 18 43 9 82 -49 211 -69 157 -86 224
-71 294 16 79 64 141 153 202 228 155 610 148 826 -15 70 -53 117 -121 131
-188 14 -66 -1 -128 -73 -293 -56 -131 -65 -169 -47 -211 14 -33 30 -31 30 4
0 45 69 78 108 50 29 -20 28 -57 -3 -110 l-25 -42 30 -10 c34 -12 35 -11 45
43 9 50 18 62 56 70 35 8 79 -16 79 -44 0 -9 -11 -39 -24 -64 l-23 -47 24 -6
c30 -8 36 -1 51 52 15 53 59 76 101 53 32 -18 37 -48 16 -89 -20 -39 -14 -46
25 -30 61 25 127 130 190 302 119 323 124 594 16 845 -65 153 -172 284 -312
384 l-74 53 44 38 c184 158 221 460 81 663 -19 28 -48 64 -64 79 l-29 28 -77
-31 c-43 -17 -86 -31 -96 -31 -31 0 -22 -18 19 -39 111 -57 186 -215 162 -342
-27 -140 -112 -236 -245 -274 -109 -32 -240 2 -328 84 -59 55 -82 97 -96 178
-25 138 47 287 183 377 56 37 126 65 281 111 145 44 214 86 266 162 38 54 69
144 69 195 l0 40 -43 -44 c-62 -64 -132 -93 -278 -117 -205 -34 -224 -34 -348
-12 -145 27 -276 27 -428 0 -128 -22 -149 -21 -351 12 -145 23 -215 53 -272
115 -22 24 -43 44 -47 44 -3 0 -3 -26 1 -57z m1016 -1183 c5 0 10 -6 10 -13 0
-14 -134 -179 -144 -178 -3 0 -32 31 -63 68 -31 38 -63 76 -71 85 -13 16 -7
24 59 90 l74 73 62 -62 c35 -35 67 -63 73 -63z"/>
<path d="M825 2263 c-35 -10 -63 -34 -80 -70 -63 -132 123 -243 211 -127 59
77 15 184 -82 198 -16 2 -38 2 -49 -1z"/>
<path d="M1643 2255 c-87 -38 -97 -167 -16 -220 58 -38 147 -15 179 46 32 63
3 148 -61 175 -42 17 -61 17 -102 -1z"/>
<path d="M670 330 c0 -11 6 -34 14 -49 16 -29 131 -141 146 -141 5 0 -7 23
-26 51 -19 28 -37 63 -40 78 -16 71 -19 76 -57 79 -32 3 -37 0 -37 -18z"/>
<path d="M1740 324 c-6 -14 -10 -32 -10 -40 0 -19 -26 -70 -57 -111 -36 -49
-14 -40 56 23 64 58 91 98 91 134 0 16 -6 20 -35 20 -29 0 -37 -5 -45 -26z"/>
<path d="M524 285 c-17 -12 -17 -14 1 -54 16 -37 131 -158 141 -148 2 2 -12
32 -31 68 -19 35 -35 76 -35 90 0 41 -45 67 -76 44z"/>
<path d="M1920 287 c-15 -8 -27 -27 -34 -57 -7 -25 -24 -67 -39 -94 -15 -27
-26 -51 -23 -53 2 -2 29 20 60 48 51 47 96 111 96 138 0 20 -35 30 -60 18z"/>
<path d="M363 234 c-36 -15 15 -97 96 -155 68 -49 80 -49 41 -1 -16 21 -40 65
-53 97 -19 49 -28 60 -48 62 -13 1 -30 -1 -36 -3z"/>
<path d="M2063 228 c-5 -7 -15 -32 -22 -55 -6 -23 -27 -63 -46 -88 -19 -25
-31 -45 -26 -45 5 0 33 18 62 40 59 44 109 104 109 131 0 28 -59 41 -77 17z"/>
</g>
</svg>
