<?xml version="1.0" standalone="no"?>
<!DOCTYPE svg PUBLIC "-//W3C//DTD SVG 20010904//EN"
 "http://www.w3.org/TR/2001/REC-SVG-20010904/DTD/svg10.dtd">
<svg version="1.0" xmlns="http://www.w3.org/2000/svg"
 width="300.000000pt" height="300.000000pt" viewBox="0 0 300.000000 300.000000"
 preserveAspectRatio="xMidYMid meet">
<metadata>
Created by potrace 1.10, written by Peter Selinger 2001-2011
</metadata>
<g transform="translate(0.000000,300.000000) scale(0.100000,-0.100000)"
fill="#000000" stroke="none">
<path d="M2359 2963 c0 -4 -2 -28 -4 -53 -2 -25 -6 -101 -10 -169 -7 -130 -18
-182 -36 -164 -6 6 -14 35 -19 64 -5 30 -13 70 -19 89 -5 19 -18 64 -28 100
-26 96 -28 48 -7 -175 9 -105 14 -203 10 -218 -14 -59 -122 -148 -161 -133
-15 6 -16 18 -10 140 6 115 5 138 -9 157 -9 13 -16 19 -16 14 0 -6 -7 -53 -16
-105 -8 -52 -18 -112 -21 -132 -10 -66 -97 -148 -156 -148 -37 0 -47 19 -48
90 -1 73 -9 112 -26 117 -7 3 -12 -25 -15 -79 -4 -64 -16 -116 -51 -222 -26
-76 -47 -155 -47 -176 0 -33 3 -37 38 -49 20 -8 43 -16 50 -18 9 -4 12 12 13
58 0 35 6 80 13 99 15 41 67 80 107 80 28 0 96 19 154 44 17 7 71 30 121 51
50 21 115 54 145 74 71 48 94 103 110 267 12 136 5 241 -22 331 -17 55 -38 89
-40 66z"/>
<path d="M560 2903 c0 -105 22 -280 42 -330 23 -60 76 -113 163 -164 86 -50
133 -67 253 -90 59 -11 127 -27 152 -35 140 -47 219 -141 245 -294 l11 -65 62
-2 c62 -3 62 -2 50 20 -8 13 -13 61 -13 122 -1 169 -64 439 -97 419 -5 -3 -9
-54 -8 -112 1 -59 1 -113 1 -120 -1 -8 -18 0 -43 21 -24 18 -64 46 -90 60 -92
53 -130 127 -141 274 -9 117 -28 133 -41 36 -4 -24 -17 -67 -30 -97 -37 -82
-71 -93 -159 -51 -84 39 -97 56 -97 125 0 32 5 81 12 109 11 48 10 55 -17 111
-16 33 -32 60 -37 60 -4 0 -8 -33 -8 -74 0 -87 -25 -208 -49 -238 l-18 -21
-20 22 c-11 12 -28 52 -37 89 -38 156 -71 272 -78 272 -4 0 -8 -21 -8 -47z"/>
<path d="M914 2103 c3 -10 12 -43 20 -73 25 -99 58 -184 83 -218 23 -30 88
-87 141 -122 l23 -15 -34 -70 c-56 -113 -82 -230 -99 -455 -16 -214 -8 -266
59 -358 98 -134 321 -303 553 -419 258 -128 307 -168 338 -278 l19 -70 22 35
c63 103 92 265 72 412 -13 100 -30 170 -77 313 l-29 90 -132 131 c-127 125
-133 133 -133 172 0 54 7 70 41 87 60 32 163 9 267 -58 l71 -46 78 28 c62 22
83 34 101 61 12 18 22 42 22 53 0 13 -56 75 -155 172 -108 106 -155 158 -155
173 0 45 -177 185 -265 210 -22 6 -84 16 -137 23 -93 11 -156 6 -235 -17 -17
-5 -28 4 -61 48 -76 103 -160 157 -303 192 -85 21 -102 21 -95 -1z"/>
<path d="M2065 2048 c-85 -28 -156 -78 -195 -137 -17 -24 -30 -47 -30 -51 0
-8 115 -99 135 -106 24 -10 81 72 103 148 25 91 36 158 25 157 -4 0 -21 -5
-38 -11z"/>
</g>
</svg>
