<?xml version="1.0" standalone="no"?>
<!DOCTYPE svg PUBLIC "-//W3C//DTD SVG 20010904//EN"
 "http://www.w3.org/TR/2001/REC-SVG-20010904/DTD/svg10.dtd">
<svg version="1.0" xmlns="http://www.w3.org/2000/svg"
 width="900.000000pt" height="900.000000pt" viewBox="0 0 900.000000 900.000000"
 preserveAspectRatio="xMidYMid meet">
<metadata>
Created by potrace 1.10, written by Peter Selinger 2001-2011
</metadata>
<g transform="translate(0.000000,900.000000) scale(0.100000,-0.100000)"
fill="#000000" stroke="none">
<path d="M4472 8948 c-7 -7 -12 -17 -12 -24 0 -10 -29 -83 -75 -189 -40 -94
-243 -594 -285 -705 -9 -25 -26 -67 -38 -95 -19 -47 -57 -143 -159 -405 -37
-96 -80 -201 -122 -305 -5 -11 -15 -38 -24 -60 -22 -58 -77 -195 -92 -230 -7
-16 -26 -64 -43 -105 -16 -41 -50 -124 -75 -185 -25 -60 -66 -162 -92 -225
-25 -63 -52 -130 -60 -148 -8 -18 -15 -39 -15 -46 0 -7 -8 -20 -18 -29 -17
-16 -152 -17 -1682 -19 -1118 -2 -1664 -6 -1667 -13 -2 -6 14 -33 34 -60 37
-49 261 -330 295 -370 9 -11 39 -47 65 -81 26 -33 102 -127 168 -209 66 -81
131 -162 145 -179 13 -17 94 -118 180 -225 85 -106 164 -205 175 -220 26 -35
317 -398 377 -470 26 -31 73 -90 105 -131 31 -41 71 -91 88 -111 16 -19 57
-70 90 -113 59 -77 311 -391 430 -537 34 -41 64 -79 68 -85 4 -7 -5 -43 -19
-80 -14 -38 -29 -82 -34 -99 -9 -33 -27 -86 -43 -125 -5 -14 -13 -38 -18 -55
-4 -16 -37 -115 -74 -220 -36 -104 -70 -203 -75 -220 -4 -16 -24 -77 -45 -135
-20 -58 -40 -118 -44 -135 -5 -16 -68 -208 -140 -425 -72 -217 -158 -478 -191
-580 -34 -102 -67 -201 -74 -220 -22 -58 -37 -103 -46 -135 -5 -16 -14 -46
-21 -65 -6 -19 -17 -51 -24 -70 -7 -19 -18 -51 -24 -70 -7 -19 -17 -48 -21
-65 -5 -16 -25 -75 -45 -130 -20 -55 -40 -113 -44 -130 -8 -29 -63 -191 -80
-237 -26 -70 -43 -139 -37 -153 6 -18 7 -18 126 54 19 11 44 25 55 31 11 6 34
19 50 30 17 11 37 23 45 27 8 4 116 67 239 140 122 73 225 133 227 133 2 0 34
18 70 41 37 22 77 45 88 50 12 6 30 15 41 22 11 7 63 37 115 67 52 30 104 60
115 67 11 7 26 15 34 19 17 9 508 299 531 314 8 6 22 13 30 17 8 4 93 53 188
110 96 57 175 103 177 103 2 0 47 26 102 58 54 32 105 62 113 66 8 4 24 12 35
19 11 7 58 34 105 60 144 81 173 99 218 128 24 16 45 29 46 29 2 0 93 53 202
118 110 65 219 130 244 144 25 14 71 39 102 57 47 27 61 30 77 21 12 -6 111
-65 222 -130 111 -66 203 -120 204 -120 2 0 72 -41 154 -90 83 -50 153 -90
156 -90 2 0 23 -13 47 -29 24 -15 68 -42 98 -59 30 -16 113 -64 184 -106 70
-42 130 -76 133 -76 3 0 39 -20 80 -45 40 -25 76 -45 78 -45 2 0 138 -80 302
-178 164 -98 305 -181 313 -185 8 -4 29 -16 45 -27 17 -11 37 -23 45 -27 8 -4
59 -33 113 -65 55 -32 101 -58 103 -58 3 0 72 -40 155 -90 83 -49 152 -90 155
-90 2 0 38 -20 78 -45 41 -25 77 -45 80 -45 3 0 22 -12 43 -26 21 -14 47 -30
58 -35 11 -5 27 -13 35 -19 8 -5 111 -66 228 -136 228 -135 251 -142 220 -67
-9 21 -78 227 -153 458 -76 231 -156 472 -177 535 -22 63 -43 129 -48 145 -10
37 -36 110 -74 213 -8 20 -30 87 -50 147 -19 61 -40 124 -45 140 -6 17 -26 77
-46 135 -44 135 -55 167 -70 210 -24 70 -36 106 -56 170 -12 36 -27 81 -34
100 -7 19 -22 64 -34 100 -11 36 -25 79 -31 95 -5 17 -51 154 -100 305 -113
344 -170 519 -176 535 -3 7 23 48 57 91 35 44 106 133 158 199 52 66 98 122
101 125 3 3 33 41 67 85 33 44 72 94 86 110 14 17 63 77 109 135 46 58 95 118
108 134 14 16 37 43 51 60 27 32 179 225 284 360 88 114 170 216 400 496 41
49 333 420 370 469 35 46 335 415 398 489 21 24 36 49 34 56 -3 8 -437 12
-1672 14 -1167 1 -1672 5 -1681 13 -7 6 -25 43 -40 82 -15 40 -34 90 -44 112
-9 22 -24 58 -32 80 -9 22 -34 85 -56 140 -22 55 -57 143 -77 195 -20 52 -42
111 -50 130 -32 84 -151 377 -180 445 -7 17 -28 66 -45 110 -17 44 -37 94 -45
110 -7 17 -20 50 -30 75 -10 25 -21 54 -26 65 -4 11 -18 45 -30 75 -11 30 -41
105 -66 165 -52 128 -99 245 -118 295 -34 89 -110 282 -137 350 -16 41 -37 93
-45 115 -8 22 -21 54 -28 70 -7 17 -20 50 -30 75 -31 81 -40 91 -63 68z"/>
</g>
</svg>
