<?xml version="1.0" standalone="no"?>
<!DOCTYPE svg PUBLIC "-//W3C//DTD SVG 20010904//EN"
 "http://www.w3.org/TR/2001/REC-SVG-20010904/DTD/svg10.dtd">
<svg version="1.0" xmlns="http://www.w3.org/2000/svg"
 width="155.000000pt" height="300.000000pt" viewBox="0 0 155.000000 300.000000"
 preserveAspectRatio="xMidYMid meet">
<metadata>
Created by potrace 1.10, written by Peter Selinger 2001-2011
</metadata>
<g transform="translate(0.000000,300.000000) scale(0.100000,-0.100000)"
fill="#000000" stroke="none">
<path d="M1120 2971 c0 -39 -34 -188 -48 -209 l-17 -26 -6 29 c-4 17 -7 46 -8
66 -1 35 -45 99 -58 85 -4 -3 3 -16 14 -29 27 -29 33 -67 23 -140 -7 -44 -16
-67 -36 -88 -15 -16 -31 -29 -36 -29 -4 0 -8 34 -8 75 0 49 -4 75 -11 75 -6 0
-9 -9 -6 -20 3 -11 1 -35 -4 -53 -4 -17 -11 -44 -14 -59 -9 -45 -22 -32 -23
25 -1 51 -36 147 -54 147 -11 0 -10 -11 7 -60 19 -53 20 -150 3 -150 -7 0 -46
18 -85 39 -40 21 -73 35 -73 31 0 -14 79 -80 115 -94 47 -20 45 -46 -7 -90
-29 -25 -51 -36 -73 -36 -41 0 -45 5 -33 47 11 39 5 51 -15 34 -36 -29 -62 71
-41 154 10 37 11 65 5 92 l-9 38 -1 -35 c-2 -46 -27 -150 -40 -163 -5 -5 -17
-7 -25 -4 -34 13 -47 103 -25 165 18 53 3 60 -20 9 -16 -35 -21 -63 -19 -100
2 -41 0 -52 -12 -52 -11 0 -15 11 -15 43 0 47 -13 50 -33 8 l-14 -28 -25 24
c-14 12 -32 38 -39 56 -17 38 -27 42 -18 7 4 -15 2 -25 -5 -25 -17 0 -37 40
-52 105 -8 36 -15 51 -17 38 -6 -39 27 -145 51 -165 12 -11 42 -32 67 -46 25
-14 61 -38 80 -54 19 -15 43 -28 52 -28 10 0 41 -22 68 -48 40 -38 50 -55 50
-80 l0 -33 -30 16 c-43 22 -63 20 -54 -7 4 -13 13 -32 20 -43 18 -25 17 -55
-1 -79 -8 -11 -15 -25 -15 -32 0 -7 -12 -25 -26 -41 -14 -15 -23 -34 -21 -43
11 -39 11 -45 -2 -42 -7 1 -24 -4 -37 -13 -13 -8 -30 -15 -39 -15 -8 0 -15 -9
-15 -19 0 -11 -5 -23 -11 -26 -5 -4 -7 -19 -4 -35 5 -22 2 -28 -13 -32 -15 -4
-18 -12 -15 -31 4 -19 0 -27 -16 -32 -21 -6 -29 -25 -11 -25 17 0 11 -49 -12
-102 l-22 -51 27 -21 c32 -26 33 -30 6 -57 -27 -27 -21 -41 30 -59 41 -15 42
-15 35 -53 -4 -28 -2 -43 10 -56 14 -16 15 -22 2 -52 -10 -25 -12 -48 -5 -88
4 -30 6 -57 4 -61 -2 -4 -7 -25 -9 -47 -3 -22 -10 -52 -15 -66 -7 -17 -7 -28
-1 -32 16 -10 12 -42 -10 -77 -20 -34 -27 -78 -11 -78 5 0 7 -45 4 -100 -4
-90 -3 -101 14 -106 10 -4 30 -21 45 -38 18 -20 28 -26 28 -16 0 8 5 32 11 52
18 65 30 44 29 -49 -2 -124 -1 -135 9 -129 9 6 21 -40 21 -82 0 -13 9 -40 21
-59 12 -18 27 -57 34 -85 13 -48 13 -53 -12 -102 -14 -28 -29 -53 -32 -56 -4
-3 -17 -19 -29 -37 -19 -27 -30 -32 -80 -38 -72 -8 -162 -34 -162 -47 0 -5 -9
-21 -20 -35 -11 -14 -20 -41 -20 -59 l0 -34 580 0 c356 0 580 4 580 9 0 6 -5
13 -11 16 -6 4 -7 19 -4 36 4 18 3 29 -4 29 -7 0 -16 11 -21 25 -12 31 -54 50
-130 59 -108 13 -200 106 -200 201 0 20 -4 44 -9 54 -11 20 1 132 19 176 24
58 29 153 8 166 -9 6 -9 11 1 23 7 8 10 19 7 24 -10 17 -14 162 -4 168 5 4 7
20 4 38 -3 17 -8 54 -12 83 -5 49 -4 53 23 67 15 9 42 27 58 41 l30 25 -2 184
c-2 115 1 187 7 191 15 9 12 137 -4 176 -7 19 -17 61 -21 93 -7 62 -22 106
-37 106 -16 0 -8 30 12 42 29 19 24 28 -15 28 -31 0 -35 3 -41 35 -4 24 -17
44 -40 61 -20 15 -31 31 -27 40 4 10 -4 14 -31 14 -20 0 -36 1 -36 3 0 1 4 17
9 35 11 37 3 41 -23 11 l-18 -21 -19 31 c-19 32 -26 101 -11 101 23 0 43 102
23 114 -5 3 -20 -3 -34 -14 -32 -26 -40 -25 -25 1 7 11 38 36 69 54 33 20 93
76 147 135 99 110 97 105 106 253 2 37 0 67 -5 67 -5 0 -9 -4 -9 -9z m-139
-1359 c4 -28 19 -72 33 -97 35 -58 45 -134 22 -166 -11 -17 -16 -46 -16 -103
0 -56 -3 -77 -11 -69 -11 11 -12 36 -9 152 2 41 -2 76 -7 80 -16 10 -25 49
-15 66 9 17 -12 120 -29 141 -11 14 1 56 15 51 6 -2 14 -27 17 -55z m-229
-640 c13 -33 18 -75 18 -139 0 -51 4 -93 9 -93 10 0 34 -61 26 -68 -2 -2 2
-17 10 -33 8 -15 15 -44 15 -64 0 -19 5 -35 10 -35 6 0 10 -15 11 -32 l1 -33
10 33 c15 44 34 40 41 -9 14 -104 -143 -249 -204 -188 -15 15 -19 33 -19 95 0
41 5 84 11 95 17 32 19 207 3 254 -16 48 -18 75 -4 75 6 0 10 12 9 28 -1 31
11 141 17 161 6 19 15 7 36 -47z"/>
</g>
</svg>
