<?xml version="1.0" standalone="no"?>
<!DOCTYPE svg PUBLIC "-//W3C//DTD SVG 20010904//EN"
 "http://www.w3.org/TR/2001/REC-SVG-20010904/DTD/svg10.dtd">
<svg version="1.0" xmlns="http://www.w3.org/2000/svg"
 width="300.000000pt" height="399.000000pt" viewBox="0 0 300.000000 399.000000"
 preserveAspectRatio="xMidYMid meet">
<metadata>
Created by potrace 1.10, written by Peter Selinger 2001-2011
</metadata>
<g transform="translate(0.000000,399.000000) scale(0.100000,-0.100000)"
fill="#000000" stroke="none">
<path d="M1447 3862 l-57 -58 0 -94 c1 -81 5 -104 29 -160 l28 -65 78 0 79 0
22 55 c19 45 23 74 24 160 l0 106 -59 57 c-32 31 -65 57 -72 57 -8 0 -40 -26
-72 -58z"/>
<path d="M1975 3821 c-22 -10 -54 -24 -71 -30 -27 -11 -37 -26 -73 -115 -37
-90 -42 -110 -39 -167 l3 -64 45 -22 c25 -12 58 -25 73 -28 44 -11 87 41 143
174 l47 111 -29 73 c-26 65 -39 86 -54 87 -3 0 -23 -8 -45 -19z"/>
<path d="M980 3768 c-13 -35 -27 -67 -32 -72 -29 -33 30 -187 100 -259 52 -54
60 -55 145 -17 43 19 47 24 48 58 2 79 -3 155 -10 171 -53 113 -52 111 -135
147 -44 19 -83 34 -86 34 -4 0 -18 -28 -30 -62z"/>
<path d="M560 3464 l0 -87 78 -79 c72 -74 151 -128 187 -128 9 0 22 6 28 13 7
7 29 32 50 54 l39 41 -21 45 c-12 25 -21 51 -21 57 0 6 -35 46 -79 90 l-78 80
-92 0 -91 0 0 -86z"/>
<path d="M2209 3463 c-77 -79 -119 -142 -119 -176 0 -18 93 -107 112 -107 43
0 118 47 196 123 l82 82 0 82 0 83 -93 0 -92 0 -86 -87z"/>
<path d="M1375 3336 c-5 -2 -37 -12 -70 -21 -236 -69 -428 -261 -506 -505 -20
-64 -24 -96 -24 -210 0 -159 14 -218 84 -355 59 -116 191 -253 291 -302 161
-78 228 -95 370 -95 174 0 309 47 457 158 127 95 227 248 269 409 25 94 25
275 0 365 -67 246 -238 432 -478 522 -77 29 -93 32 -233 34 -82 2 -154 2 -160
0z"/>
<path d="M353 3149 c-49 -21 -73 -36 -73 -47 0 -24 45 -132 61 -147 8 -7 53
-29 100 -49 77 -33 93 -37 159 -34 l73 3 29 69 29 69 -33 34 c-18 19 -46 41
-63 48 -39 18 -203 85 -207 85 -2 0 -36 -14 -75 -31z"/>
<path d="M2513 3157 c-29 -13 -55 -26 -59 -30 -4 -4 -14 -7 -23 -7 -9 0 -34
-18 -56 -38 -72 -69 -70 -63 -39 -142 l27 -70 87 0 c56 0 101 6 126 16 96 38
105 45 126 92 33 77 48 126 40 133 -10 9 -159 69 -169 69 -4 -1 -31 -11 -60
-23z"/>
<path d="M253 2668 c-35 -35 -63 -68 -63 -74 0 -5 28 -38 63 -72 l63 -62 79 0
c63 0 93 5 140 26 33 14 68 28 78 31 14 4 17 18 17 82 l0 77 -47 24 c-40 20
-67 24 -158 28 l-110 4 -62 -64z"/>
<path d="M2540 2723 c-8 -3 -33 -13 -55 -23 -22 -9 -48 -20 -57 -23 -15 -5
-18 -19 -18 -87 0 -78 1 -81 28 -92 15 -6 41 -17 59 -24 19 -9 68 -14 128 -14
l97 0 64 66 c73 76 74 73 -10 152 l-56 52 -83 -1 c-45 0 -89 -3 -97 -6z"/>
<path d="M427 2292 c-68 -27 -69 -28 -93 -87 -14 -33 -30 -70 -36 -82 -16 -32
-5 -48 49 -68 26 -9 63 -24 80 -32 30 -14 37 -14 75 5 24 10 61 26 82 33 22 8
63 37 93 66 58 57 57 47 14 146 l-20 47 -88 -1 c-71 0 -101 -6 -156 -27z"/>
<path d="M2337 2258 c-15 -35 -27 -68 -27 -73 0 -29 82 -86 184 -129 l109 -46
78 32 c77 31 93 48 70 74 -4 5 -17 33 -27 62 -10 29 -23 57 -29 61 -5 4 -49
24 -97 44 -73 31 -98 37 -160 37 l-74 0 -27 -62z"/>
<path d="M2150 1975 l-52 -53 12 -38 c22 -69 42 -98 115 -172 l72 -73 89 3 89
3 3 84 3 84 -94 91 c-68 66 -106 95 -139 107 l-47 16 -51 -52z"/>
<path d="M762 1986 c-35 -15 -78 -48 -128 -97 l-74 -73 0 -88 0 -88 88 0 87 0
87 88 c56 56 95 104 109 136 l21 48 -53 49 c-29 27 -60 49 -69 49 -8 -1 -39
-11 -68 -24z"/>
<path d="M1068 1776 c-31 -29 -53 -66 -87 -151 -5 -11 -16 -37 -25 -58 -9 -21
-16 -46 -16 -56 0 -33 56 -161 70 -161 5 0 43 15 83 34 l73 35 29 73 c16 40
32 77 37 83 4 5 8 46 8 92 0 80 -1 84 -25 93 -14 5 -44 19 -67 30 -23 11 -42
20 -42 20 -1 0 -18 -15 -38 -34z"/>
<path d="M1860 1777 l-65 -32 -3 -79 c-2 -66 1 -90 23 -145 34 -85 44 -94 118
-122 34 -12 67 -26 74 -31 18 -14 30 -3 44 40 6 20 15 42 19 47 4 6 13 28 20
50 11 37 9 46 -25 125 -25 59 -51 100 -83 133 -25 26 -49 47 -52 46 -3 0 -34
-14 -70 -32z"/>
<path d="M1412 1653 c-18 -44 -22 -73 -22 -161 l0 -108 64 -63 64 -63 66 66
66 67 0 90 c0 58 -5 100 -14 117 -8 15 -21 45 -30 67 l-17 40 -77 1 -78 1 -22
-54z"/>
<path d="M1457 1154 c-4 -4 -7 -205 -7 -446 0 -285 -3 -438 -10 -438 -5 0 -10
8 -10 18 -1 31 -57 150 -96 204 -78 106 -176 178 -304 225 l-75 27 -432 4
c-294 2 -433 0 -433 -7 0 -33 27 -125 53 -181 75 -163 204 -272 397 -336 49
-16 102 -19 483 -22 l427 -4 0 -64 0 -65 68 3 67 3 3 63 3 62 382 1 c210 0
407 4 437 9 70 10 141 29 155 39 5 5 21 12 35 16 34 10 117 66 162 109 41 39
104 128 136 191 23 47 54 164 46 176 -7 12 -753 11 -839 -1 -38 -6 -79 -14
-90 -19 -149 -63 -224 -115 -291 -203 -48 -62 -99 -156 -109 -204 -4 -16 -10
-36 -13 -44 -4 -8 -9 188 -12 435 l-5 450 -60 3 c-34 2 -64 0 -68 -4z"/>
</g>
</svg>
