<?xml version="1.0" standalone="no"?>
<!DOCTYPE svg PUBLIC "-//W3C//DTD SVG 20010904//EN"
 "http://www.w3.org/TR/2001/REC-SVG-20010904/DTD/svg10.dtd">
<svg version="1.0" xmlns="http://www.w3.org/2000/svg"
 width="300.000000pt" height="211.000000pt" viewBox="0 0 300.000000 211.000000"
 preserveAspectRatio="xMidYMid meet">
<metadata>
Created by potrace 1.10, written by Peter Selinger 2001-2011
</metadata>
<g transform="translate(0.000000,211.000000) scale(0.100000,-0.100000)"
fill="#000000" stroke="none">
<path d="M588 2100 c-78 -23 -138 -80 -138 -130 0 -15 -11 -25 -37 -36 -21 -8
-53 -22 -70 -30 -18 -8 -50 -21 -70 -28 -129 -47 -195 -96 -252 -189 -16 -27
-21 -45 -16 -65 12 -49 65 -120 149 -199 92 -87 184 -140 376 -218 140 -56
181 -80 249 -141 53 -48 53 -48 48 -98 -3 -30 -11 -54 -21 -62 -9 -6 -57 -26
-106 -43 -124 -43 -179 -80 -230 -150 l-24 -35 -57 62 c-59 65 -86 79 -75 39
3 -12 9 -39 12 -59 6 -34 4 -38 -19 -43 -14 -4 -64 3 -113 15 -59 14 -90 18
-97 11 -7 -7 -1 -14 19 -21 50 -18 109 -43 117 -51 19 -16 -7 -50 -71 -92 -70
-47 -114 -87 -93 -87 6 0 40 12 74 27 52 23 75 27 144 26 60 0 90 -5 109 -18
23 -15 34 -16 88 -5 33 6 76 20 96 30 19 9 53 23 75 29 78 24 150 54 180 76
35 26 203 115 217 115 5 0 28 -13 51 -28 54 -36 135 -71 216 -91 l64 -17 16
-52 c9 -31 30 -67 50 -87 43 -44 28 -52 -71 -34 -145 25 -455 14 -630 -21
-152 -31 -150 -30 -144 -59 6 -26 4 -27 -129 -69 -74 -23 -151 -50 -172 -59
-64 -28 -12 -27 94 2 78 22 110 26 158 21 85 -9 200 -35 221 -50 30 -22 18
-37 -118 -138 -20 -15 -21 -19 -8 -28 32 -21 87 -11 159 30 122 69 212 107
338 144 67 20 142 42 165 50 114 37 216 29 618 -50 284 -57 535 -56 622 1 69
46 196 165 212 200 9 19 26 44 38 55 20 18 20 20 4 44 -17 27 -22 96 -7 96 5
0 32 18 60 40 40 32 51 47 51 69 0 20 11 40 34 63 23 23 37 49 45 86 17 80 14
103 -29 277 -22 88 -47 200 -56 250 -23 135 -69 292 -139 480 -67 180 -85 200
-183 211 -37 4 -57 0 -91 -18 -75 -39 -86 -63 -85 -181 0 -60 8 -135 18 -182
25 -109 35 -165 34 -195 0 -20 -1 -21 -5 -5 -20 84 -107 223 -175 280 -48 41
-82 52 -190 64 -84 9 -105 16 -158 48 -123 75 -136 83 -206 112 -134 57 -202
59 -463 15 -108 -18 -259 -18 -356 1 -62 12 -84 21 -115 49 -55 50 -132 67
-202 46z m97 -331 c57 -29 107 -78 130 -129 15 -33 16 -44 5 -70 -19 -47 -70
-73 -143 -72 -133 0 -227 78 -227 187 1 54 17 81 60 103 35 17 121 8 175 -19z
m169 -552 c-6 -71 -3 -91 16 -145 24 -66 25 -171 2 -194 -9 -9 -12 5 -12 63 0
56 -5 85 -20 114 -25 49 -32 102 -19 152 12 45 30 93 35 93 2 0 1 -37 -2 -83z
m1370 -342 c92 -18 255 -63 276 -76 18 -12 10 -11 -105 20 -201 54 -426 66
-555 30 -79 -22 -256 -92 -340 -134 -27 -14 -50 -24 -50 -21 0 9 123 76 210
112 214 91 357 109 564 69z m326 -95 c8 -5 11 -10 5 -10 -5 0 -17 5 -25 10 -8
5 -10 10 -5 10 6 0 17 -5 25 -10z m-139 -96 c89 -27 337 -160 369 -199 20 -24
-14 -19 -58 9 -53 33 -230 109 -332 142 -104 33 -242 42 -374 24 -87 -12 -285
-51 -353 -69 -53 -15 -38 4 27 33 114 51 259 72 511 75 117 1 169 -3 210 -15z
m-506 -290 c223 -5 281 -3 335 9 36 9 66 14 68 12 2 -2 -16 -14 -40 -27 -42
-22 -50 -23 -258 -21 -118 2 -253 7 -300 12 -47 6 -111 13 -143 16 -31 4 -55
10 -53 14 3 4 31 4 63 -1 32 -4 180 -11 328 -14z"/>
<path d="M554 1746 c-28 -13 -64 -66 -64 -96 0 -45 92 -109 158 -110 47 0 92
46 92 93 0 43 -39 93 -87 113 -40 17 -59 17 -99 0z m154 -68 c19 -19 15 -58
-6 -58 -25 0 -42 19 -42 47 0 25 27 32 48 11z"/>
</g>
</svg>
