<?xml version="1.0" standalone="no"?>
<!DOCTYPE svg PUBLIC "-//W3C//DTD SVG 20010904//EN"
 "http://www.w3.org/TR/2001/REC-SVG-20010904/DTD/svg10.dtd">
<svg version="1.0" xmlns="http://www.w3.org/2000/svg"
 width="300.000000pt" height="359.000000pt" viewBox="0 0 300.000000 359.000000"
 preserveAspectRatio="xMidYMid meet">
<metadata>
Created by potrace 1.10, written by Peter Selinger 2001-2011
</metadata>
<g transform="translate(0.000000,359.000000) scale(0.100000,-0.100000)"
fill="#000000" stroke="none">
<path d="M1345 3539 c-22 -5 -54 -16 -72 -24 -17 -8 -35 -15 -40 -15 -27 0
-172 -122 -199 -166 -10 -17 -25 -19 -125 -20 -71 0 -123 -5 -137 -13 -20 -10
-26 -10 -35 3 -7 8 -34 26 -61 40 -40 21 -63 26 -124 26 -94 0 -144 -22 -206
-91 -24 -27 -49 -49 -54 -49 -27 0 -98 -50 -128 -89 -32 -41 -34 -49 -34 -118
0 -41 4 -83 10 -93 7 -14 5 -31 -10 -65 -40 -94 -16 -200 62 -276 22 -21 46
-39 52 -39 6 0 21 -7 33 -15 l21 -15 -32 -33 c-18 -18 -38 -49 -45 -68 -7 -19
-17 -43 -23 -53 -13 -24 -13 -155 0 -168 6 -6 -11 -30 -42 -62 -118 -122 -129
-300 -26 -407 14 -14 33 -28 42 -32 14 -5 16 -15 11 -55 -7 -66 25 -134 82
-171 50 -32 144 -36 187 -8 25 17 28 18 60 1 53 -28 188 -25 258 5 30 13 65
33 78 45 20 17 41 22 125 28 56 3 117 9 135 13 l32 7 0 -121 c0 -109 -7 -140
-24 -112 -4 5 -32 17 -64 27 -31 9 -62 21 -69 26 -18 14 -61 -14 -132 -85 -86
-88 -85 -98 7 -204 114 -131 228 -261 254 -289 29 -31 29 -31 18 -98 -14 -90
-52 -202 -106 -311 -61 -124 -79 -152 -135 -212 -27 -28 -49 -57 -49 -63 0 -6
7 -22 16 -35 12 -19 25 -25 52 -25 30 0 43 8 84 52 26 29 48 55 48 59 0 4 7
14 15 22 18 19 125 229 125 248 0 8 7 22 15 32 7 11 17 38 20 60 4 23 11 47
15 52 13 16 30 123 30 187 0 47 -4 60 -20 70 -11 7 -20 17 -20 21 0 8 -83 103
-225 259 -53 58 -60 76 -39 99 25 28 48 24 159 -26 59 -26 118 -31 138 -10 15
15 17 55 17 409 l0 393 59 7 c46 5 69 15 106 42 l47 36 22 -21 c12 -12 27 -21
33 -21 6 0 13 -6 15 -12 3 -8 27 -13 69 -13 l64 0 5 -640 c5 -553 8 -651 23
-724 10 -46 24 -98 32 -115 7 -17 17 -42 20 -56 8 -26 48 -121 67 -154 38 -70
54 -97 87 -141 61 -84 100 -115 143 -115 32 0 40 4 48 26 12 29 3 74 -14 74
-20 0 -114 139 -162 238 -25 53 -50 105 -55 115 -11 21 -47 163 -59 232 -5 28
-9 225 -9 438 l-1 388 48 -7 c26 -3 55 -10 64 -15 9 -5 27 -9 41 -9 19 0 30
-12 53 -57 36 -72 73 -93 161 -93 50 0 67 4 90 24 23 19 42 24 119 28 75 4
100 10 147 35 46 25 65 29 104 26 61 -6 110 15 152 63 34 39 51 73 51 105 0
11 16 34 36 51 50 44 84 119 84 185 0 29 -4 61 -9 71 -5 9 -22 45 -39 78 l-30
61 21 34 c18 28 22 49 22 124 0 79 -4 96 -28 143 -15 28 -32 52 -37 52 -6 0
-10 6 -10 13 0 8 -11 20 -25 27 -14 7 -25 17 -25 22 0 4 -7 8 -15 8 -17 0 -21
35 -5 45 6 3 10 31 10 62 0 41 6 63 23 86 34 48 32 157 -4 212 -34 52 -54 68
-112 91 -31 12 -61 35 -84 62 -45 55 -117 92 -180 92 -47 1 -48 1 -70 48 -30
64 -67 103 -132 138 -49 26 -64 29 -145 29 -78 -1 -97 -4 -129 -24 l-39 -24
-36 37 c-47 49 -102 86 -182 121 -58 25 -78 29 -190 31 -69 2 -143 -1 -165 -7z"/>
<path d="M1416 1789 c-26 -20 -26 -21 -26 -165 0 -131 2 -146 20 -164 11 -11
29 -20 40 -20 11 0 29 9 40 20 18 18 20 33 20 163 0 78 -4 147 -8 153 -6 10
-45 34 -55 34 -2 0 -16 -9 -31 -21z"/>
<path d="M1466 1178 c-13 -18 -16 -52 -16 -158 0 -106 3 -140 16 -158 19 -28
57 -29 84 -2 18 18 20 33 20 160 0 127 -2 142 -20 160 -27 27 -65 26 -84 -2z"/>
<path d="M1280 388 c-5 -13 -14 -61 -20 -108 -7 -48 -20 -99 -31 -116 -34 -56
-16 -104 40 -104 53 0 97 83 113 210 10 78 9 92 -6 114 -22 35 -82 37 -96 4z"/>
<path d="M1580 385 c-9 -17 -11 -44 -7 -87 14 -143 60 -238 116 -238 56 0 67
44 31 123 -12 27 -24 79 -27 120 -7 83 -22 107 -68 107 -23 0 -35 -6 -45 -25z"/>
</g>
</svg>
