<?xml version="1.0" standalone="no"?>
<!DOCTYPE svg PUBLIC "-//W3C//DTD SVG 20010904//EN"
 "http://www.w3.org/TR/2001/REC-SVG-20010904/DTD/svg10.dtd">
<svg version="1.0" xmlns="http://www.w3.org/2000/svg"
 width="300.000000pt" height="199.000000pt" viewBox="0 0 300.000000 199.000000"
 preserveAspectRatio="xMidYMid meet">
<metadata>
Created by potrace 1.10, written by Peter Selinger 2001-2011
</metadata>
<g transform="translate(0.000000,199.000000) scale(0.100000,-0.100000)"
fill="#000000" stroke="none">
<path d="M1305 1960 c-65 -10 -269 -19 -545 -24 -96 -2 -191 -8 -210 -15 -19
-6 -53 -11 -75 -11 -23 0 -59 -10 -85 -24 -25 -13 -63 -26 -85 -30 -54 -10
-85 -32 -85 -60 0 -26 13 -40 50 -51 13 -4 37 -17 51 -27 15 -11 41 -23 58
-27 43 -8 36 -22 -21 -42 -64 -21 -124 -63 -143 -99 -8 -16 -22 -61 -30 -100
-8 -40 -26 -105 -40 -145 -25 -75 -34 -117 -59 -280 -8 -49 -22 -110 -31 -135
-19 -54 -33 -232 -28 -355 5 -117 27 -236 57 -310 67 -167 71 -171 184 -161
42 3 114 9 160 13 l83 6 -3 30 c-3 28 0 31 57 51 77 27 177 81 206 112 l22 23
-62 162 c-80 207 -88 250 -72 401 11 101 11 123 -2 165 -12 35 -17 111 -21
283 -3 129 -8 249 -11 266 l-7 30 264 1 c144 0 280 2 301 3 21 1 50 -1 64 -5
27 -6 27 -7 -13 -25 -39 -17 -73 -53 -87 -93 -4 -10 -13 -107 -22 -215 -36
-488 -47 -920 -23 -939 34 -26 501 -70 826 -78 194 -5 276 -16 330 -42 35 -17
37 -20 33 -58 -11 -96 -10 -99 34 -107 22 -5 131 -10 242 -13 196 -5 205 -4
283 20 109 35 115 45 106 178 -26 392 -61 529 -165 642 -31 34 -40 54 -55 125
-83 396 -95 436 -153 500 -24 27 -54 52 -66 57 -18 6 -12 9 28 14 28 4 74 8
103 8 63 1 112 23 112 51 0 10 -17 32 -37 47 -20 15 -60 51 -89 80 -43 41 -63
53 -105 62 -29 6 -72 20 -97 31 -24 11 -52 20 -61 20 -9 0 -70 14 -136 31 -66
16 -165 37 -220 45 -118 18 -619 27 -710 14z m475 -400 c107 -5 197 -7 201 -4
4 2 29 -3 55 -11 61 -18 151 -19 184 -1 13 8 38 12 56 9 18 -3 44 1 62 11 17
9 45 16 62 16 l30 0 0 -62 c0 -71 -21 -169 -49 -231 -16 -36 -19 -79 -25 -317
-7 -324 -16 -490 -27 -490 -4 0 -13 17 -20 38 -6 20 -25 55 -40 76 -16 22 -29
45 -29 52 0 7 -16 31 -35 54 -19 23 -35 47 -35 54 0 14 -42 54 -82 79 -15 10
-35 32 -44 49 -9 18 -37 54 -62 80 -53 56 -70 83 -102 161 -12 33 -29 61 -36
64 -7 2 -23 23 -35 46 -11 23 -34 57 -50 75 -16 18 -38 50 -49 71 -11 22 -30
47 -43 58 -13 10 -50 47 -83 82 -56 61 -57 63 -29 57 17 -3 118 -10 225 -16z"/>
</g>
</svg>
