<?xml version="1.0" standalone="no"?>
<!DOCTYPE svg PUBLIC "-//W3C//DTD SVG 20010904//EN"
 "http://www.w3.org/TR/2001/REC-SVG-20010904/DTD/svg10.dtd">
<svg version="1.0" xmlns="http://www.w3.org/2000/svg"
 width="546.000000pt" height="471.000000pt" viewBox="0 0 546.000000 471.000000"
 preserveAspectRatio="xMidYMid meet">
<metadata>
Created by potrace 1.10, written by Peter Selinger 2001-2011
</metadata>
<g transform="translate(0.000000,471.000000) scale(0.100000,-0.100000)"
fill="#000000" stroke="none">
<path d="M2763 4569 c-11 -11 -36 -26 -78 -49 -11 -6 -32 -18 -47 -28 -15 -9
-70 -44 -123 -77 -53 -33 -109 -68 -123 -77 -15 -10 -36 -22 -47 -28 -11 -6
-32 -18 -47 -28 -15 -9 -59 -37 -98 -62 -39 -25 -83 -53 -98 -62 -15 -10 -36
-22 -47 -28 -11 -6 -32 -18 -46 -28 -15 -9 -53 -33 -85 -51 -32 -19 -75 -50
-96 -69 -33 -29 -38 -40 -38 -76 0 -38 7 -50 65 -114 59 -66 65 -77 65 -117 0
-24 -5 -47 -11 -51 -6 -4 -242 -6 -523 -5 -281 1 -587 -3 -681 -9 -93 -6 -253
-15 -355 -20 -211 -11 -260 -17 -267 -37 -8 -19 17 -169 31 -187 9 -11 21 -12
61 -5 48 8 156 14 730 40 162 7 397 9 625 5 324 -6 366 -8 378 -23 9 -12 12
-81 12 -260 0 -276 -1 -274 78 -344 88 -79 259 -152 442 -188 174 -35 539 -37
725 -5 135 24 291 66 348 96 105 54 127 69 179 117 l53 50 5 188 5 188 30 4
c17 2 73 -4 125 -14 52 -9 138 -23 190 -31 52 -8 127 -22 165 -30 39 -8 79
-14 90 -14 11 0 49 -6 85 -14 36 -8 101 -22 145 -31 44 -9 109 -22 145 -30 36
-9 74 -15 84 -15 11 0 42 -6 70 -14 28 -8 87 -22 131 -31 89 -18 174 -39 251
-61 28 -8 60 -14 71 -14 11 0 37 -7 56 -15 67 -28 67 -28 67 100 l0 114 -37 6
c-21 4 -60 13 -88 20 -27 8 -77 20 -110 28 -33 8 -82 21 -110 27 -27 7 -70 16
-95 20 -25 4 -65 12 -90 18 -66 16 -275 58 -425 86 -44 8 -107 20 -140 26 -33
6 -91 15 -130 20 -38 5 -86 14 -105 20 -19 5 -53 10 -75 10 -22 1 -67 7 -100
15 -33 8 -83 15 -110 15 -29 0 -60 7 -73 16 -21 14 -22 22 -22 142 l0 128 51
49 c76 75 94 121 68 178 -10 23 -66 64 -145 107 -21 12 -52 30 -69 41 -16 10
-39 23 -50 29 -11 6 -33 19 -50 30 -16 11 -39 24 -50 30 -11 6 -33 19 -50 30
-16 11 -39 24 -50 30 -11 5 -27 14 -35 20 -26 17 -322 190 -325 190 -2 0 -23
12 -47 28 -74 47 -82 52 -105 61 -11 6 -24 15 -28 20 -8 14 -88 14 -102 0z
m767 -1308 l0 -329 -62 -30 c-35 -17 -81 -37 -103 -45 -119 -44 -330 -80 -440
-75 l-80 3 -5 232 c-3 127 -7 233 -10 236 -24 22 -65 27 -204 27 -157 0 -197
-7 -213 -39 -4 -9 -10 -104 -13 -211 l-5 -195 -38 3 c-45 4 -174 61 -199 89
-15 17 -17 53 -18 333 -1 226 2 316 10 318 6 2 23 0 38 -6 42 -15 138 -39 237
-57 126 -24 663 -25 775 -1 41 9 86 16 99 16 28 0 121 26 166 45 69 31 65 51
65 -314z m-857 -154 c16 -11 17 -30 15 -167 l-3 -155 -55 0 -55 0 -3 155 c-1
85 0 160 2 167 7 17 77 17 99 0z"/>
<path d="M1165 2902 c-11 -4 -45 -23 -75 -43 -30 -19 -77 -49 -103 -65 -27
-16 -61 -37 -75 -46 -15 -10 -36 -22 -47 -28 -11 -6 -32 -18 -47 -28 -15 -9
-59 -37 -98 -62 -39 -25 -83 -53 -98 -62 -15 -10 -36 -22 -47 -28 -11 -6 -32
-18 -47 -28 -14 -9 -70 -44 -123 -77 -53 -33 -108 -68 -123 -77 -15 -10 -34
-21 -42 -25 -8 -4 -28 -16 -45 -27 -119 -81 -123 -131 -19 -246 l64 -71 0
-454 c0 -330 3 -462 12 -482 14 -32 97 -116 137 -137 109 -60 208 -102 271
-115 19 -4 51 -13 70 -19 19 -6 78 -19 130 -29 130 -24 576 -24 690 1 41 9 86
16 99 16 32 0 196 46 276 77 112 44 219 113 262 170 l28 36 3 470 2 469 70 75
c64 68 70 79 70 117 0 34 -6 49 -32 75 -18 18 -42 37 -53 42 -11 5 -27 13 -35
19 -27 18 -272 160 -276 160 -2 0 -20 12 -41 26 -21 14 -47 30 -58 35 -11 5
-33 18 -50 29 -16 11 -39 24 -50 30 -11 6 -33 19 -50 30 -16 11 -39 24 -50 30
-11 5 -27 14 -35 20 -21 14 -312 184 -330 193 -8 4 -26 14 -40 22 -26 15 -61
18 -95 7z m833 -1407 c1 -251 -1 -362 -9 -371 -11 -14 -128 -72 -189 -94 -46
-17 -110 -24 -110 -14 0 5 -2 113 -3 241 -2 218 -3 233 -23 260 -19 25 -28 28
-75 28 -89 -1 -333 -52 -354 -75 -12 -13 -15 -61 -17 -266 l-3 -249 -105 -3
c-107 -3 -252 15 -341 43 -26 8 -54 15 -63 15 -35 0 -213 88 -232 115 -11 16
-14 86 -14 368 0 385 -2 375 63 344 36 -17 109 -37 237 -64 128 -26 761 -26
900 0 120 24 202 44 265 67 28 10 55 17 60 16 6 -2 11 -133 13 -361z m-480
-327 l-3 -203 -57 -9 c-92 -13 -88 -23 -88 187 0 148 3 187 14 196 20 16 64
29 104 30 l32 1 -2 -202z"/>
<path d="M4095 2499 c-33 -21 -69 -43 -80 -49 -11 -6 -32 -18 -47 -28 -15 -9
-59 -37 -98 -62 -39 -25 -83 -53 -98 -62 -15 -10 -36 -22 -47 -28 -11 -6 -32
-18 -47 -28 -14 -9 -81 -51 -148 -92 -66 -41 -133 -83 -148 -92 -15 -10 -36
-22 -47 -28 -11 -5 -54 -33 -95 -60 -41 -27 -84 -55 -95 -60 -11 -6 -33 -19
-50 -30 -16 -11 -39 -24 -50 -29 -43 -20 -84 -66 -86 -96 -4 -64 2 -76 76
-154 l75 -78 0 -527 c0 -594 -7 -542 83 -625 124 -115 318 -192 622 -248 82
-14 151 -18 385 -17 196 0 304 4 345 13 33 8 85 17 115 21 56 7 111 20 210 47
204 57 399 175 438 266 9 21 12 163 12 548 l0 520 57 59 c31 33 63 60 70 60
10 0 13 23 13 90 0 82 -2 90 -19 90 -11 0 -23 5 -26 11 -4 5 -17 15 -28 20
-12 5 -35 18 -52 29 -16 11 -37 23 -45 27 -8 4 -71 40 -139 80 -67 40 -125 73
-127 73 -2 0 -20 12 -41 26 -21 14 -47 30 -58 35 -11 5 -33 18 -50 29 -16 11
-39 24 -50 30 -11 6 -33 19 -50 30 -16 11 -39 24 -50 30 -11 6 -33 19 -50 30
-16 11 -37 23 -45 27 -8 4 -71 40 -139 80 -67 40 -126 73 -129 73 -3 0 -13 6
-21 14 -35 30 -131 76 -158 75 -15 0 -55 -18 -88 -40z m1003 -1538 c2 -344 0
-418 -12 -436 -14 -21 -191 -115 -217 -115 -7 0 -31 -6 -54 -14 -111 -38 -349
-74 -520 -78 l-130 -3 -5 280 c-3 192 -9 287 -17 301 -19 33 -58 54 -100 54
-21 0 -71 6 -113 14 -175 34 -213 36 -245 18 -20 -12 -32 -29 -37 -52 -4 -19
-7 -147 -7 -285 0 -215 -2 -250 -15 -253 -35 -7 -209 69 -265 116 l-32 27 0
405 c1 223 1 411 1 418 0 15 34 16 63 0 12 -6 35 -15 52 -19 16 -4 44 -12 60
-18 46 -15 168 -39 295 -56 159 -21 618 -21 790 1 189 23 331 55 430 95 81 33
75 63 78 -400z m-1173 -158 c28 -3 53 -11 57 -17 4 -6 8 -111 8 -234 0 -196
-2 -223 -16 -229 -20 -8 -144 15 -161 29 -10 8 -13 65 -13 233 0 122 3 225 7
229 5 4 21 5 38 1 16 -3 53 -9 80 -12z"/>
</g>
</svg>
