<?xml version="1.0" standalone="no"?>
<!DOCTYPE svg PUBLIC "-//W3C//DTD SVG 20010904//EN"
 "http://www.w3.org/TR/2001/REC-SVG-20010904/DTD/svg10.dtd">
<svg version="1.0" xmlns="http://www.w3.org/2000/svg"
 width="300.000000pt" height="240.000000pt" viewBox="0 0 300.000000 240.000000"
 preserveAspectRatio="xMidYMid meet">
<metadata>
Created by potrace 1.10, written by Peter Selinger 2001-2011
</metadata>
<g transform="translate(0.000000,240.000000) scale(0.100000,-0.100000)"
fill="#000000" stroke="none">
<path d="M2435 2379 c-41 -22 -2116 -2104 -2137 -2143 -53 -102 26 -226 144
-226 27 0 61 6 76 14 16 8 500 490 1077 1071 799 803 1053 1065 1063 1093 23
65 -8 144 -70 182 -37 22 -119 27 -153 9z"/>
<path d="M1355 2024 c-123 -11 -311 -49 -435 -90 -301 -99 -551 -255 -792
-493 -84 -84 -108 -114 -113 -143 -10 -55 1 -76 89 -166 145 -150 292 -264
461 -361 l89 -51 93 92 92 92 -100 52 c-135 71 -321 205 -401 291 l-28 29 38
36 c178 169 406 307 632 383 57 19 105 35 107 35 2 0 -19 -27 -47 -61 -100
-120 -143 -239 -144 -394 0 -76 5 -117 22 -172 12 -40 26 -74 30 -77 5 -3 49
36 99 87 l91 92 4 80 c8 145 82 255 214 317 53 25 78 30 139 31 l73 0 173 173
c118 118 168 175 158 179 -66 25 -414 50 -544 39z"/>
<path d="M2323 1694 l-87 -86 38 -22 c94 -52 248 -161 330 -233 l89 -77 -59
-54 c-123 -113 -266 -213 -402 -281 -76 -38 -241 -102 -295 -115 -27 -6 -26
-4 23 55 92 111 140 234 143 372 2 84 -11 187 -23 187 -5 0 -57 -50 -117 -110
-89 -92 -110 -119 -120 -156 -27 -106 -126 -208 -233 -241 -50 -15 -71 -33
-237 -197 -101 -99 -179 -183 -175 -187 4 -4 53 -12 110 -18 350 -37 717 30
1035 190 203 102 338 201 520 378 166 162 165 195 -10 362 -139 133 -389 319
-429 319 -8 0 -53 -39 -101 -86z"/>
</g>
</svg>
