<?xml version="1.0" standalone="no"?>
<!DOCTYPE svg PUBLIC "-//W3C//DTD SVG 20010904//EN"
 "http://www.w3.org/TR/2001/REC-SVG-20010904/DTD/svg10.dtd">
<svg version="1.0" xmlns="http://www.w3.org/2000/svg"
 width="300.000000pt" height="153.000000pt" viewBox="0 0 300.000000 153.000000"
 preserveAspectRatio="xMidYMid meet">
<metadata>
Created by potrace 1.10, written by Peter Selinger 2001-2011
</metadata>
<g transform="translate(0.000000,153.000000) scale(0.100000,-0.100000)"
fill="#000000" stroke="none">
<path d="M1300 1514 c-294 -37 -614 -155 -855 -316 -131 -88 -293 -225 -372
-316 -57 -65 -63 -76 -63 -116 0 -40 6 -52 54 -108 66 -78 185 -185 293 -266
270 -199 562 -319 893 -368 141 -20 448 -15 580 10 292 55 583 181 815 354
110 82 328 292 345 332 23 56 6 97 -78 183 -174 179 -365 319 -577 422 -188
92 -360 146 -570 180 -48 8 -416 15 -465 9z m-254 -346 c-99 -114 -150 -249
-150 -403 0 -159 49 -292 150 -404 25 -28 41 -51 36 -51 -27 0 -228 78 -317
122 -153 77 -278 164 -398 277 l-58 55 33 34 c94 98 277 227 436 306 79 40
278 115 305 116 5 0 -12 -24 -37 -52z m975 21 c119 -40 249 -102 364 -174 89
-56 248 -180 293 -228 l24 -25 -89 -77 c-112 -99 -282 -211 -403 -269 -97 -46
-278 -111 -287 -103 -2 3 12 22 32 43 50 54 99 137 126 214 20 55 23 85 23
195 0 110 -3 140 -23 195 -27 76 -76 160 -126 213 -32 35 -40 47 -32 47 2 0
46 -14 98 -31z m-385 -90 c82 -31 172 -121 203 -204 84 -223 -68 -466 -306
-491 -147 -16 -299 77 -365 222 -32 70 -32 208 0 278 84 186 278 266 468 195z"/>
</g>
</svg>
