<?xml version="1.0" standalone="no"?>
<!DOCTYPE svg PUBLIC "-//W3C//DTD SVG 20010904//EN"
 "http://www.w3.org/TR/2001/REC-SVG-20010904/DTD/svg10.dtd">
<svg version="1.0" xmlns="http://www.w3.org/2000/svg"
 width="136.000000pt" height="300.000000pt" viewBox="0 0 136.000000 300.000000"
 preserveAspectRatio="xMidYMid meet">
<metadata>
Created by potrace 1.10, written by Peter Selinger 2001-2011
</metadata>
<g transform="translate(0.000000,300.000000) scale(0.050000,-0.050000)"
fill="#000000" stroke="none">
<path d="M1320 5000 c0 -587 -7 -900 -20 -900 -12 0 -20 107 -20 280 0 154 -7
280 -15 280 -8 0 -44 -18 -80 -40 -36 -22 -79 -40 -95 -40 -16 0 -59 18 -95
40 -36 22 -71 40 -79 40 -8 0 -17 -124 -20 -275 l-6 -275 -85 -6 -85 -6 0 291
0 291 -180 0 -180 0 0 -606 0 -606 90 -75 90 -75 0 -977 0 -977 -57 -47 c-31
-26 -97 -75 -145 -108 -87 -60 -90 -66 -115 -220 -14 -88 -57 -311 -94 -497
-38 -186 -69 -345 -69 -355 0 -9 576 -17 1280 -17 921 0 1280 6 1280 22 0 12
-31 176 -68 365 -37 189 -79 409 -93 490 l-26 147 -147 108 -146 108 0 975 0
975 100 92 101 92 -6 588 -5 588 -185 6 -185 6 0 -292 0 -292 -85 6 -85 6 -6
275 c-3 151 -10 275 -16 275 -5 0 -45 -20 -88 -45 l-77 -44 -92 44 c-51 25
-96 45 -102 45 -5 0 -9 -126 -9 -280 0 -173 -8 -280 -20 -280 -13 0 -20 243
-20 690 l0 690 362 0 c337 0 361 2 348 35 -58 139 -59 143 -24 216 51 106 43
109 -337 109 -297 0 -349 4 -349 30 0 17 -9 30 -20 30 -13 0 -20 -313 -20
-900z m129 -1865 c39 -34 55 -71 64 -150 l13 -105 -173 0 -173 0 0 109 c0 172
147 252 269 146z m0 -562 c48 -49 88 -210 62 -252 -8 -12 -81 -21 -172 -21
l-159 0 0 111 c0 184 154 276 269 162z"/>
</g>
</svg>
