<?xml version="1.0" standalone="no"?>
<!DOCTYPE svg PUBLIC "-//W3C//DTD SVG 20010904//EN"
 "http://www.w3.org/TR/2001/REC-SVG-20010904/DTD/svg10.dtd">
<svg version="1.0" xmlns="http://www.w3.org/2000/svg"
 width="300.000000pt" height="300.000000pt" viewBox="0 0 300.000000 300.000000"
 preserveAspectRatio="xMidYMid meet">
<metadata>
Created by potrace 1.10, written by Peter Selinger 2001-2011
</metadata>
<g transform="translate(0.000000,300.000000) scale(0.100000,-0.100000)"
fill="#000000" stroke="none">
<path d="M1436 2966 c-45 -49 -95 -136 -123 -214 -49 -132 -29 -284 55 -420
67 -108 103 -139 148 -128 34 9 100 96 147 195 36 74 41 94 45 172 3 51 -1
109 -7 136 -19 73 -77 184 -127 241 -57 65 -90 70 -138 18z"/>
<path d="M917 2300 c-33 -26 -35 -65 -11 -173 44 -197 157 -324 342 -384 102
-34 318 -43 432 -19 252 54 393 215 425 488 7 53 5 59 -19 83 -25 25 -31 26
-89 20 -148 -17 -298 -88 -370 -177 -59 -72 -117 -221 -117 -300 0 -15 -4 -28
-10 -28 -5 0 -10 12 -10 26 0 44 -30 144 -63 212 -72 148 -222 241 -428 267
-46 6 -58 4 -82 -15z"/>
<path d="M910 1700 c-24 -24 -25 -68 -5 -163 29 -136 105 -261 198 -322 193
-128 550 -138 757 -21 135 77 223 224 245 411 6 53 4 64 -16 89 -22 28 -24 28
-93 22 -245 -21 -412 -158 -471 -384 -8 -33 -15 -72 -15 -86 0 -14 -4 -26 -10
-26 -5 0 -10 13 -10 29 0 51 -48 185 -88 247 -69 107 -158 166 -306 204 -103
26 -160 26 -186 0z"/>
<path d="M913 1104 c-24 -24 -25 -30 -19 -94 7 -78 42 -189 80 -253 34 -59
129 -145 192 -174 55 -25 193 -63 231 -63 l23 0 0 -226 c0 -228 4 -254 39
-281 24 -18 66 -15 92 6 24 19 24 22 29 257 l5 239 85 17 c264 55 402 210 435
490 7 53 5 59 -19 83 -24 24 -31 26 -79 20 -204 -26 -355 -114 -429 -250 -29
-55 -68 -184 -68 -227 0 -16 -4 -28 -10 -28 -5 0 -10 12 -10 26 0 40 -28 141
-55 196 -72 150 -200 241 -385 274 -102 18 -107 18 -137 -12z"/>
</g>
</svg>
